<?xml version="1.0" encoding="UTF-8"?>
<svg version="1.1" xmlns="http://www.w3.org/2000/svg" width="1538" height="345">
<path d="M0 0 C507.54 0 1015.08 0 1538 0 C1538 113.85 1538 227.7 1538 345 C1030.46 345 522.92 345 0 345 C0 231.15 0 117.3 0 0 Z " fill="#FEFEFE" transform="translate(0,0)"/>
<path d="M0 0 C0.81999481 0.00292557 1.63998962 0.00585114 2.48483276 0.00886536 C5.31069819 0.02429127 8.135386 0.06903376 10.9609375 0.11328125 C12.99282519 0.13055553 15.02472802 0.14611555 17.05664062 0.16015625 C22.54712162 0.20389114 28.0371255 0.26945815 33.52730942 0.34088707 C39.46180229 0.41706094 45.39638407 0.48087518 51.33105469 0.54150391 C52.78510869 0.55636888 52.78510869 0.55636888 54.26853752 0.57153416 C56.2726159 0.59199029 58.27669445 0.61242952 60.28077316 0.63285255 C83.29951098 0.86860267 106.31777471 1.13981278 129.3359375 1.42578125 C129.3359375 2.08578125 129.3359375 2.74578125 129.3359375 3.42578125 C128.71589844 3.75449219 128.09585937 4.08320313 127.45703125 4.421875 C121.15938166 7.80445535 115.01651015 11.38725493 108.90844727 15.09619141 C104.25602489 17.90895182 99.53037552 20.53520826 94.703125 23.0390625 C92.23726494 24.40335809 92.23726494 24.40335809 89.88671875 26.4140625 C87.2393323 28.50197065 84.69170234 29.86244246 81.6484375 31.30078125 C76.93849261 33.59551688 72.45953782 36.07501529 67.99609375 38.8125 C64.99285949 40.63384471 61.95128663 42.37637636 58.8984375 44.11328125 C46.75526775 51.02648029 34.64774174 57.99614943 22.68774414 65.22241211 C17.47775159 68.36219032 12.19970234 71.37077997 6.90625 74.3671875 C4.3344854 75.8358421 1.79480029 77.34980119 -0.734375 78.890625 C-1.41113281 79.30248047 -2.08789062 79.71433594 -2.78515625 80.13867188 C-4.09008021 80.93612541 -5.39231946 81.73799425 -6.69140625 82.54492188 C-9.62512249 84.33774847 -12.23529282 85.88843675 -15.6640625 86.42578125 C-15.6640625 87.08578125 -15.6640625 87.74578125 -15.6640625 88.42578125 C-17.28656191 89.26397283 -18.91214747 90.09619285 -20.5390625 90.92578125 C-21.89644531 91.621875 -21.89644531 91.621875 -23.28125 92.33203125 C-25.6640625 93.42578125 -25.6640625 93.42578125 -27.6640625 93.42578125 C-27.6640625 94.08578125 -27.6640625 94.74578125 -27.6640625 95.42578125 C-28.63085938 95.93367188 -29.59765625 96.4415625 -30.59375 96.96484375 C-37.17989248 100.44079267 -43.70048914 103.95600516 -50.05078125 107.8515625 C-53.93467479 110.19118746 -57.88715228 112.40939911 -61.84399414 114.62304688 C-64.32575176 116.02487502 -66.68104044 117.43867406 -68.953125 119.1640625 C-70.6640625 120.42578125 -70.6640625 120.42578125 -72.6640625 120.42578125 C-71.18397554 115.42464531 -69.0322289 111.09662528 -66.5390625 106.55078125 C-66.16652344 105.86242187 -65.79398438 105.1740625 -65.41015625 104.46484375 C-64.49906724 102.78283327 -63.58215935 101.10397689 -62.6640625 99.42578125 C-62.0040625 99.42578125 -61.3440625 99.42578125 -60.6640625 99.42578125 C-60.24447266 98.37390625 -60.24447266 98.37390625 -59.81640625 97.30078125 C-58.62907638 94.33849385 -57.43580662 91.3791999 -56.2265625 88.42578125 C-55.81535156 87.41515625 -55.40414063 86.40453125 -54.98046875 85.36328125 C-53.71752993 82.54509136 -52.41726872 79.96909907 -50.6640625 77.42578125 C-50.0040625 77.42578125 -49.3440625 77.42578125 -48.6640625 77.42578125 C-48.42079224 76.60243286 -48.42079224 76.60243286 -48.17260742 75.76245117 C-46.37383223 69.996674 -43.99039358 64.95863629 -40.9765625 59.73828125 C-40.53739502 58.96226562 -40.09822754 58.18625 -39.64575195 57.38671875 C-38.32720883 55.06130985 -36.99784215 52.74247877 -35.6640625 50.42578125 C-35.27959961 49.75724121 -34.89513672 49.08870117 -34.49902344 48.39990234 C-34.1384082 47.77293457 -33.77779297 47.1459668 -33.40625 46.5 C-33.05780029 45.89309326 -32.70935059 45.28618652 -32.3503418 44.66088867 C-31.42213967 43.0483899 -30.48675206 41.44003315 -29.55078125 39.83203125 C-28.06703354 37.15329833 -26.67469087 34.47255334 -25.31640625 31.73046875 C-22.52428011 26.0963476 -19.55034976 20.57022298 -16.5390625 15.05078125 C-16.01441406 14.08011719 -15.48976563 13.10945312 -14.94921875 12.109375 C-14.18544922 10.70751953 -14.18544922 10.70751953 -13.40625 9.27734375 C-12.72344971 8.02171631 -12.72344971 8.02171631 -12.02685547 6.74072266 C-11.57713379 5.97679199 -11.12741211 5.21286133 -10.6640625 4.42578125 C-10.07383301 3.29885864 -10.07383301 3.29885864 -9.47167969 2.14916992 C-6.67054655 -0.5214404 -3.66071464 -0.08504225 0 0 Z " fill="#F07F37" transform="translate(1367.6640625,174.57421875)"/>
<path d="M0 0 C8.73183348 3.3404701 16.64353898 8.35291514 24.60913086 13.19189453 C30.48040676 16.73602073 36.45405837 20.08720259 42.4375 23.4375 C49.92095262 27.63199228 57.30861371 31.91864144 64.51342773 36.57788086 C68.92944574 39.41518339 73.48149139 41.9343769 78.10009766 44.42700195 C82.87190291 47.01537889 87.5899233 49.69816621 92.3125 52.375 C93.32449463 52.94806885 94.33648926 53.5211377 95.37915039 54.11157227 C98.25338537 55.73996037 101.12679567 57.36979428 104 59 C104.6693457 59.37914551 105.33869141 59.75829102 106.02832031 60.14892578 C111.89414439 63.47267195 117.73255079 66.83989736 123.55078125 70.24609375 C133.68341411 76.17804249 143.82638793 82.06808034 154.11181641 87.73168945 C158.59955264 90.20680968 163.01366955 92.77163475 167.38671875 95.4453125 C170.86435826 97.5142221 174.40171228 99.47012414 177.9375 101.4375 C183.66152624 104.62547205 189.21961771 107.98628241 194.71484375 111.55859375 C197.40353467 113.25453726 200.11405778 114.67402655 203 116 C203 116.33 203 116.66 203 117 C187.22187699 117.26227563 171.44373099 117.52312001 155.66555691 117.78230286 C148.3379805 117.9027032 141.01041209 118.02355586 133.68286133 118.14550781 C127.28938297 118.25191287 120.8958907 118.35743416 114.50238091 118.46193409 C111.12325954 118.51719459 107.74414627 118.57287049 104.36504936 118.62960815 C103.07398844 118.65121002 101.78292751 118.67281189 100.45274353 118.69506836 C99.20090806 118.71612137 97.94907259 118.73717438 96.65930271 118.75886536 C93.1395327 118.81412 89.61977318 118.85705479 86.099823 118.89892578 C82.41014314 118.94643119 78.73467751 119.04500975 75.04983521 119.23779297 C74.34379937 119.26574448 73.63776354 119.29369598 72.91033268 119.32249451 C71.16405524 119.3946109 69.41905576 119.49620194 67.67445374 119.60131836 C65 119 65 119 62.70848083 116.16625977 C61.28691063 113.5317201 60.08699134 110.91593333 58.95703125 108.1484375 C54.82057951 98.86252544 49.36873862 90.05967186 44.37109375 81.2109375 C41.97555461 76.96515307 39.61175687 72.70213913 37.25 68.4375 C33.27811066 61.27578814 29.27341575 54.13288883 25.25 47 C24.71922852 46.05697021 24.18845703 45.11394043 23.64160156 44.14233398 C21.11010018 39.66160817 18.53872194 35.21678954 15.86328125 30.8203125 C13.3172456 26.60440395 11.07098107 22.31091793 8.9375 17.875 C6.7979069 13.49622622 4.64339978 9.22863478 2 5.125 C0 2 0 2 0 0 Z " fill="#7E063E" transform="translate(1296,38)"/>
<path d="M0 0 C2.84040603 2.84040603 4.56019797 5.33415467 6.625 8.75 C6.97199951 9.32145752 7.31899902 9.89291504 7.67651367 10.48168945 C8.7894847 12.31807922 9.89563471 14.15842372 11 16 C11.35368652 16.58894043 11.70737305 17.17788086 12.07177734 17.78466797 C13.52914191 20.2122725 14.98537553 22.64054334 16.4387207 25.07055664 C19.36658476 29.9614697 22.33375434 34.82744129 25.3125 39.6875 C29.18034307 46.00046904 33.01058332 52.33461987 36.8125 58.6875 C41.34989263 66.265313 45.91353458 73.82677943 50.5 81.375 C51.0875708 82.34397217 51.6751416 83.31294434 52.28051758 84.3112793 C52.83763428 85.2269165 53.39475098 86.14255371 53.96875 87.0859375 C54.48953125 87.94413086 55.0103125 88.80232422 55.546875 89.68652344 C56.78695097 91.66081106 58.09469856 93.53297666 59.46875 95.4140625 C61 98 61 98 60.94140625 100.015625 C59.69178853 102.64967397 58.36143695 105.2050914 56.9375 107.75 C56.38964844 108.73484375 55.84179688 109.7196875 55.27734375 110.734375 C54.85582031 111.48203125 54.43429687 112.2296875 54 113 C53.34 113 52.68 113 52 113 C51.78214844 113.63550781 51.56429688 114.27101563 51.33984375 114.92578125 C49.45641487 119.24723469 47.01169676 123.1658797 44.5625 127.1875 C44.02681396 128.0738916 43.49112793 128.9602832 42.93920898 129.87353516 C39.06094922 136.28228661 35.14564485 142.66836631 31.22583008 149.05175781 C27.49838227 155.14016746 23.86864312 161.28394356 20.25 167.4375 C16.43777484 173.91939098 12.59430895 180.35442363 8.49609375 186.66015625 C6.28703337 190.11505747 4.22565338 193.65482587 2.1640625 197.19921875 C1.77992187 197.79347656 1.39578125 198.38773438 1 199 C0.67 199 0.34 199 0 199 C0 133.33 0 67.66 0 0 Z " fill="#60646A" transform="translate(1281,67)"/>
<path d="M0 0 C22 0 22 0 30 2 C30 2.66 30 3.32 30 4 C30.75796875 4.23847656 31.5159375 4.47695312 32.296875 4.72265625 C35.44554102 6.21053745 36.42558258 7.51363103 38.25 10.4375 C38.75015625 11.21996094 39.2503125 12.00242187 39.765625 12.80859375 C42.90803115 18.38735909 42.94410571 24.61491632 41.24609375 30.703125 C37.40170767 40.77390893 34.33202199 42.833989 24 48 C16.08 48 8.16 48 0 48 C0 32.16 0 16.32 0 0 Z " fill="#060606" transform="translate(782,105)"/>
<path d="M0 0 C28.78033981 0 28.78033981 0 36.5625 7.421875 C41.83116494 13.20595281 42.30161751 20.44182001 42 28 C40.64560365 33.63063651 38.24675333 38.98917741 34 43 C22.26658608 49.9972083 16.31200333 48 0 48 C0 32.16 0 16.32 0 0 Z " fill="#060606" transform="translate(413,105)"/>
<path d="M0 0 C26.58333333 0 26.58333333 0 34.3125 5.25 C39.32629397 10.38039383 42.0596734 15.91278862 42.3125 23.125 C42.22357459 29.86109959 39.88629879 35.65487178 35.6875 40.875 C24.07377735 50.05794349 16.50066224 48 0 48 C0 32.16 0 16.32 0 0 Z " fill="#060606" transform="translate(138,105)"/>
<path d="M0 0 C23 0 23 0 31 4 C34.11485903 9.06164592 34.64117753 13.22940226 34 19 C32.25364203 22.14344435 30.53137274 24.46862726 28 27 C27.01 27 26.02 27 25 27 C29.04036248 34.74390181 29.04036248 34.74390181 33.875 42 C36 45 36 45 36 48 C33.03 48 30.06 48 27 48 C26.67 47.01 26.34 46.02 26 45 C25.34 45 24.68 45 24 45 C23.60167969 44.25234375 23.20335937 43.5046875 22.79296875 42.734375 C22.26316406 41.74953125 21.73335938 40.7646875 21.1875 39.75 C20.40439453 38.28820312 20.40439453 38.28820312 19.60546875 36.796875 C17.5968492 33.1735172 17.5968492 33.1735172 15 30 C13.02 29.67 11.04 29.34 9 29 C9 35.27 9 41.54 9 48 C6.03 48 3.06 48 0 48 C0 32.16 0 16.32 0 0 Z " fill="#050505" transform="translate(321,105)"/>
<path d="M0 0 C26.57894737 0 26.57894737 0 32 5 C34.81989633 9.34809822 34.63964136 13.99342442 34 19 C32.16479961 22.80634156 31.02630521 24.4868474 27.25 26.375 C26.5075 26.58125 25.765 26.7875 25 27 C28.14662427 32.76417012 31.43850404 38.38966523 34.9609375 43.93359375 C35.30382812 44.61550781 35.64671875 45.29742187 36 46 C35.505 46.99 35.505 46.99 35 48 C31.98488852 48.37326887 29.91831801 48.61974853 27 48 C24.58587493 45.95183214 23.14293072 43.46864235 21.5625 40.75 C21.13001953 40.06808594 20.69753906 39.38617188 20.25195312 38.68359375 C18.25836047 35.47013454 16.78855084 32.72545321 16 29 C13.69 29 11.38 29 9 29 C9 35.27 9 41.54 9 48 C6.03 48 3.06 48 0 48 C0 32.16 0 16.32 0 0 Z " fill="#050505" transform="translate(229,105)"/>
<path d="M0 0 C4.1725131 2.08625655 6.86737361 4.61158887 10.078125 7.8828125 C10.64956238 8.45707977 11.22099976 9.03134705 11.80975342 9.62301636 C13.62792945 11.4523581 15.43901492 13.28854193 17.25 15.125 C18.48391329 16.36894774 19.71828322 17.6124427 20.953125 18.85546875 C23.97495803 21.8976098 26.98709926 24.94890756 30 28 C30.33 19.09 30.66 10.18 31 1 C33.97 1 36.94 1 40 1 C40 17.17 40 33.34 40 50 C35.96491429 47.98245714 33.82461582 46.06092526 30.6875 42.875 C30.20112061 42.38217529 29.71474121 41.88935059 29.21362305 41.3815918 C26.48943493 38.59954801 23.85579705 35.76014613 21.3125 32.8125 C17.73675731 28.69702257 13.85506746 24.85506746 10 21 C9.67 30.24 9.34 39.48 9 49 C6.03 49 3.06 49 0 49 C0 32.83 0 16.66 0 0 Z " fill="#040404" transform="translate(87,104)"/>
<path d="M0 0 C3.70516302 1.85258151 5.5274362 3.29205048 8.37109375 6.17578125 C9.60375977 7.41811523 9.60375977 7.41811523 10.86132812 8.68554688 C11.71146484 9.55244141 12.56160156 10.41933594 13.4375 11.3125 C14.28376953 12.16779297 15.13003906 13.02308594 16.00195312 13.90429688 C17.62943716 15.54962333 19.25501642 17.19683673 20.87841797 18.84619141 C23.23987994 21.24352369 25.61596283 23.62514987 28 26 C28.66 26.66 29.32 27.32 30 28 C30.33 19.09 30.66 10.18 31 1 C33.97 1 36.94 1 40 1 C40 17.17 40 33.34 40 50 C36.44989206 48.22494603 35.36771112 47.5674175 33.0625 44.6875 C30.55595354 41.58049951 27.84165489 38.80542983 25 36 C23.838702 34.82925644 22.67862206 33.65730383 21.51953125 32.484375 C20.28389291 31.23954488 19.04821518 29.99475385 17.8125 28.75 C17.18408203 28.11320312 16.55566406 27.47640625 15.90820312 26.8203125 C15.30556641 26.21445313 14.70292969 25.60859375 14.08203125 24.984375 C13.53780518 24.43491211 12.9935791 23.88544922 12.43286133 23.31933594 C11.0161937 21.89273848 11.0161937 21.89273848 9 21 C9 30.24 9 39.48 9 49 C6.03 49 3.06 49 0 49 C0 32.83 0 16.66 0 0 Z " fill="#040404" transform="translate(1065,104)"/>
<path d="M0 0 C3.70516302 1.85258151 5.5274362 3.29205048 8.37109375 6.17578125 C9.60375977 7.41811523 9.60375977 7.41811523 10.86132812 8.68554688 C11.71146484 9.55244141 12.56160156 10.41933594 13.4375 11.3125 C14.28376953 12.16779297 15.13003906 13.02308594 16.00195312 13.90429688 C17.62943716 15.54962333 19.25501642 17.19683673 20.87841797 18.84619141 C23.23987994 21.24352369 25.61596283 23.62514987 28 26 C28.66 26.66 29.32 27.32 30 28 C30.33 19.09 30.66 10.18 31 1 C33.97 1 36.94 1 40 1 C40 17.17 40 33.34 40 50 C36.44989206 48.22494603 35.36771112 47.5674175 33.0625 44.6875 C30.55595354 41.58049951 27.84165489 38.80542983 25 36 C23.838702 34.82925644 22.67862206 33.65730383 21.51953125 32.484375 C20.28389291 31.23954488 19.04821518 29.99475385 17.8125 28.75 C17.18408203 28.11320312 16.55566406 27.47640625 15.90820312 26.8203125 C15.30556641 26.21445313 14.70292969 25.60859375 14.08203125 24.984375 C13.53780518 24.43491211 12.9935791 23.88544922 12.43286133 23.31933594 C11.0161937 21.89273848 11.0161937 21.89273848 9 21 C9 30.24 9 39.48 9 49 C6.03 49 3.06 49 0 49 C0 32.83 0 16.66 0 0 Z " fill="#040404" transform="translate(873,104)"/>
<path d="M0 0 C23.54545455 0 23.54545455 0 29.375 5.0625 C32.61209819 8.92211707 32.33246048 12.34377374 32.28125 17.234375 C31.88814794 21.0998786 30.61907755 23.16856481 28 26 C25.3125 27.75 25.3125 27.75 23 29 C22.67 29.66 22.34 30.32 22 31 C22.66 31 23.32 31 24 31 C25.80068015 33.42649031 27.47836549 35.84739297 29.125 38.375 C29.59292969 39.07367188 30.06085937 39.77234375 30.54296875 40.4921875 C34 45.73316782 34 45.73316782 34 48 C31.75390625 48.3203125 31.75390625 48.3203125 29 48 C26.90234375 45.8046875 26.90234375 45.8046875 24.9375 42.875 C23.89142578 41.37453125 23.89142578 41.37453125 22.82421875 39.84375 C21 37 21 37 20.01953125 34.96875 C19.21577741 33.09811371 19.21577741 33.09811371 17 31 C12.92456196 30.18929458 9.18594474 30.0909988 5 30 C5 35.94 5 41.88 5 48 C3.35 48 1.7 48 0 48 C0 32.16 0 16.32 0 0 Z " fill="#090909" transform="translate(814,196)"/>
<path d="M0 0 C3.0625 2.1875 3.0625 2.1875 5 4 C3.79618552 6.49361571 2.54571278 8.68143083 1 11 C-1.7007721 9.99685608 -3.98826901 9.00802647 -6.375 7.375 C-9.872977 5.54272633 -12.09364201 5.52027183 -16 6 C-20.45846807 8.31497381 -22.78909057 10.52735563 -25 15 C-26.11107071 22.23121857 -25.69735703 28.43930329 -21.484375 34.51171875 C-19.12117709 36.8811356 -17.16190004 37.9938632 -13.78125 38.01171875 C-13.0284375 37.90472656 -12.275625 37.79773438 -11.5 37.6875 C-10.7471875 37.58824219 -9.994375 37.48898438 -9.21875 37.38671875 C-7.11178366 37.01948342 -5.06621118 36.54942434 -3 36 C-3 33.36 -3 30.72 -3 28 C-5.97 28 -8.94 28 -12 28 C-12 25.36 -12 22.72 -12 20 C-6.06 20 -0.12 20 6 20 C6.16240455 23.06463399 6.28104814 26.12064274 6.375 29.1875 C6.42527344 30.05181641 6.47554688 30.91613281 6.52734375 31.80664062 C6.67180706 38.09079446 6.67180706 38.09079446 4.76953125 40.6652832 C-1.17871392 45.75912035 -7.82835764 47.6354955 -15.55078125 47.33984375 C-22.53536605 46.37069084 -27.17074529 42.57548926 -31.5234375 37.19921875 C-35.77159226 30.87194062 -37.19844365 23.51331982 -36 16 C-33.28282425 7.5968824 -28.08840282 2.00085295 -20.5625 -2.4375 C-13.32819887 -4.02551732 -6.70716511 -3.10060437 0 0 Z " fill="#090909" transform="translate(306,107)"/>
<path d="M0 0 C0.66 0 1.32 0 2 0 C5.28394415 6.49196459 8.55855907 12.98857102 11.82666016 19.48852539 C12.94006338 21.70022439 14.05561598 23.9108427 15.17333984 26.12036133 C16.7774473 29.29228099 18.37384251 32.46797781 19.96875 35.64453125 C20.47184692 36.63524124 20.97494385 37.62595123 21.49328613 38.64668274 C21.95376343 39.56741074 22.41424072 40.48813873 22.88867188 41.43676758 C23.2972644 42.2472908 23.70585693 43.05781403 24.12683105 43.89289856 C25 46 25 46 25 49 C21.7 49 18.4 49 15 49 C13.68 46.03 12.36 43.06 11 40 C4.4 39.67 -2.2 39.34 -9 39 C-9.33 40.32 -9.66 41.64 -10 43 C-10.33 43.99 -10.66 44.98 -11 46 C-11.66 46 -12.32 46 -13 46 C-13.33 46.99 -13.66 47.98 -14 49 C-16.97 49 -19.94 49 -23 49 C-22.41276687 45.4574186 -21.48181856 42.59537736 -19.86694336 39.39331055 C-19.42656235 38.51277512 -18.98618134 37.63223969 -18.53245544 36.72502136 C-17.81836266 35.32006157 -17.81836266 35.32006157 -17.08984375 33.88671875 C-16.60294571 32.91716751 -16.11604767 31.94761627 -15.61439514 30.94868469 C-14.06104851 27.85875701 -12.49940014 24.77311142 -10.9375 21.6875 C-9.88161118 19.59077181 -8.82626615 17.49376969 -7.77148438 15.39648438 C-5.18728644 10.26112987 -2.59626351 5.12926416 0 0 Z " fill="#0B0B0B" transform="translate(527,104)"/>
<path d="M0 0 C0.66 0 1.32 0 2 0 C5.28394415 6.49196459 8.55855907 12.98857102 11.82666016 19.48852539 C12.94006338 21.70022439 14.05561598 23.9108427 15.17333984 26.12036133 C16.7774473 29.29228099 18.37384251 32.46797781 19.96875 35.64453125 C20.47184692 36.63524124 20.97494385 37.62595123 21.49328613 38.64668274 C21.95376343 39.56741074 22.41424072 40.48813873 22.88867188 41.43676758 C23.2972644 42.2472908 23.70585693 43.05781403 24.12683105 43.89289856 C25 46 25 46 25 49 C21.7 49 18.4 49 15 49 C13.68 46.03 12.36 43.06 11 40 C4.4 39.67 -2.2 39.34 -9 39 C-9.33 40.32 -9.66 41.64 -10 43 C-11.5 46.25 -11.5 46.25 -14 49 C-17.06071601 49.51715546 -19.92626406 49.35466184 -23 49 C-22.38275408 44.71134327 -20.79108404 41.23846407 -18.8125 37.4375 C-18.09968553 36.0406578 -17.38750073 34.64349419 -16.67578125 33.24609375 C-16.26537598 32.44413574 -15.8549707 31.64217773 -15.43212891 30.81591797 C-12.7475287 25.53733312 -10.11089242 20.23458101 -7.46640015 14.93582153 C-5.90623159 11.81060689 -4.34366333 8.68659282 -2.78125 5.5625 C-2.24564453 4.49128906 -1.71003906 3.42007813 -1.15820312 2.31640625 C-0.77599609 1.55199219 -0.39378906 0.78757812 0 0 Z " fill="#0A0A0A" transform="translate(1134,104)"/>
<path d="M0 0 C0.66 0 1.32 0 2 0 C5.28394415 6.49196459 8.55855907 12.98857102 11.82666016 19.48852539 C12.94006338 21.70022439 14.05561598 23.9108427 15.17333984 26.12036133 C16.7774473 29.29228099 18.37384251 32.46797781 19.96875 35.64453125 C20.47184692 36.63524124 20.97494385 37.62595123 21.49328613 38.64668274 C21.95376343 39.56741074 22.41424072 40.48813873 22.88867188 41.43676758 C23.2972644 42.2472908 23.70585693 43.05781403 24.12683105 43.89289856 C25 46 25 46 25 49 C21.7 49 18.4 49 15 49 C13.68 46.03 12.36 43.06 11 40 C4.4 39.67 -2.2 39.34 -9 39 C-9.33 40.32 -9.66 41.64 -10 43 C-11.5 46.25 -11.5 46.25 -14 49 C-17.06071601 49.51715546 -19.92626406 49.35466184 -23 49 C-20.7224525 41.02858374 -17.06832067 33.90415765 -13.30517578 26.56201172 C-10.67091979 21.39106477 -8.09115026 16.19263907 -5.5 11 C-4.44810476 8.8957393 -3.39603644 6.7915651 -2.34375 4.6875 C-1.89193359 3.78386719 -1.44011719 2.88023438 -0.97460938 1.94921875 C-0.65298828 1.30597656 -0.33136719 0.66273437 0 0 Z " fill="#0A0A0A" transform="translate(382,104)"/>
<path d="M0 0 C10.89 0 21.78 0 33 0 C33 2.64 33 5.28 33 8 C25.08 8 17.16 8 9 8 C9 11.96 9 15.92 9 20 C16.59 20 24.18 20 32 20 C32 22.64 32 25.28 32 28 C24.41 28 16.82 28 9 28 C9 31.96 9 35.92 9 40 C16.92 40 24.84 40 33 40 C33 42.64 33 45.28 33 48 C22.11 48 11.22 48 0 48 C0 32.16 0 16.32 0 0 Z " fill="#030303" transform="translate(1201,105)"/>
<path d="M0 0 C10.89 0 21.78 0 33 0 C33 2.64 33 5.28 33 8 C25.08 8 17.16 8 9 8 C9 11.96 9 15.92 9 20 C16.59 20 24.18 20 32 20 C32 22.64 32 25.28 32 28 C24.41 28 16.82 28 9 28 C9 31.96 9 35.92 9 40 C16.92 40 24.84 40 33 40 C33 42.64 33 45.28 33 48 C22.11 48 11.22 48 0 48 C0 32.16 0 16.32 0 0 Z " fill="#030303" transform="translate(1023,105)"/>
<path d="M0 0 C10.89 0 21.78 0 33 0 C33 2.64 33 5.28 33 8 C25.08 8 17.16 8 9 8 C9 11.96 9 15.92 9 20 C16.59 20 24.18 20 32 20 C32 22.64 32 25.28 32 28 C24.41 28 16.82 28 9 28 C9 31.96 9 35.92 9 40 C16.92 40 24.84 40 33 40 C33 42.64 33 45.28 33 48 C22.11 48 11.22 48 0 48 C0 32.16 0 16.32 0 0 Z " fill="#030303" transform="translate(594,105)"/>
<path d="M0 0 C10.89 0 21.78 0 33 0 C33 2.64 33 5.28 33 8 C25.08 8 17.16 8 9 8 C9 11.96 9 15.92 9 20 C16.59 20 24.18 20 32 20 C32 22.64 32 25.28 32 28 C24.41 28 16.82 28 9 28 C9 31.96 9 35.92 9 40 C16.92 40 24.84 40 33 40 C33 42.64 33 45.28 33 48 C22.11 48 11.22 48 0 48 C0 32.16 0 16.32 0 0 Z " fill="#030303" transform="translate(188,105)"/>
<path d="M0 0 C10.89 0 21.78 0 33 0 C33 2.64 33 5.28 33 8 C25.08 8 17.16 8 9 8 C9 11.96 9 15.92 9 20 C16.59 20 24.18 20 32 20 C32 22.64 32 25.28 32 28 C24.41 28 16.82 28 9 28 C9 31.96 9 35.92 9 40 C16.92 40 24.84 40 33 40 C33 42.31 33 44.62 33 47 C32 48 32 48 28.94897461 48.11352539 C27.60008731 48.11327443 26.25119355 48.10771815 24.90234375 48.09765625 C23.60546631 48.09515869 22.30858887 48.09266113 20.97241211 48.09008789 C19.31089111 48.08098389 17.64937012 48.07187988 15.9375 48.0625 C10.678125 48.041875 5.41875 48.02125 0 48 C0 32.16 0 16.32 0 0 Z " fill="#020202" transform="translate(832,105)"/>
<path d="M0 0 C2.97 0 5.94 0 9 0 C9.01458252 0.9379541 9.02916504 1.8759082 9.04418945 2.84228516 C9.10546717 6.34269379 9.17965932 9.84234449 9.26245117 13.34228516 C9.29557926 14.85324904 9.32364855 16.36433307 9.34643555 17.87548828 C9.38020681 20.05553082 9.43252896 22.23448439 9.48828125 24.4140625 C9.51446533 25.7232666 9.54064941 27.0324707 9.56762695 28.38134766 C10.03064226 32.25645377 10.94049664 34.7022434 13 38 C16.17947021 40.11964681 16.82677473 40.29226781 20.4375 40 C21.19933594 39.95875 21.96117188 39.9175 22.74609375 39.875 C26.26016758 38.51078416 27.20484325 36.24842288 29 33 C29.40201567 30.26751604 29.60452681 27.9214675 29.609375 25.1953125 C29.62591125 24.4713327 29.64244751 23.74735291 29.65948486 23.00143433 C29.70772545 20.70920123 29.72928056 18.41763024 29.75 16.125 C29.77818001 14.56246712 29.80811027 12.99996476 29.83984375 11.4375 C29.91347678 7.6250546 29.96319648 3.81297157 30 0 C32.97 0 35.94 0 39 0 C39.07468636 4.55318701 39.12885256 9.10600998 39.16479492 13.65966797 C39.1797933 15.20562968 39.20019887 16.75154948 39.22631836 18.29736328 C39.5293903 36.70749828 39.5293903 36.70749828 33.6875 43.8125 C28.06420694 48.389599 23.7764551 49.50827706 16.6171875 49.28515625 C10.61653856 48.6313542 6.75032912 45.56121109 3 41 C-1.13711418 33.11177033 -0.3338405 24.66078071 -0.1875 16 C-0.17242973 14.44662752 -0.15874546 12.89324094 -0.14648438 11.33984375 C-0.11365497 7.55954385 -0.06200254 3.77992937 0 0 Z " fill="#040404" transform="translate(39,105)"/>
<path d="M0 0 C2.97 0 5.94 0 9 0 C9.01458252 0.9379541 9.02916504 1.8759082 9.04418945 2.84228516 C9.10546717 6.34269379 9.17965932 9.84234449 9.26245117 13.34228516 C9.29557926 14.85324904 9.32364855 16.36433307 9.34643555 17.87548828 C9.38020681 20.05553082 9.43252896 22.23448439 9.48828125 24.4140625 C9.51446533 25.7232666 9.54064941 27.0324707 9.56762695 28.38134766 C10.14104545 33.18044925 11.57473905 36.57473905 15 40 C18.00922309 40.34532068 20.09325299 40.56241657 23 40 C25.69105198 37.82425584 27.45532928 36.08934144 29 33 C29.15626576 30.52167341 29.25813198 28.06688669 29.31640625 25.5859375 C29.33718735 24.85629791 29.35796844 24.12665833 29.37937927 23.37490845 C29.44481917 21.04170237 29.50373368 18.70838279 29.5625 16.375 C29.60569053 14.79425905 29.64930499 13.21352961 29.69335938 11.6328125 C29.80049481 7.75532496 29.90177782 3.87772315 30 0 C32.97 0 35.94 0 39 0 C39.1245635 4.81964928 39.21478627 9.63834075 39.2746582 14.45922852 C39.29964257 16.09546248 39.33364267 17.73158666 39.37719727 19.36743164 C39.84880626 37.54934558 39.84880626 37.54934558 34 44 C27.9832226 48.77329878 21.43321272 49.64253195 14 49 C7.80071797 47.42391135 5.44396208 44.43684917 2.1640625 39.25390625 C-0.17756877 34.71994235 -0.13462529 30.41307672 -0.09765625 25.390625 C-0.0962413 24.66381531 -0.09482635 23.93700562 -0.09336853 23.18817139 C-0.08778792 20.87540506 -0.07523904 18.56273688 -0.0625 16.25 C-0.05748249 14.67838682 -0.05292002 13.10677211 -0.04882812 11.53515625 C-0.03782485 7.69006657 -0.02057361 3.8450499 0 0 Z " fill="#050505" transform="translate(734,105)"/>
<path d="M0 0 C2.97 0 5.94 0 9 0 C9.01458252 0.9379541 9.02916504 1.8759082 9.04418945 2.84228516 C9.10546717 6.34269379 9.17965932 9.84234449 9.26245117 13.34228516 C9.29557926 14.85324904 9.32364855 16.36433307 9.34643555 17.87548828 C9.38020681 20.05553082 9.43252896 22.23448439 9.48828125 24.4140625 C9.51446533 25.7232666 9.54064941 27.0324707 9.56762695 28.38134766 C10.03064226 32.25645377 10.94049664 34.7022434 13 38 C16.17947021 40.11964681 16.82677473 40.29226781 20.4375 40 C21.19933594 39.95875 21.96117187 39.9175 22.74609375 39.875 C26.26016758 38.51078416 27.20484325 36.24842288 29 33 C29.40201567 30.26751604 29.60452681 27.9214675 29.609375 25.1953125 C29.62591125 24.4713327 29.64244751 23.74735291 29.65948486 23.00143433 C29.70772545 20.70920123 29.72928056 18.41763024 29.75 16.125 C29.77818001 14.56246712 29.80811027 12.99996476 29.83984375 11.4375 C29.91347678 7.6250546 29.96319648 3.81297157 30 0 C32.97 0 35.94 0 39 0 C39.09972601 4.53484864 39.17186655 9.0690432 39.21972656 13.60473633 C39.23970121 15.14391211 39.26689097 16.68301338 39.30175781 18.22192383 C39.70842029 36.64732227 39.70842029 36.64732227 33.62255859 43.56591797 C28.78729175 47.99443592 23.56241599 49.46522177 17.08203125 49.2421875 C12.62149629 48.72332602 8.69455944 47.69884947 5.45703125 44.453125 C0.96891234 38.50406416 -0.30570415 32.58358303 -0.1953125 25.1953125 C-0.1924826 24.4713327 -0.18965271 23.74735291 -0.18673706 23.00143433 C-0.17562087 20.7091151 -0.15053312 18.41719937 -0.125 16.125 C-0.1149591 14.56250568 -0.10583519 13.00000518 -0.09765625 11.4375 C-0.07570973 7.62484662 -0.04124013 3.81249152 0 0 Z " fill="#040404" transform="translate(461,105)"/>
<path d="M0 0 C0.804375 0.391875 1.60875 0.78375 2.4375 1.1875 C2.953125 1.455625 3.46875 1.72375 4 2 C3.38722388 4.96175123 2.74627478 6.38058783 1 9 C-1.63041853 8.54907111 -3.80207314 8.10179096 -6.1875 6.875 C-10.50494103 5.53179613 -14.58018885 6.36492034 -19 7 C-19.33 9.31 -19.66 11.62 -20 14 C-16.30196331 16.51276852 -13.55135786 17.38136125 -9.125 17.8125 C-3.27472287 18.65649806 0.19932408 20.47362867 4 25 C5.89992811 28.79985622 5.73842529 32.88162807 5 37 C2.07278432 41.99688085 -1.42152441 45.30756116 -7 47 C-14.67321208 47.85478787 -22.58587098 47.7912771 -29 43 C-30.1875 40.4375 -30.1875 40.4375 -30 38 C-29.34 37.01 -28.68 36.02 -28 35 C-25.25816913 35.48385251 -22.79904561 36.0759161 -20.1875 37.0625 C-15.17494113 38.53678202 -10.02737567 38.67579189 -5 37 C-5 34.69 -5 32.38 -5 30 C-9.5426268 28.20009127 -13.93092547 26.75291402 -18.6875 25.625 C-23.56428341 24.34661988 -25.93621148 22.98292508 -29 19 C-30.94645517 15.10708966 -30.36455518 10.42507932 -29.3125 6.3125 C-27.05120794 2.32831875 -24.43802674 -0.29770787 -20.3125 -2.3125 C-12.80295939 -3.8710839 -6.80878997 -3.54057078 0 0 Z " fill="#0B0B0B" transform="translate(681,107)"/>
<path d="M0 0 C2.64680565 1.2086965 5.22175468 2.47461995 7.76953125 3.87890625 C7.15675513 6.84065748 6.51580603 8.25949408 4.76953125 10.87890625 C2.14095643 10.42829342 -0.11087267 9.9338558 -2.54296875 8.81640625 C-7.12053311 7.21958147 -11.60932611 7.33852537 -16.23046875 8.87890625 C-16.64772553 12.25291203 -16.64772553 12.25291203 -16.23046875 15.87890625 C-13.23197822 18.87739678 -9.82939432 19.1674986 -5.79296875 19.81640625 C-0.06892267 20.74858603 3.40008682 22.66742478 7.64453125 26.62890625 C9.71454769 30.76893914 9.35985817 34.70650317 8.18359375 39.03515625 C6.53862011 43.0796786 4.67142462 45.36776702 0.76953125 47.37890625 C-6.57464537 50.08465553 -14.17972743 50.09088757 -21.35546875 46.94140625 C-22.65844913 46.2755976 -23.95285967 45.59219025 -25.23046875 44.87890625 C-25.89046875 44.54890625 -26.55046875 44.21890625 -27.23046875 43.87890625 C-26.61769263 40.91715502 -25.97674353 39.49831842 -24.23046875 36.87890625 C-21.61679461 37.32696467 -19.38761532 37.80469815 -16.98046875 38.94140625 C-11.84066854 40.69361087 -6.41851088 40.34943973 -1.23046875 38.87890625 C-1.23046875 36.56890625 -1.23046875 34.25890625 -1.23046875 31.87890625 C-6.71981359 29.70388282 -12.19397924 28.00813612 -17.91015625 26.52734375 C-20.23046875 25.87890625 -20.23046875 25.87890625 -22.23046875 24.87890625 C-22.23046875 24.21890625 -22.23046875 23.55890625 -22.23046875 22.87890625 C-22.89046875 22.87890625 -23.55046875 22.87890625 -24.23046875 22.87890625 C-26.7366812 19.11958757 -26.63963505 15.23173927 -26.23046875 10.87890625 C-24.9469762 5.8616172 -21.80893882 2.46480397 -17.4140625 -0.23828125 C-11.90565836 -2.46529258 -5.51105209 -1.91254166 0 0 Z " fill="#0B0B0B" transform="translate(1006.23046875,105.12109375)"/>
<path d="M0 0 C2.85401001 2.45099419 3.95532527 4.89578229 5.3125 8.375 C8.67687521 16.73102983 12.49028151 24.8566261 16.3828125 32.9765625 C16.7943457 33.83757568 17.20587891 34.69858887 17.62988281 35.58569336 C18.45113359 37.30178543 19.27592855 39.01618651 20.10449219 40.72875977 C20.47993164 41.51307373 20.85537109 42.2973877 21.2421875 43.10546875 C21.5810498 43.80824951 21.91991211 44.51103027 22.26904297 45.23510742 C23 47 23 47 23 49 C21.02 49 19.04 49 17 49 C15.35 45.37 13.7 41.74 12 38 C4.08 37.67 -3.84 37.34 -12 37 C-12.495 39.475 -12.495 39.475 -13 42 C-13.89305874 44.39228689 -14.94896026 46.66943362 -16 49 C-17.98 49 -19.96 49 -22 49 C-21.38956206 46.20061794 -20.53508867 43.8983732 -19.1875 41.375 C-17.64776166 38.38382374 -16.33157354 35.39012026 -15.125 32.25 C-13.20434066 27.31980359 -10.85495554 22.6733009 -8.44921875 17.96484375 C-6.71864021 14.42438793 -5.29332467 10.81183942 -3.87890625 7.13671875 C-2.83044063 4.58778232 -1.52782458 2.29173687 0 0 Z " fill="#191919" transform="translate(1010,195)"/>
<path d="M0 0 C2.85401001 2.45099419 3.95532527 4.89578229 5.3125 8.375 C8.67687521 16.73102983 12.49028151 24.8566261 16.3828125 32.9765625 C16.7943457 33.83757568 17.20587891 34.69858887 17.62988281 35.58569336 C18.45113359 37.30178543 19.27592855 39.01618651 20.10449219 40.72875977 C20.47993164 41.51307373 20.85537109 42.2973877 21.2421875 43.10546875 C21.5810498 43.80824951 21.91991211 44.51103027 22.26904297 45.23510742 C23 47 23 47 23 49 C21.02 49 19.04 49 17 49 C15.35 45.37 13.7 41.74 12 38 C4.08 37.67 -3.84 37.34 -12 37 C-12.495 39.475 -12.495 39.475 -13 42 C-13.89305874 44.39228689 -14.94896026 46.66943362 -16 49 C-17.98 49 -19.96 49 -22 49 C-21.38956206 46.20061794 -20.53508867 43.8983732 -19.1875 41.375 C-17.64776166 38.38382374 -16.33157354 35.39012026 -15.125 32.25 C-13.20434066 27.31980359 -10.85495554 22.6733009 -8.44921875 17.96484375 C-6.71864021 14.42438793 -5.29332467 10.81183942 -3.87890625 7.13671875 C-2.83044063 4.58778232 -1.52782458 2.29173687 0 0 Z " fill="#191919" transform="translate(666,195)"/>
<path d="M0 0 C12.87 0 25.74 0 39 0 C39 2.97 39 5.94 39 9 C34.05 9 29.1 9 24 9 C24 21.87 24 34.74 24 48 C21.03 48 18.06 48 15 48 C15 35.13 15 22.26 15 9 C10.05 9 5.1 9 0 9 C0 6.03 0 3.06 0 0 Z " fill="#040404" transform="translate(1156,105)"/>
<path d="M0 0 C12.87 0 25.74 0 39 0 C39 2.97 39 5.94 39 9 C34.05 9 29.1 9 24 9 C24 21.87 24 34.74 24 48 C21.03 48 18.06 48 15 48 C15 35.13 15 22.26 15 9 C10.05 9 5.1 9 0 9 C0 6.03 0 3.06 0 0 Z " fill="#030303" transform="translate(920,105)"/>
<path d="M0 0 C12.87 0 25.74 0 39 0 C39 2.97 39 5.94 39 9 C34.05 9 29.1 9 24 9 C24 21.87 24 34.74 24 48 C21.03 48 18.06 48 15 48 C15 35.13 15 22.26 15 9 C10.05 9 5.1 9 0 9 C0 6.03 0 3.06 0 0 Z " fill="#040404" transform="translate(690,105)"/>
<path d="M0 0 C12.87 0 25.74 0 39 0 C39 2.97 39 5.94 39 9 C34.05 9 29.1 9 24 9 C24 21.87 24 34.74 24 48 C21.03 48 18.06 48 15 48 C15 35.13 15 22.26 15 9 C10.05 9 5.1 9 0 9 C0 6.03 0 3.06 0 0 Z " fill="#040404" transform="translate(549,105)"/>
<path d="M0 0 C0.99 0.66 1.98 1.32 3 2 C2.67 3.32 2.34 4.64 2 6 C-2 6 -2 6 -4.5625 4 C-9.38633904 1.19340274 -13.5385009 1.19420505 -19 2 C-24.40349766 4.65262612 -27.8098052 8.3220617 -30.25 13.8125 C-31.84516287 20.59194221 -31.60100946 26.93580005 -28 33 C-24.94684432 36.25811289 -21.48821962 39.71787844 -16.8984375 40.23828125 C-11.7020899 40.391115 -7.12242127 40.16231591 -2.49609375 37.62109375 C0.68796222 34.17100699 0 29.44334575 0 25 C-4.62 25 -9.24 25 -14 25 C-14 23.35 -14 21.7 -14 20 C-7.73 20 -1.46 20 5 20 C5.83175872 36.39752907 5.83175872 36.39752907 3.72265625 40.4609375 C-1.60103231 45.21724882 -9.04147759 46.50619228 -16 46.234375 C-23.39488242 45.36778722 -27.60197229 42.17129991 -32.30078125 36.45703125 C-36.78020279 29.97989068 -38.07678679 22.76999556 -37 15 C-35.16042345 8.30963529 -31.53943077 3.16303453 -26 -1 C-16.97293947 -6.08337477 -8.89506797 -4.32903841 0 0 Z " fill="#0E0E0E" transform="translate(890,199)"/>
<path d="M0 0 C14.78378378 0 14.78378378 0 19 4 C23.73074352 8.97604133 23.76155704 12.87490397 23.59375 19.53125 C22.69863566 24.76060221 20.2097643 27.87197385 16 31 C13 32 13 32 0 32 C0 21.44 0 10.88 0 0 Z " fill="#F9F9F9" transform="translate(147,113)"/>
<path d="M0 0 C15.24355301 0 15.24355301 0 20 4 C23.76771382 8.96812497 23.61111336 13.55614261 23.484375 19.6015625 C22.89018678 23.7704637 21.72892925 25.82991073 18.80078125 28.765625 C12.33986548 33.19436553 8.40638834 32 0 32 C0 21.44 0 10.88 0 0 Z " fill="#F9F9F9" transform="translate(791,113)"/>
<path d="M0 0 C14.27027027 0 14.27027027 0 20.875 5.3125 C24.11390197 9.51146737 23.737097 14.55607773 23.5546875 19.63671875 C22.87767884 23.74167968 21.69962078 25.85929493 18.80078125 28.765625 C12.33986548 33.19436553 8.40638834 32 0 32 C0 21.44 0 10.88 0 0 Z " fill="#F9F9F9" transform="translate(422,113)"/>
<path d="M0 0 C0.66 0 1.32 0 2 0 C3.24584961 1.35424805 3.24584961 1.35424805 4.65234375 3.26171875 C5.17642822 3.96256592 5.7005127 4.66341309 6.24047852 5.38549805 C6.80049561 6.14515869 7.3605127 6.90481934 7.9375 7.6875 C12.95995583 14.3941747 18.15583031 20.85247899 23.66015625 27.16796875 C25.99722214 29.99663781 28.00231305 32.92560872 30 36 C30.495 36.495 30.495 36.495 31 37 C31.33 25.12 31.66 13.24 32 1 C33.65 1 35.3 1 37 1 C37 17.17 37 33.34 37 50 C36.34 50 35.68 50 35 50 C33.27215019 47.99484097 31.65966638 45.98103487 30.0625 43.875 C29.06919024 42.58710087 28.07569536 41.2993445 27.08203125 40.01171875 C26.57236816 39.3470459 26.06270508 38.68237305 25.53759766 37.99755859 C23.13355971 34.87437052 20.69081237 31.7819711 18.25 28.6875 C14.14628741 23.47397834 10.07351861 18.23738107 6 13 C5.67 24.88 5.34 36.76 5 49 C3.35 49 1.7 49 0 49 C0 32.83 0 16.66 0 0 Z " fill="#060606" transform="translate(925,195)"/>
<path d="M0 0 C10.23 0 20.46 0 31 0 C31 1.65 31 3.3 31 5 C22.42 5 13.84 5 5 5 C5 10.28 5 15.56 5 21 C13.25 21 21.5 21 30 21 C30 22.65 30 24.3 30 26 C21.75 26 13.5 26 5 26 C5 31.61 5 37.22 5 43 C13.58 43 22.16 43 31 43 C31 44.65 31 46.3 31 48 C20.77 48 10.54 48 0 48 C0 32.16 0 16.32 0 0 Z " fill="#080808" transform="translate(1096,196)"/>
<path d="M0 0 C1.65 0 3.3 0 5 0 C5 7.26 5 14.52 5 22 C13.58 22 22.16 22 31 22 C31 14.74 31 7.48 31 0 C32.65 0 34.3 0 36 0 C36 15.84 36 31.68 36 48 C34.35 48 32.7 48 31 48 C31 41.07 31 34.14 31 27 C22.42 27 13.84 27 5 27 C5 33.93 5 40.86 5 48 C3.35 48 1.7 48 0 48 C0 32.16 0 16.32 0 0 Z " fill="#050505" transform="translate(1186,196)"/>
<path d="M0 0 C2.9375 2.0625 2.9375 2.0625 5 4 C5 4.66 5 5.32 5 6 C4.34 6 3.68 6 3 6 C3 6.66 3 7.32 3 8 C0.26844845 6.95558323 -2.17757092 5.89263153 -4.6875 4.375 C-9.21316199 2.49642333 -13.16436502 2.29119357 -18 3 C-23.39031623 5.69515812 -26.80594256 9.31337075 -29.25 14.8125 C-30.89235542 21.79251054 -30.39643467 26.67560441 -27 33 C-24.52305853 36.59156513 -22.11234665 39.35355774 -18 41 C-11.83342223 41.90191444 -7.09195207 41.12443021 -1.7890625 37.875 C0 37 0 37 4 37 C4 38.32 4 39.64 4 41 C-1.56166032 45.61210855 -7.74697587 47.52211732 -14.96875 47.23046875 C-22.85232824 46.33598583 -27.08357451 42.63242257 -32.14453125 36.61328125 C-34.6617519 33.0679747 -35.69779704 30.30435023 -36 26 C-36.07863281 25.20722656 -36.15726563 24.41445312 -36.23828125 23.59765625 C-36.62923048 16.34834061 -34.87860735 10.75312098 -30.45703125 4.98828125 C-22.30249308 -3.91266773 -10.60896449 -5.82452953 0 0 Z " fill="#121212" transform="translate(1171,198)"/>
<path d="M0 0 C1.98 0 3.96 0 6 0 C11.40934338 11.9674104 16.7677451 23.95403695 22 36 C24.11563858 33.88436142 24.81164236 32.40209412 25.953125 29.66796875 C26.32252197 28.79229248 26.69191895 27.91661621 27.07250977 27.0144043 C27.46108154 26.08152588 27.84965332 25.14864746 28.25 24.1875 C31.68418684 16.04841466 35.22168088 7.98632943 39 0 C40.98 0 42.96 0 45 0 C43.74605722 4.17980927 42.11578492 7.92900933 40.09765625 11.77734375 C38.91123611 14.17973899 37.87485642 16.63340265 36.82380676 19.09721375 C35.55599531 22.02553907 34.20973339 24.91572134 32.86328125 27.80859375 C32.57897751 28.42017838 32.29467377 29.031763 32.00175476 29.66188049 C31.10631372 31.58754342 30.20943411 33.51253213 29.3125 35.4375 C28.69977391 36.75451269 28.08714285 38.07156959 27.47460938 39.38867188 C25.9841696 42.59295909 24.49244019 45.79664393 23 49 C17.32991688 43.54990637 14.82719689 35.71534681 12.03125 28.5 C10.9698883 25.92700193 9.76921734 23.47652164 8.5 21 C5.04473004 14.23830247 2.28648608 7.24053925 0 0 Z " fill="#121212" transform="translate(742,196)"/>
<path d="M0 0 C12.87 0 25.74 0 39 0 C39 1.65 39 3.3 39 5 C33.39 5 27.78 5 22 5 C22 19.19 22 33.38 22 48 C20.35 48 18.7 48 17 48 C17 33.81 17 19.62 17 5 C11.39 5 5.78 5 0 5 C0 3.35 0 1.7 0 0 Z " fill="#030303" transform="translate(685,196)"/>
<path d="M0 0 C12.87 0 25.74 0 39 0 C39 1.65 39 3.3 39 5 C33.39 5 27.78 5 22 5 C22 19.19 22 33.38 22 48 C20.35 48 18.7 48 17 48 C17 33.81 17 19.62 17 5 C11.39 5 5.78 5 0 5 C0 3.35 0 1.7 0 0 Z " fill="#020202" transform="translate(1050,196)"/>
<path d="M0 0 C2.701875 -0.103125 5.40375 -0.20625 8.1875 -0.3125 C9.02949951 -0.35802002 9.87149902 -0.40354004 10.73901367 -0.45043945 C14.91797555 -0.52743209 16.56061299 -0.33025078 20.01953125 2.26953125 C22.45711316 5.63022111 22.6294543 7.0941451 22.359375 11.0703125 C21.69919869 14.61517226 20.34951273 17.06572196 17.375 19.125 C14.01561718 20.36266735 10.77432161 20.21094051 7.25 20.125 C4.8575 20.08375 2.465 20.0425 0 20 C0 13.4 0 6.8 0 0 Z " fill="#FBFBFB" transform="translate(819,201)"/>
<path d="M0 0 C1.65 0 3.3 0 5 0 C5 16.17 5 32.34 5 49 C3 49 3 49 0.88574219 47.13208008 C-1.80561395 42.66193405 -1.40375738 38.99480408 -1.171875 33.88671875 C-1.14401917 32.91716751 -1.11616333 31.94761627 -1.08746338 30.94868469 C-0.99430558 27.86064668 -0.87254758 24.77449764 -0.75 21.6875 C-0.68170405 19.59055549 -0.6152761 17.49354924 -0.55078125 15.39648438 C-0.38883214 10.26335566 -0.20123201 5.13173278 0 0 Z " fill="#030303" transform="translate(957,196)"/>
<path d="M0 0 C1.65 0 3.3 0 5 0 C5 15.84 5 31.68 5 48 C3.35 48 1.7 48 0 48 C0 32.16 0 16.32 0 0 Z " fill="#020202" transform="translate(906,196)"/>
<path d="M0 0 C1.65 0 3.3 0 5 0 C5 15.84 5 31.68 5 48 C3.35 48 1.7 48 0 48 C0 32.16 0 16.32 0 0 Z " fill="#010101" transform="translate(976,196)"/>
<path d="M0 0 C1.65 0 3.3 0 5 0 C5 15.84 5 31.68 5 48 C3.35 48 1.7 48 0 48 C0 32.16 0 16.32 0 0 Z " fill="#010101" transform="translate(795,196)"/>
<path d="M0 0 C2.586323 1.2931615 2.68160898 2.26377561 3.69140625 4.9296875 C3.99626953 5.72503906 4.30113281 6.52039063 4.61523438 7.33984375 C4.92783203 8.17644531 5.24042969 9.01304687 5.5625 9.875 C5.87896484 10.70386719 6.19542969 11.53273437 6.52148438 12.38671875 C7.73522668 15.57697984 8.92048158 18.76144475 10 22 C3.73 22 -2.54 22 -9 22 C-7.22685787 16.68057361 -5.52959623 11.62873212 -3.375 6.5 C-2.73691406 4.96859375 -2.73691406 4.96859375 -2.0859375 3.40625 C-1 1 -1 1 0 0 Z " fill="#F1F1F1" transform="translate(1010,205)"/>
<path d="M0 0 C2.586323 1.2931615 2.68160898 2.26377561 3.69140625 4.9296875 C3.99626953 5.72503906 4.30113281 6.52039063 4.61523438 7.33984375 C4.92783203 8.17644531 5.24042969 9.01304687 5.5625 9.875 C5.87896484 10.70386719 6.19542969 11.53273437 6.52148438 12.38671875 C7.73522668 15.57697984 8.92048158 18.76144475 10 22 C3.73 22 -2.54 22 -9 22 C-7.22685787 16.68057361 -5.52959623 11.62873212 -3.375 6.5 C-2.73691406 4.96859375 -2.73691406 4.96859375 -2.0859375 3.40625 C-1 1 -1 1 0 0 Z " fill="#F1F1F1" transform="translate(666,205)"/>
<path d="M0 0 C2.9375 2.0625 2.9375 2.0625 5 4 C5 4.66 5 5.32 5 6 C4.34 6 3.68 6 3 6 C3 6.66 3 7.32 3 8 C0.26844845 6.95558323 -2.17757092 5.89263153 -4.6875 4.375 C-9.21316199 2.49642333 -13.16436502 2.29119357 -18 3 C-23.73924136 5.86962068 -27.40754031 10.1669657 -30 16 C-30.66 15.34 -31.32 14.68 -32 14 C-32.99 14.33 -33.98 14.66 -35 15 C-33.44573859 8.09217151 -28.94996964 3.1267223 -23.3125 -0.9375 C-15.63187028 -4.46643798 -7.32324755 -4.0206065 0 0 Z " fill="#0E0E0E" transform="translate(1171,198)"/>
<path d="M0 0 C0.99 0 1.98 0 3 0 C3.30292969 0.75023437 3.60585938 1.50046875 3.91796875 2.2734375 C6.40100829 8.33969409 9.03057391 14.236599 12.08203125 20.0390625 C13 22 13 22 13 24 C11.02 24 9.04 24 7 24 C6.16209211 22.21046815 5.32980604 20.41830305 4.5 18.625 C4.0359375 17.62726563 3.571875 16.62953125 3.09375 15.6015625 C2 13 2 13 2 11 C-5.26 11 -12.52 11 -20 11 C-20.33 10.34 -20.66 9.68 -21 9 C-17.89914429 6.93276286 -17.27068319 6.75502577 -13.76953125 6.8046875 C-12.96708984 6.81113281 -12.16464844 6.81757813 -11.33789062 6.82421875 C-10.50451172 6.84097656 -9.67113281 6.85773438 -8.8125 6.875 C-7.5450293 6.88853516 -7.5450293 6.88853516 -6.25195312 6.90234375 C-4.16784757 6.92589297 -2.08388783 6.96176353 0 7 C-0.33 6.01 -0.66 5.02 -1 4 C-0.5625 1.8125 -0.5625 1.8125 0 0 Z " fill="#070707" transform="translate(1020,220)"/>
<path d="M0 0 C0.99 0 1.98 0 3 0 C3.30292969 0.75023437 3.60585938 1.50046875 3.91796875 2.2734375 C6.40100829 8.33969409 9.03057391 14.236599 12.08203125 20.0390625 C13 22 13 22 13 24 C11.02 24 9.04 24 7 24 C6.16209211 22.21046815 5.32980604 20.41830305 4.5 18.625 C4.0359375 17.62726563 3.571875 16.62953125 3.09375 15.6015625 C2 13 2 13 2 11 C-5.26 11 -12.52 11 -20 11 C-20.33 10.34 -20.66 9.68 -21 9 C-17.89914429 6.93276286 -17.27068319 6.75502577 -13.76953125 6.8046875 C-12.96708984 6.81113281 -12.16464844 6.81757813 -11.33789062 6.82421875 C-10.50451172 6.84097656 -9.67113281 6.85773438 -8.8125 6.875 C-7.5450293 6.88853516 -7.5450293 6.88853516 -6.25195312 6.90234375 C-4.16784757 6.92589297 -2.08388783 6.96176353 0 7 C-0.33 6.01 -0.66 5.02 -1 4 C-0.5625 1.8125 -0.5625 1.8125 0 0 Z " fill="#070707" transform="translate(676,220)"/>
<path d="M0 0 C12.45887682 -0.37006565 12.45887682 -0.37006565 14.890625 1.29296875 C16.78114496 4.20197306 16.41824564 6.65403487 16 10 C13.67828434 12.42145523 12.34503863 12.96647941 8.984375 13.29296875 C7.91703125 13.25816406 6.8496875 13.22335938 5.75 13.1875 C2.90375 13.0946875 2.90375 13.0946875 0 13 C0 8.71 0 4.42 0 0 Z " fill="#F3F3F3" transform="translate(238,113)"/>
<path d="M0 0 C0.99 0.66 1.98 1.32 3 2 C2.67 3.32 2.34 4.64 2 6 C-2 6 -2 6 -4.5625 4 C-9.37776282 1.19839254 -13.54650832 1.17913165 -19 2 C-22.4416147 3.65389142 -22.4416147 3.65389142 -25 6 C-28.75 9 -28.75 9 -32 9 C-32.99 9.66 -33.98 10.32 -35 11 C-33.55939891 5.71779601 -30.18534363 2.33018501 -26 -1 C-17.00651532 -6.11605416 -8.86609453 -4.31493766 0 0 Z " fill="#141414" transform="translate(890,199)"/>
<path d="M0 0 C9.97814208 -0.36065574 9.97814208 -0.36065574 14.1875 1.125 C16 3 16 3 16.4375 6 C16 9 16 9 14 12 C9.36297289 13.5456757 4.87528349 13.05735628 0 13 C0 8.71 0 4.42 0 0 Z " fill="#F6F6F6" transform="translate(330,113)"/>
<path d="M0 0 C24.09 0 48.18 0 73 0 C73 0.66 73 1.32 73 2 C71.27281484 2.96189997 69.54315942 3.91936508 67.8125 4.875 C66.84957031 5.40867188 65.88664062 5.94234375 64.89453125 6.4921875 C62.30260482 7.8423678 59.73238902 8.97098329 57 10 C57.66 8.35 58.32 6.7 59 5 C60.32 5 61.64 5 63 5 C63 4.34 63 3.68 63 3 C61.205625 3.03480469 61.205625 3.03480469 59.375 3.0703125 C39.54901487 3.31566937 19.78745915 2.09857285 0 1 C0 0.67 0 0.34 0 0 Z " fill="#E5915B" transform="translate(1424,176)"/>
<path d="M0 0 C1.98 0 3.96 0 6 0 C4.72082155 4.26392818 3.02283717 8.06625477 1 12.0078125 C-0.14793411 14.29471248 -1.15274872 16.63226082 -2.140625 18.9921875 C-4.01184257 23.36403219 -6.02167119 27.67582675 -8 32 C-8.66 31.34 -9.32 30.68 -10 30 C-10.99 30.33 -11.98 30.66 -13 31 C-10.78157548 23.87303484 -7.95177996 17.20419332 -4.8125 10.4375 C-4.34908203 9.42880859 -3.88566406 8.42011719 -3.40820312 7.38085938 C-2.27627662 4.9186275 -1.1401475 2.45843306 0 0 Z " fill="#181818" transform="translate(781,196)"/>
<path d="M0 0 C0.71612457 -0.00189835 1.43224915 -0.00379669 2.17007446 -0.00575256 C4.54798211 -0.00946737 6.92558598 0.00127324 9.3034668 0.01245117 C10.97283391 0.01364517 12.6422017 0.01409567 14.31156921 0.01383972 C17.8264075 0.01540702 21.34114432 0.02370061 24.85595703 0.03710938 C29.29471701 0.05385298 33.7333639 0.05784787 38.17215157 0.0572834 C56.11609931 0.05789976 74.02340894 0.13056164 91.94018555 1.24291992 C91.94018555 1.57291992 91.94018555 1.90291992 91.94018555 2.24291992 C59.60018555 2.24291992 27.26018555 2.24291992 -6.05981445 2.24291992 C-7.70981445 5.21291992 -9.35981445 8.18291992 -11.05981445 11.24291992 C-12.3309715 7.42944878 -11.60886536 5.88318956 -10.05981445 2.24291992 C-6.33673309 -0.23913432 -4.44745167 -0.00489444 0 0 Z " fill="#FEEDD7" transform="translate(1366.059814453125,173.757080078125)"/>
<path d="M0 0 C3.48969584 1.16323195 4.10134847 2.10835682 6.25 5 C6.86101563 5.81210938 7.47203125 6.62421875 8.1015625 7.4609375 C8.72804688 8.29882812 9.35453125 9.13671875 10 10 C11.20541135 11.54395241 12.41365791 13.0856963 13.625 14.625 C14.19476562 15.36363281 14.76453125 16.10226563 15.3515625 16.86328125 C16.41759958 18.2450876 17.49504644 19.61819839 18.5859375 20.98046875 C20 22.8125 20 22.8125 22 26 C21.625 28.19921875 21.625 28.19921875 21 30 C16.0381528 25.16153799 11.66350262 19.91550545 7.27978516 14.56201172 C6.04902541 13.05983681 4.81175271 11.56300529 3.57421875 10.06640625 C2.84847656 9.17824219 2.12273438 8.29007813 1.375 7.375 C0.72273437 6.57835937 0.07046875 5.78171875 -0.6015625 4.9609375 C-2 3 -2 3 -2 1 C-1.34 0.67 -0.68 0.34 0 0 Z " fill="#151515" transform="translate(935,208)"/>
<path d="M0 0 C8.25 0 16.5 0 25 0 C25 1.65 25 3.3 25 5 C17.41 5 9.82 5 2 5 C2 2 2 2 3 1 C2.01 0.67 1.02 0.34 0 0 Z " fill="#111111" transform="translate(1101,217)"/>
<path d="M0 0 C0.66 0 1.32 0 2 0 C2.84026396 1.76755526 3.67198722 3.53917263 4.5 5.3125 C4.9640625 6.29863281 5.428125 7.28476563 5.90625 8.30078125 C7 11 7 11 7 14 C3.04 14 -0.92 14 -5 14 C-4.23539233 10.17696167 -3.52385218 7.61606762 -1.9375 4.1875 C-1.39416016 3.00220703 -1.39416016 3.00220703 -0.83984375 1.79296875 C-0.56269531 1.20128906 -0.28554687 0.60960938 0 0 Z " fill="#ECECEC" transform="translate(1134,121)"/>
<path d="M0 0 C0.66 0 1.32 0 2 0 C2.84026396 1.76755526 3.67198722 3.53917263 4.5 5.3125 C4.9640625 6.29863281 5.428125 7.28476563 5.90625 8.30078125 C7 11 7 11 7 14 C3.04 14 -0.92 14 -5 14 C-4.23539233 10.17696167 -3.52385218 7.61606762 -1.9375 4.1875 C-1.39416016 3.00220703 -1.39416016 3.00220703 -0.83984375 1.79296875 C-0.56269531 1.20128906 -0.28554688 0.60960938 0 0 Z " fill="#EDEDED" transform="translate(527,121)"/>
<path d="M0 0 C0.66 0 1.32 0 2 0 C2.84026396 1.76755526 3.67198722 3.53917263 4.5 5.3125 C4.9640625 6.29863281 5.428125 7.28476563 5.90625 8.30078125 C7 11 7 11 7 14 C3.04 14 -0.92 14 -5 14 C-4.23539233 10.17696167 -3.52385218 7.61606762 -1.9375 4.1875 C-1.39416016 3.00220703 -1.39416016 3.00220703 -0.83984375 1.79296875 C-0.56269531 1.20128906 -0.28554688 0.60960938 0 0 Z " fill="#ECECEC" transform="translate(382,121)"/>
<path d="M0 0 C3.07327484 2.62760357 4.56743078 5.70158111 6.3125 9.3125 C6.86550781 10.42238281 7.41851563 11.53226563 7.98828125 12.67578125 C9.184342 16.60569516 8.6652329 18.31866574 7 22 C6.34 22 5.68 22 5 22 C2.36 15.07 -0.28 8.14 -3 1 C-2.01 0.67 -1.02 0.34 0 0 Z " fill="#141414" transform="translate(1013,202)"/>
<path d="M0 0 C3.07327484 2.62760357 4.56743078 5.70158111 6.3125 9.3125 C6.86550781 10.42238281 7.41851563 11.53226563 7.98828125 12.67578125 C9.184342 16.60569516 8.6652329 18.31866574 7 22 C6.34 22 5.68 22 5 22 C2.36 15.07 -0.28 8.14 -3 1 C-2.01 0.67 -1.02 0.34 0 0 Z " fill="#141414" transform="translate(669,202)"/>
<path d="M0 0 C-0.79019531 0.44988281 -1.58039063 0.89976562 -2.39453125 1.36328125 C-9.56542199 5.4527378 -16.72563645 9.56051743 -23.875 13.6875 C-24.6585083 14.13843018 -25.4420166 14.58936035 -26.24926758 15.05395508 C-30.69997309 17.62690873 -35.07114907 20.28098722 -39.37548828 23.09301758 C-41 24 -41 24 -43 24 C-43 23.01 -43 22.02 -43 21 C-41.21046815 20.16209211 -39.41830305 19.32980604 -37.625 18.5 C-36.62726563 18.0359375 -35.62953125 17.571875 -34.6015625 17.09375 C-32 16 -32 16 -30 16 C-30 15.34 -30 14.68 -30 14 C-28.63875 13.3503125 -28.63875 13.3503125 -27.25 12.6875 C-24.549439 11.28528564 -22.39511401 9.83625408 -20 8 C-19.278125 7.649375 -18.55625 7.29875 -17.8125 6.9375 C-15.82107843 6.13297839 -15.82107843 6.13297839 -15 4 C-13.35 4 -11.7 4 -10 4 C-10 3.34 -10 2.68 -10 2 C-8.71211992 1.46987262 -7.41953322 0.9511671 -6.125 0.4375 C-5.40570312 0.14746094 -4.68640625 -0.14257812 -3.9453125 -0.44140625 C-2 -1 -2 -1 0 0 Z " fill="#DE884F" transform="translate(1433,215)"/>
<path d="M0 0 C1.98 0.99 1.98 0.99 4 2 C4.33 1.34 4.66 0.68 5 0 C6.67228535 2.454676 8.3379686 4.91339674 10 7.375 C10.71542969 8.42300781 10.71542969 8.42300781 11.4453125 9.4921875 C11.89648438 10.1625 12.34765625 10.8328125 12.8125 11.5234375 C13.23144531 12.14138184 13.65039062 12.75932617 14.08203125 13.39599609 C15 15 15 15 15 17 C12.76171875 17.33203125 12.76171875 17.33203125 10 17 C7.83203125 14.69921875 7.83203125 14.69921875 5.8125 11.6875 C5.13832031 10.70136719 4.46414063 9.71523437 3.76953125 8.69921875 C2.89361328 7.36310547 2.89361328 7.36310547 2 6 C1.34 5.01 0.68 4.02 0 3 C0 2.01 0 1.02 0 0 Z " fill="#111111" transform="translate(833,227)"/>
<path d="M0 0 C-0.01160156 0.88042969 -0.02320313 1.76085937 -0.03515625 2.66796875 C-0.04417969 3.82941406 -0.05320312 4.99085938 -0.0625 6.1875 C-0.07410156 7.33605469 -0.08570313 8.48460937 -0.09765625 9.66796875 C-0.01192832 12.59300586 0.32150977 15.16316291 1 18 C-0.65 18.33 -2.3 18.66 -4 19 C-6.16580262 13.85621879 -6.88394682 8.52229145 -6 3 C-3.98180966 0.27159605 -3.49836908 0 0 0 Z " fill="#0A0A0A" transform="translate(1141,211)"/>
<path d="M0 0 C2.06277466 -0.36076355 2.06277466 -0.36076355 4.63330078 -0.34057617 C6.07456833 -0.34023628 6.07456833 -0.34023628 7.54495239 -0.33988953 C8.58457123 -0.32440567 9.62419006 -0.30892181 10.6953125 -0.29296875 C11.75789276 -0.28872391 12.82047302 -0.28447906 13.91525269 -0.28010559 C17.31875646 -0.26327389 20.72167433 -0.22561303 24.125 -0.1875 C26.42837688 -0.17245899 28.73176302 -0.15876958 31.03515625 -0.14648438 C36.69030505 -0.11335574 42.34511068 -0.06311197 48 0 C48 0.33 48 0.66 48 1 C43.5567287 1.14530092 39.1133723 1.28755678 34.66992188 1.42724609 C33.16501369 1.47495489 31.66012958 1.52343064 30.15527344 1.57275391 C20.43179977 1.89081146 10.7298508 2.06976193 1 2 C0.5978125 3.2065625 0.5978125 3.2065625 0.1875 4.4375 C-0.4003125 5.7059375 -0.4003125 5.7059375 -1 7 C-1.99 7.33 -2.98 7.66 -4 8 C-2.87548273 5.0280615 -1.77706209 2.66559313 0 0 Z " fill="#DF9D6F" transform="translate(1360,175)"/>
<path d="M0 0 C6.80883871 0.24317281 11.13439277 2.12145233 16 7 C16 7.66 16 8.32 16 9 C15.34 9 14.68 9 14 9 C14 9.66 14 10.32 14 11 C9.22390502 9.35821735 5.20617096 6.73453298 1 4 C1.33 3.01 1.66 2.02 2 1 C1.34 0.67 0.68 0.34 0 0 Z " fill="#1C1C1C" transform="translate(1160,195)"/>
<path d="M0 0 C5.47932789 1.54545146 10.11429181 4.15543212 15 7 C15 7.33 15 7.66 15 8 C3.27975496 8.11465457 -8.31068812 7.90289857 -20 7 C-20 6.67 -20 6.34 -20 6 C-11.09 5.67 -2.18 5.34 7 5 C4.69 4.01 2.38 3.02 0 2 C0 1.34 0 0.68 0 0 Z " fill="#7A2A50" transform="translate(1484,147)"/>
<path d="M0 0 C1.078125 1.828125 1.078125 1.828125 2 4 C0.75 6.75 0.75 6.75 -1 9 C-1.66 9 -2.32 9 -3 9 C-3.10957031 9.62648437 -3.21914062 10.25296875 -3.33203125 10.8984375 C-3.49058594 11.71570313 -3.64914062 12.53296875 -3.8125 13.375 C-3.96332031 14.18710938 -4.11414062 14.99921875 -4.26953125 15.8359375 C-5 18 -5 18 -8 20 C-8.495 21.0209375 -8.495 21.0209375 -9 22.0625 C-10 24 -10 24 -13 25 C-13 24.34 -13 23.68 -13 23 C-12.34 23 -11.68 23 -11 23 C-10.67 21.80375 -10.34 20.6075 -10 19.375 C-7.71470081 12.40762441 -3.74797864 6.25850114 0 0 Z " fill="#E29159" transform="translate(1330,229)"/>
<path d="M0 0 C1.76885138 1.53813164 2.91177008 2.81765818 3.9375 4.9375 C4 7 4 7 2.1875 8.9375 C1.465625 9.618125 0.74375 10.29875 0 11 C-1.25436187 13.63222962 -1.25436187 13.63222962 -2 16 C-2.33 14.68 -2.66 13.36 -3 12 C-3.99 12.33 -4.98 12.66 -6 13 C-4.58707905 8.1725201 -2.57025846 4.2837641 0 0 Z " fill="#191919" transform="translate(1010,195)"/>
<path d="M0 0 C1.76885138 1.53813164 2.91177008 2.81765818 3.9375 4.9375 C4 7 4 7 2.1875 8.9375 C1.465625 9.618125 0.74375 10.29875 0 11 C-1.25436187 13.63222962 -1.25436187 13.63222962 -2 16 C-2.33 14.68 -2.66 13.36 -3 12 C-3.99 12.33 -4.98 12.66 -6 13 C-4.58707905 8.1725201 -2.57025846 4.2837641 0 0 Z " fill="#191919" transform="translate(666,195)"/>
<path d="M0 0 C-21.23404255 14 -21.23404255 14 -28 14 C-27.34 13.34 -26.68 12.68 -26 12 C-25.01 12 -24.02 12 -23 12 C-22.67 11.01 -22.34 10.02 -22 9 C-20.02 8.67 -18.04 8.34 -16 8 C-16 7.34 -16 6.68 -16 6 C-14.68 6 -13.36 6 -12 6 C-12 5.34 -12 4.68 -12 4 C-10.02 3.34 -8.04 2.68 -6 2 C-6 1.34 -6 0.68 -6 0 C-3 -1 -3 -1 0 0 Z " fill="#DE8E58" transform="translate(1467,195)"/>
<path d="M0 0 C0 1.98 0 3.96 0 6 C-2.375 6.625 -2.375 6.625 -5 7 C-7 5 -7 5 -7.125 2.375 C-7.08375 1.59125 -7.0425 0.8075 -7 0 C-4.3333581 -1.33332095 -2.83319697 -0.67102033 0 0 Z " fill="#1C1C1C" transform="translate(1240,238)"/>
<path d="M0 0 C3.45925163 1.2491742 6.14693203 2.67527795 9 5 C8.67 5.66 8.34 6.32 8 7 C7.67 7 7.34 7 7 7 C7.99 9.64 8.98 12.28 10 15 C9.01 15.495 9.01 15.495 8 16 C6.66141476 13.71125827 5.32898986 11.41930344 4 9.125 C3.6184375 8.47402344 3.236875 7.82304688 2.84375 7.15234375 C0 2.2265625 0 2.2265625 0 0 Z " fill="#77264B" transform="translate(1296,38)"/>
<path d="M0 0 C0.66 0.33 1.32 0.66 2 1 C-0.31 3.31 -2.62 5.62 -5 8 C-4.01 8 -3.02 8 -2 8 C-2.66 10.64 -3.32 13.28 -4 16 C-4.61875 15.649375 -5.2375 15.29875 -5.875 14.9375 C-6.57625 14.628125 -7.2775 14.31875 -8 14 C-8.99 14.495 -8.99 14.495 -10 15 C-8.55693119 8.58636086 -4.52173041 4.52173041 0 0 Z " fill="#202020" transform="translate(1146,198)"/>
<path d="M0 0 C1.32 0.66 2.64 1.32 4 2 C2.9024777 4.99324263 2.32317108 5.84610901 -0.625 7.25 C-1.40875 7.4975 -2.1925 7.745 -3 8 C-3 7.01 -3 6.02 -3 5 C-4.98 5.99 -4.98 5.99 -7 7 C-7.66 6.34 -8.32 5.68 -9 5 C-8.43410156 4.72285156 -7.86820313 4.44570312 -7.28515625 4.16015625 C-6.55167969 3.79792969 -5.81820313 3.43570313 -5.0625 3.0625 C-3.96615234 2.52302734 -3.96615234 2.52302734 -2.84765625 1.97265625 C-1.03750973 1.13628173 -1.03750973 1.13628173 0 0 Z " fill="#161616" transform="translate(1172,234)"/>
<path d="M0 0 C0.66 0 1.32 0 2 0 C5 5.75 5 5.75 5 8 C3.02 8 1.04 8 -1 8 C-1.99 5.69 -2.98 3.38 -4 1 C-2.68 1.33 -1.36 1.66 0 2 C0 1.34 0 0.68 0 0 Z " fill="#1E1E1E" transform="translate(1028,236)"/>
<path d="M0 0 C0.66 0 1.32 0 2 0 C5 5.75 5 5.75 5 8 C3.02 8 1.04 8 -1 8 C-1.99 5.69 -2.98 3.38 -4 1 C-2.68 1.33 -1.36 1.66 0 2 C0 1.34 0 0.68 0 0 Z " fill="#1E1E1E" transform="translate(684,236)"/>
<path d="M0 0 C0.66 0 1.32 0 2 0 C1.40546697 9.59453303 1.40546697 9.59453303 -2 13 C-4 10 -4 10 -3.75 8.125 C-1.36363636 1.36363636 -1.36363636 1.36363636 0 0 Z " fill="#0F0F0F" transform="translate(1005,207)"/>
<path d="M0 0 C0.66 0 1.32 0 2 0 C1.40546697 9.59453303 1.40546697 9.59453303 -2 13 C-4 10 -4 10 -3.75 8.125 C-1.36363636 1.36363636 -1.36363636 1.36363636 0 0 Z " fill="#0F0F0F" transform="translate(661,207)"/>
<path d="M0 0 C1.20366211 0.00966797 1.20366211 0.00966797 2.43164062 0.01953125 C3.26501953 0.03628906 4.09839844 0.05304688 4.95703125 0.0703125 C6.22450195 0.08384766 6.22450195 0.08384766 7.51757812 0.09765625 C9.60168368 0.12120547 11.68564342 0.15707603 13.76953125 0.1953125 C13.76953125 0.5253125 13.76953125 0.8553125 13.76953125 1.1953125 C12.60035156 1.16308594 11.43117188 1.13085938 10.2265625 1.09765625 C1.73731819 0.71220978 1.73731819 0.71220978 -5.47265625 4.265625 C-6.69041843 6.5642412 -7.58481423 8.67878502 -8.23046875 11.1953125 C-9.5016258 7.38184135 -8.77951966 5.83558214 -7.23046875 2.1953125 C-4.12961304 0.12807536 -3.50115194 -0.04966173 0 0 Z " fill="#FEEED8" transform="translate(1363.23046875,173.8046875)"/>
<path d="M0 0 C-2.45518735 1.50537035 -4.9138452 3.00444426 -7.375 4.5 C-8.07367187 4.92925781 -8.77234375 5.35851562 -9.4921875 5.80078125 C-14.7734375 9 -14.7734375 9 -17 9 C-17 8.34 -17 7.68 -17 7 C-14.09451118 4.95830515 -12.59857954 4 -9 4 C-9 3.01 -9 2.02 -9 1 C-3.375 -1.125 -3.375 -1.125 0 0 Z " fill="#DE8A51" transform="translate(1371,251)"/>
<path d="M0 0 C1.27617978 4.23840729 0.72365839 6.87820819 -1 11 C-4.125 12.9375 -4.125 12.9375 -7 14 C-5.23570801 9.02790438 -2.6060834 4.56561939 0 0 Z " fill="#E3925B" transform="translate(1349,194)"/>
<path d="M0 0 C0 0.66 0 1.32 0 2 C-0.66 2 -1.32 2 -2 2 C-2 2.66 -2 3.32 -2 4 C-2.99 4.33 -3.98 4.66 -5 5 C-5.33 5.66 -5.66 6.32 -6 7 C-8.64860427 7.59355614 -11.29197322 7.74209269 -14 8 C-4.57142857 0 -4.57142857 0 0 0 Z " fill="#FCE9D5" transform="translate(1418,224)"/>
<path d="M0 0 C1.98 0 3.96 0 6 0 C6.33 1.98 6.66 3.96 7 6 C5.02 6.99 5.02 6.99 3 8 C2.01 5.36 1.02 2.72 0 0 Z " fill="#101010" transform="translate(742,196)"/>
<path d="M0 0 C6.43785331 3.15844578 12.76352839 6.45997384 19 10 C18.01 10.66 17.02 11.32 16 12 C15.41992188 11.60167969 14.83984375 11.20335938 14.2421875 10.79296875 C10.7181881 8.40292955 7.34321599 6.16547914 3.5 4.3125 C1 3 1 3 0 0 Z " fill="#701640" transform="translate(1395,95)"/>
<path d="M0 0 C6.93 0 13.86 0 21 0 C16 4 16 4 14 4 C13.67 3.34 13.34 2.68 13 2 C9.95418731 1.53045739 9.95418731 1.53045739 6.4375 1.375 C5.23996094 1.30023438 4.04242187 1.22546875 2.80859375 1.1484375 C1.41833984 1.07496094 1.41833984 1.07496094 0 1 C0 0.67 0 0.34 0 0 Z " fill="#DA8853" transform="translate(1475,177)"/>
<path d="M0 0 C2.4375 0.75 2.4375 0.75 5 2 C5.8125 4.125 5.8125 4.125 6 6 C4.35 6.33 2.7 6.66 1 7 C1 6.34 1 5.68 1 5 C0.01 4.67 -0.98 4.34 -2 4 C-1.34 2.68 -0.68 1.36 0 0 Z " fill="#1B1B1B" transform="translate(839,199)"/>
<path d="M0 0 C0 1.32 0 2.64 0 4 C-2.64 4.33 -5.28 4.66 -8 5 C-8.33 4.01 -8.66 3.02 -9 2 C-7.824375 1.7834375 -7.824375 1.7834375 -6.625 1.5625 C-4.19936192 1.04272041 -2.45184765 0 0 0 Z " fill="#080808" transform="translate(1169,239)"/>
<path d="M0 0 C1.24546405 2.49092811 0.7767578 3.41080733 0 6 C0.99 6.33 1.98 6.66 3 7 C-2.75 11 -2.75 11 -5 11 C-3.77472971 6.94718288 -2.30119506 3.55639236 0 0 Z " fill="#D89769" transform="translate(1300,284)"/>
<path d="M0 0 C2.50037734 2.17424117 3.43628586 3.73045798 4 7 C1.66666667 7 -0.66666667 7 -3 7 C-1.125 1.125 -1.125 1.125 0 0 Z " fill="#212121" transform="translate(1010,195)"/>
<path d="M0 0 C2.50037734 2.17424117 3.43628586 3.73045798 4 7 C1.66666667 7 -0.66666667 7 -3 7 C-1.125 1.125 -1.125 1.125 0 0 Z " fill="#212121" transform="translate(666,195)"/>
<path d="M0 0 C3.69876091 1.37287342 6.9514476 3.06355453 10.3125 5.125 C11.19550781 5.66382812 12.07851562 6.20265625 12.98828125 6.7578125 C13.65214844 7.16773437 14.31601563 7.57765625 15 8 C12 9 12 9 9.95703125 8.22265625 C9.24933594 7.83980469 8.54164062 7.45695312 7.8125 7.0625 C7.09707031 6.68222656 6.38164063 6.30195312 5.64453125 5.91015625 C4.83048828 5.45962891 4.83048828 5.45962891 4 5 C4 4.34 4 3.68 4 3 C2.68 2.67 1.36 2.34 0 2 C0 1.34 0 0.68 0 0 Z " fill="#77244B" transform="translate(1350,69)"/>
<path d="M0 0 C0 3.69418201 -1.28179295 5.77836178 -3 9 C-1.35 8.34 0.3 7.68 2 7 C2 7.99 2 8.98 2 10 C0.02 10 -1.96 10 -4 10 C-3.38461538 3.47692308 -3.38461538 3.47692308 -1.4375 1.0625 C-0.7259375 0.5365625 -0.7259375 0.5365625 0 0 Z " fill="#FBEBD9" transform="translate(1298,286)"/>
<path d="M0 0 C3.99500618 1.3697164 6.80009492 3.25722422 10 6 C8.35333797 5.8864371 6.70763918 5.75882619 5.0625 5.625 C3.68771484 5.52058594 3.68771484 5.52058594 2.28515625 5.4140625 C1.15400391 5.20910156 1.15400391 5.20910156 0 5 C-0.33 4.34 -0.66 3.68 -1 3 C-0.67 2.01 -0.34 1.02 0 0 Z " fill="#7A1744" transform="translate(1315,49)"/>
<path d="M0 0 C0 0.66 0 1.32 0 2 C-1.609375 3.32421875 -1.609375 3.32421875 -3.75 4.6875 C-4.44609375 5.14511719 -5.1421875 5.60273438 -5.859375 6.07421875 C-8.39090725 7.16906025 -9.46100862 6.9435441 -12 6 C-10.37829621 4.99466333 -8.75252763 3.99588093 -7.125 3 C-5.76761719 2.1646875 -5.76761719 2.1646875 -4.3828125 1.3125 C-2 0 -2 0 0 0 Z " fill="#FAE0C8" transform="translate(1404,232)"/>
<path d="M0 0 C-0.66 0 -1.32 0 -2 0 C-2 0.66 -2 1.32 -2 2 C-4.97 3.32 -7.94 4.64 -11 6 C-10.375 3.625 -10.375 3.625 -9 1 C-5.37169613 -0.69835501 -3.84489875 -1.28163292 0 0 Z " fill="#DF8C56" transform="translate(1342,268)"/>
<path d="M0 0 C-0.3125 1.875 -0.3125 1.875 -1 4 C-4.4352048 6.29013653 -5.985331 6.17842973 -10 6 C-2.6 0 -2.6 0 0 0 Z " fill="#FCE9D6" transform="translate(1366,254)"/>
<path d="M0 0 C3 1 3 1 4.1875 3.0625 C4.455625 3.701875 4.72375 4.34125 5 5 C4.34 5 3.68 5 3 5 C2.67 5.99 2.34 6.98 2 8 C-2 3.25 -2 3.25 -2 1 C-1.34 0.67 -0.68 0.34 0 0 Z " fill="#1D1D1D" transform="translate(935,208)"/>
<path d="M0 0 C0.66 0 1.32 0 2 0 C0.31326082 4.49797113 -1.81673892 8.72886302 -4 13 C-4.86443295 10.5653629 -5.12994709 9.36863937 -4.2578125 6.89453125 C-3.88398437 6.20746094 -3.51015625 5.52039063 -3.125 4.8125 C-2.57199219 3.77029297 -2.57199219 3.77029297 -2.0078125 2.70703125 C-1 1 -1 1 0 0 Z " fill="#FEECD7" transform="translate(1345,198)"/>
<path d="M0 0 C3.96 1.98 7.92 3.96 12 6 C7.69620204 7.07594949 7.50337388 7.03421709 4 5 C3.01 4.67 2.02 4.34 1 4 C0.67 2.68 0.34 1.36 0 0 Z " fill="#781F4A" transform="translate(1338,62)"/>
<path d="M0 0 C3.36179923 1.37302958 4.7212881 2.61885209 6.3125 5.875 C6.65925781 6.55304688 7.00601562 7.23109375 7.36328125 7.9296875 C8.10990889 10.35737246 7.82273185 11.63265545 7 14 C6.01780373 12.23084525 5.03934641 10.45961431 4.0625 8.6875 C3.51722656 7.70136719 2.97195313 6.71523437 2.41015625 5.69921875 C1 3 1 3 0 0 Z " fill="#711A43" transform="translate(1343,123)"/>
<path d="M0 0 C1.98 0 3.96 0 6 0 C3.63202009 2.61724095 1.10399646 4.32861729 -2 6 C-2.66 6 -3.32 6 -4 6 C-4 5.34 -4 4.68 -4 4 C-3.34 4 -2.68 4 -2 4 C-2 3.34 -2 2.68 -2 2 C-1.34 2 -0.68 2 0 2 C0 1.34 0 0.68 0 0 Z " fill="#E08D57" transform="translate(1309,283)"/>
<path d="M0 0 C4 4.75 4 4.75 4 7 C1.625 7.1875 1.625 7.1875 -1 7 C-1.66 6.01 -2.32 5.02 -3 4 C-2.01 4 -1.02 4 0 4 C0 2.68 0 1.36 0 0 Z " fill="#212121" transform="translate(844,237)"/>
<path d="M0 0 C1.32 0.66 2.64 1.32 4 2 C3.67 3.65 3.34 5.3 3 7 C1.35 5.35 -0.3 3.7 -2 2 C-1.34 1.34 -0.68 0.68 0 0 Z " fill="#131313" transform="translate(953,231)"/>
<path d="M0 0 C0.66 0.33 1.32 0.66 2 1 C1 4 1 4 -0.6875 4.9375 C-1.8321875 5.4634375 -1.8321875 5.4634375 -3 6 C-5.01182457 7.31542376 -7.01399663 8.6459068 -9 10 C-7.61811547 6.78956118 -6.07578097 4.95063635 -3.375 2.75 C-2.74335938 2.22921875 -2.11171875 1.7084375 -1.4609375 1.171875 C-0.73777344 0.59179688 -0.73777344 0.59179688 0 0 Z " fill="#252525" transform="translate(283,106)"/>
<path d="M0 0 C0.66 0.33 1.32 0.66 2 1 C0.375 3.5 0.375 3.5 -2 6 C-5.25 6.3125 -5.25 6.3125 -8 6 C-5.54080489 3.3651481 -3.42227589 1.25483449 0 0 Z " fill="#FBE5CD" transform="translate(1308,287)"/>
<path d="M0 0 C1.32 0.33 2.64 0.66 4 1 C4.33 2.32 4.66 3.64 5 5 C3.68 4.67 2.36 4.34 1 4 C0.67 4.66 0.34 5.32 0 6 C-0.66 4.68 -1.32 3.36 -2 2 C-1.34 2 -0.68 2 0 2 C0 1.34 0 0.68 0 0 Z " fill="#1E1E1E" transform="translate(1139,228)"/>
<path d="M0 0 C0.88336837 2.4667645 1.1312406 3.63859372 0.22265625 6.140625 C-0.16019531 6.83671875 -0.54304688 7.5328125 -0.9375 8.25 C-1.31777344 8.95640625 -1.69804688 9.6628125 -2.08984375 10.390625 C-2.39019531 10.92171875 -2.69054688 11.4528125 -3 12 C-3.66 11.67 -4.32 11.34 -5 11 C-3.77472971 6.94718288 -2.30119506 3.55639236 0 0 Z " fill="#E19967" transform="translate(1355,183)"/>
<path d="M0 0 C2.4375 1.3125 2.4375 1.3125 3.25 3.4375 C3.311875 4.05625 3.37375 4.675 3.4375 5.3125 C0.06246331 4.1266763 -2.20972731 3.03676311 -4.5625 0.3125 C-2.5625 -0.6875 -2.5625 -0.6875 0 0 Z " fill="#F1DCE8" transform="translate(1420.5625,105.6875)"/>
<path d="M0 0 C0 0.66 0 1.32 0 2 C-0.66 2 -1.32 2 -2 2 C-2.33 2.99 -2.66 3.98 -3 5 C-4.98 5 -6.96 5 -9 5 C-6.45523312 2.20075644 -3.92372883 0 0 0 Z " fill="#FCECD7" transform="translate(1338,271)"/>
<path d="M0 0 C-3.1254959 2.64465038 -6.08788267 3.84414715 -10 5 C-10.66 4.34 -11.32 3.68 -12 3 C-10.35 3 -8.7 3 -7 3 C-7 2.34 -7 1.68 -7 1 C-4.53721199 -0.231394 -2.7204945 -0.07159196 0 0 Z " fill="#E19059" transform="translate(1352,262)"/>
<path d="M0 0 C0.66 0.33 1.32 0.66 2 1 C0.06745228 3.0245738 -1.63158688 4.42105792 -4 6 C-6.1875 5.625 -6.1875 5.625 -8 5 C-6.71475739 4.13619741 -5.42157581 3.28419631 -4.125 2.4375 C-3.04605469 1.72400391 -3.04605469 1.72400391 -1.9453125 0.99609375 C-1.30335937 0.66738281 -0.66140625 0.33867187 0 0 Z " fill="#FAE1C9" transform="translate(1378,246)"/>
<path d="M0 0 C0.66 0 1.32 0 2 0 C0.90931332 3.77545388 0.0916909 6.47043472 -3 9 C-4 6 -4 6 -3.0625 3.8125 C-2.5365625 2.9153125 -2.5365625 2.9153125 -2 2 C-1.34 2 -0.68 2 0 2 C0 1.34 0 0.68 0 0 Z " fill="#FDF1E0" transform="translate(1325,234)"/>
<path d="M0 0 C0.66 0.33 1.32 0.66 2 1 C1.34 2.32 0.68 3.64 0 5 C-1.32 4.67 -2.64 4.34 -4 4 C-4 4.66 -4 5.32 -4 6 C-5.32 5.67 -6.64 5.34 -8 5 C-6.71475739 4.13619741 -5.42157581 3.28419631 -4.125 2.4375 C-3.04605469 1.72400391 -3.04605469 1.72400391 -1.9453125 0.99609375 C-1.30335937 0.66738281 -0.66140625 0.33867187 0 0 Z " fill="#FAE7CF" transform="translate(1494,178)"/>
<path d="M0 0 C0.66 0.33 1.32 0.66 2 1 C2 2.65 2 4.3 2 6 C1.01 6.33 0.02 6.66 -1 7 C-1.66 5.02 -2.32 3.04 -3 1 C-2.01 0.67 -1.02 0.34 0 0 Z " fill="#0D0D0D" transform="translate(1013,202)"/>
<path d="M0 0 C0.66 0.33 1.32 0.66 2 1 C2 2.65 2 4.3 2 6 C1.01 6.33 0.02 6.66 -1 7 C-1.66 5.02 -2.32 3.04 -3 1 C-2.01 0.67 -1.02 0.34 0 0 Z " fill="#0D0D0D" transform="translate(669,202)"/>
<path d="M0 0 C0 0.66 0 1.32 0 2 C-3.2491277 4.3208055 -6.05879291 5.43697042 -10 6 C-7.61707123 2.42560684 -4.48712563 0 0 0 Z " fill="#FBE4CC" transform="translate(1476,190)"/>
<path d="M0 0 C-1.51934706 3.03869411 -3.98004772 3.64410306 -7 5 C-7.66 5 -8.32 5 -9 5 C-9 3 -9 3 -7.875 1.375 C-5.24112056 -0.55651159 -3.18083044 -0.21205536 0 0 Z " fill="#E18E57" transform="translate(1481,186)"/>
<path d="M0 0 C1.32 0.99 2.64 1.98 4 3 C3.67 3.99 3.34 4.98 3 6 C1.68 6 0.36 6 -1 6 C-0.67 4.02 -0.34 2.04 0 0 Z " fill="#E7803E" transform="translate(1301,284)"/>
<path d="M0 0 C-0.8125 1.9375 -0.8125 1.9375 -2 4 C-2.99 4.33 -3.98 4.66 -5 5 C-5.99 4.34 -6.98 3.68 -8 3 C-2.25 0 -2.25 0 0 0 Z " fill="#FDF1E1" transform="translate(1352,263)"/>
<path d="M0 0 C1.98 0 3.96 0 6 0 C3.64722731 2.72426311 1.37503669 3.8141763 -2 5 C-1.34 3.35 -0.68 1.7 0 0 Z " fill="#DE894F" transform="translate(1483,181)"/>
<path d="M0 0 C3.2910841 3.60957611 4.54663921 6.12637153 5 11 C2.25722422 7.80009492 0.3697164 4.99500618 -1 1 C-0.67 0.67 -0.34 0.34 0 0 Z " fill="#721943" transform="translate(1319,77)"/>
<path d="M0 0 C1.32 0.66 2.64 1.32 4 2 C3.1875 3.9375 3.1875 3.9375 2 6 C1.01 6.33 0.02 6.66 -1 7 C-0.67 4.69 -0.34 2.38 0 0 Z " fill="#242424" transform="translate(1172,234)"/>
<path d="M0 0 C-4.95 2.475 -4.95 2.475 -10 5 C-10 4.34 -10 3.68 -10 3 C-9.34 3 -8.68 3 -8 3 C-8 2.34 -8 1.68 -8 1 C-3.375 -1.125 -3.375 -1.125 0 0 Z " fill="#DC8D57" transform="translate(1411,228)"/>
<path d="M0 0 C0.6875 1.75 0.6875 1.75 1 4 C-0.3125 6.25 -0.3125 6.25 -2 8 C-2.66 8 -3.32 8 -4 8 C-2.25 2.25 -2.25 2.25 0 0 Z " fill="#E0905D" transform="translate(1341,210)"/>
<path d="M0 0 C1.32 1.32 2.64 2.64 4 4 C3.01 4.33 2.02 4.66 1 5 C0.67 5.66 0.34 6.32 0 7 C-0.66 5.68 -1.32 4.36 -2 3 C-1.34 3 -0.68 3 0 3 C0 2.01 0 1.02 0 0 Z " fill="#2C2C2C" transform="translate(945,219)"/>
<path d="M0 0 C0.66 0.33 1.32 0.66 2 1 C0.8125 3 0.8125 3 -1 5 C-3.6875 5.25 -3.6875 5.25 -6 5 C-5.195625 4.360625 -4.39125 3.72125 -3.5625 3.0625 C-1.7249496 1.59396498 -1.7249496 1.59396498 0 0 Z " fill="#FBE5CF" transform="translate(1446,206)"/>
<path d="M0 0 C0.99 0 1.98 0 3 0 C3.99 2.64 4.98 5.28 6 8 C5.01 8.495 5.01 8.495 4 9 C0 2.25 0 2.25 0 0 Z " fill="#731943" transform="translate(1300,45)"/>
</svg>
