<svg
		width="160mm"
		height="140mm"
		viewBox="0 0 160 140"
		version="1.1"
		id="svg1"
		xmlns="http://www.w3.org/2000/svg"
		>
	<g id="layer1">
		<path
			style="fill:#000000;stroke-width:1.00049"
			d="m 65.987971,139.34249 c -0.167662,-0.20203 -1.104079,-0.7491 -2.080926,-1.21572 -1.879247,-0.89766 -5.895357,-3.41216 -6.850192,-4.28893 -0.522015,-0.47932 -2.889801,-1.91057 -8.225347,-4.97194 -1.132933,-0.65003 -2.619733,-1.70306 -3.304001,-2.34005 -1.339692,-1.24713 -1.497422,-1.24611 -2.559888,0.0165 -0.931117,1.10657 -4.113807,3.10062 -6.387421,4.00192 -6.209154,2.4614 -11.81268,-0.92322 -14.371485,-8.68059 -0.429755,-1.30287 -0.545715,-2.46336 -0.607374,-6.07843 -0.07368,-4.31957 -0.09768,-4.49119 -0.72199,-5.1619 -1.098762,-1.18041 -2.829027,-3.9073 -2.829027,-4.45853 0,-1.64653 2.016984,-5.64972 3.972426,-7.88424 1.945347,-2.222985 4.589041,-5.974325 5.87522,-8.336798 1.683702,-3.092659 7.533562,-11.232401 10.920447,-15.195165 0.734471,-0.85935 2.451627,-2.76528 3.815902,-4.235397 2.867041,-3.089468 5.122386,-6.040758 6.255014,-8.185164 0.639145,-1.210101 1.026626,-1.611857 1.985344,-2.058525 0.655165,-0.305239 1.457977,-0.801111 1.784036,-1.101937 0.563575,-0.519974 0.617772,-0.524386 1.098403,-0.08944 0.580594,0.525426 3.080023,1.24951 3.610472,1.04596 0.195896,-0.07514 0.299716,-0.283818 0.230713,-0.463646 -0.324439,-0.845483 2.141115,-2.728992 4.350733,-3.323642 0.878499,-0.236415 1.747603,-0.234414 3.705978,0.009 2.100915,0.260647 2.983696,0.524626 4.93736,1.47644 1.308458,0.637471 2.530855,1.100777 2.716435,1.029562 0.592059,-0.22719 1.587925,0.417724 2.407665,1.559191 1.298704,1.808403 1.928321,4.107165 2.092661,7.640309 l 0.145231,3.122443 1.350229,0.896558 c 1.554358,1.032093 3.789819,3.190217 4.004204,3.865656 0.186011,0.586096 4.585998,4.478586 5.06249,4.478586 0.257106,0 0.360576,-0.426759 0.36906,-1.522103 0.01661,-2.149989 0.854417,-6.348348 1.528026,-7.657417 1.347087,-2.617837 4.225322,-1.459012 5.869544,2.363173 0.360126,0.837149 0.743213,1.522093 0.851316,1.522093 0.108092,0 0.375503,-0.346079 0.59423,-0.769055 0.218736,-0.422987 0.549378,-0.930054 0.734758,-1.12683 0.185381,-0.196776 0.778399,-1.013044 1.317812,-1.813945 0.539411,-0.800901 1.332731,-1.664102 1.762921,-1.918226 0.76192,-0.45008 1.62408,-0.391391 1.62408,0.110564 0,0.510629 -0.90212,2.005188 -2.45157,4.061572 -1.872917,2.485663 -3.018536,3.556645 -3.815035,3.5665 -0.910544,0.01131 -2.05004,-1.14789 -3.108507,-3.162153 -0.537642,-1.023149 -1.087891,-1.860268 -1.222776,-1.860268 -0.292573,0 -0.317705,0.110364 -1.159306,5.089404 -0.362397,2.144006 -0.790016,4.143192 -0.950264,4.442618 -0.249882,0.466887 -0.129173,0.729956 0.847624,1.847381 0.626435,0.71663 1.284827,1.308329 1.463074,1.314882 0.178257,0.007 0.502425,-0.332933 0.720381,-0.754408 0.498043,-0.96312 2.408726,-2.854713 3.455636,-3.42113 0.513891,-0.278025 1.422735,-0.427138 2.575366,-0.422536 1.507127,0.006 1.884657,0.104271 2.453327,0.638512 l 0.6721,0.631398 1.33282,-0.479274 c 1.66509,-0.598762 3.92334,-0.468659 4.95561,0.285509 0.39434,0.288101 0.93457,0.961409 1.20051,1.49624 0.47056,0.946322 0.46995,0.992034 -0.0228,1.703542 -0.98161,1.417491 -1.02683,1.371959 1.31781,1.326947 1.74015,-0.03342 2.345,0.05903 2.93361,0.448319 1.575,1.041678 1.96804,3.098222 0.84678,4.430752 -0.85791,1.019568 -0.83437,1.358783 0.11926,1.718739 1.14624,0.432651 1.92778,1.822589 1.73846,3.091778 -0.26394,1.769384 -1.29458,3.244704 -2.80006,4.008182 -1.61546,0.819249 -1.79331,1.080729 -1.49507,2.198119 0.55536,2.08065 -0.34168,4.60574 -1.9941,5.61324 -1.0293,0.62757 -1.87088,0.67323 -2.41319,0.13092 -0.51571,-0.5157 -1.33789,-0.50674 -1.77451,0.0193 -0.48066,0.57915 -2.07351,1.35764 -3.21667,1.5721 -0.6035,0.11321 -1.49565,0.0234 -2.41083,-0.24261 -0.79904,-0.23229 -1.873417,-0.42235 -2.387507,-0.42235 -1.766162,0 -3.616284,-1.12803 -3.616284,-2.20486 0,-0.50755 -0.01691,-0.50899 -0.529429,-0.0452 -0.291182,0.26351 -0.535361,0.60956 -0.542614,0.76898 -0.007,0.15943 -1.179626,2.31492 -2.605262,4.78998 -2.600089,4.51404 -2.82914,5.34882 -1.121137,4.08604 1.114444,-0.82394 1.976575,-0.55347 2.355079,0.73887 0.160899,0.54932 0.418335,2.36866 0.57209,4.04296 0.153765,1.6743 0.310111,3.342 0.347459,3.70597 0.05613,0.54704 -0.04652,0.66179 -0.591809,0.66179 -1.002779,0 -1.552147,-1.44283 -1.760619,-4.62406 -0.09575,-1.46054 -0.260897,-2.65554 -0.367059,-2.65554 -0.106172,0 -0.642423,0.54842 -1.191681,1.21871 -0.549249,0.6703 -1.476281,1.56471 -2.060066,1.98761 -1.002329,0.72608 -1.088841,0.74408 -1.553808,0.3233 -0.461495,-0.41766 -0.550979,-0.41766 -1.426876,3e-5 -0.513971,0.2451 -1.542563,1.01042 -2.285756,1.70072 -1.31314,1.21967 -12.002827,12.9573 -14.101041,15.48338 -1.099906,1.32422 -1.467896,1.49078 -1.966449,0.89008 z m -0.289401,-3.87927 c 0,-0.15173 -0.117328,-0.41975 -0.260718,-0.5956 -1.14885,-1.4088 -1.654587,-2.17734 -2.649142,-4.02569 -3.83166,-7.12106 -6.322566,-10.9358 -6.90551,-10.57552 -0.112585,0.0695 0.07023,1.16722 0.406288,2.43918 0.336044,1.27197 0.761942,3.34572 0.946452,4.60835 0.301247,2.06154 0.290942,2.34021 -0.101069,2.73221 -0.240088,0.24009 -0.436523,0.52332 -0.436523,0.62939 0,0.29668 0.599592,0.82817 0.934286,0.82817 0.377834,0 6.47651,3.36936 6.997634,3.866 0.455573,0.43417 1.068302,0.48781 1.068302,0.0935 z m -31.633142,-7.69381 c 5.406192,-1.48111 9.803673,-5.80307 10.983422,-10.7948 0.451508,-1.91041 0.211801,-5.31353 -0.508254,-7.21566 -1.275001,-3.36809 -3.188422,-4.81881 -6.389912,-4.84467 -1.857686,-0.015 -2.629337,0.33487 -2.629337,1.19221 0,0.26388 -0.117995,0.79013 -0.262211,1.16945 -0.223343,0.58744 -0.340594,0.64771 -0.791012,0.40666 -0.290841,-0.15566 -0.600971,-0.57055 -0.689178,-0.922 -0.185869,-0.74056 -0.907121,-0.92973 -2.159314,-0.56633 -0.677502,0.19663 -0.959734,0.15637 -1.344406,-0.19176 -0.267788,-0.24234 -0.684364,-0.44063 -0.925726,-0.44063 -1.237416,0 -3.913111,4.3788 -4.448257,7.2796 -0.350733,1.90117 -0.150293,5.10698 0.450752,7.20924 0.767518,2.68454 1.664114,4.31397 3.231887,5.87348 1.971881,1.96149 3.356198,2.42748 5.481546,1.84521 z m 20.250507,-12.13962 c 0,-0.14072 0.530849,-0.85358 1.179666,-1.58412 0.648816,-0.73052 1.323285,-1.59813 1.498811,-1.928 0.175526,-0.32986 1.163468,-1.76869 2.195411,-3.19739 2.682309,-3.71355 4.427331,-6.54696 4.334395,-7.03778 -0.04442,-0.2348 -0.395102,-0.46017 -0.786553,-0.50555 -0.38848,-0.045 -0.86007,-0.26714 -1.047982,-0.49356 -0.288611,-0.34776 -0.22515,-0.5119 0.40873,-1.05714 1.015065,-0.873132 1.190631,-1.8941 0.94391,-5.489054 -0.233764,-3.406123 -0.152114,-4.041793 0.547698,-4.263901 1.297193,-0.411721 4.518384,1.991232 5.752577,4.291314 l 0.792486,1.476891 0.918659,-1.426737 c 0.505256,-0.784702 1.683001,-2.379691 2.617217,-3.544429 0.934206,-1.164739 2.801037,-3.60671 4.148514,-5.426608 1.347468,-1.819898 2.804689,-3.747599 3.23825,-4.283771 0.433572,-0.536181 0.788315,-1.08781 0.788315,-1.225838 0,-0.138037 -1.151932,-1.18835 -2.559849,-2.334039 -1.407917,-1.145689 -3.202923,-2.655175 -3.988896,-3.354407 -3.33958,-2.971009 -5.548578,-4.310303 -10.789926,-6.541832 -4.128144,-1.757558 -6.159836,-2.373498 -8.735512,-2.648312 -2.084648,-0.222419 -2.415496,-0.200738 -2.647129,0.173434 -0.719691,1.162598 -4.761441,6.27059 -6.25541,7.905638 -2.145871,2.348506 -3.194221,3.676144 -5.121133,6.485455 -0.848825,1.237524 -3.051769,4.275106 -4.895431,6.750164 -11.397285,15.300532 -11.052477,14.720222 -9.146148,15.392932 0.823465,0.29058 1.213419,0.30523 1.788146,0.0671 0.975283,-0.40397 3.555375,-0.17666 4.092607,0.36058 0.385586,0.38559 0.532054,0.37798 1.716992,-0.0891 0.888079,-0.35004 1.945003,-0.51062 3.361066,-0.51062 3.689333,0 6.181024,1.74459 8.128604,5.69133 0.502912,1.01914 1.061817,2.5802 1.242011,3.46901 0.332374,1.63945 0.796786,2.48702 1.362731,2.48702 0.171737,0 1.199457,0.59405 2.283821,1.3201 1.935632,1.29603 2.633352,1.57984 2.633352,1.07114 z m 27.856934,-7.81785 c 0.106972,-0.14559 0.196305,-0.35405 0.198537,-0.46325 0.006,-0.29188 -1.825201,-0.23892 -2.997883,0.0867 -0.926813,0.25735 -1.001509,0.34488 -0.845823,0.99119 0.315264,1.30883 0.838979,1.42454 2.215271,0.48945 0.679481,-0.46167 1.322935,-0.95851 1.429898,-1.1041 z m 21.338731,-1.1526 c 0.38645,-0.26995 1.05274,-0.57567 1.48063,-0.67938 0.4279,-0.10371 1.11203,-0.42641 1.5203,-0.71712 0.77745,-0.5536 1.01252,-0.50667 2.02674,0.4046 l 0.61907,0.55622 0.629,-0.78679 c 0.80877,-1.01165 1.19787,-2.85379 0.91954,-4.35336 -0.19825,-1.06816 -0.15783,-1.21725 0.46647,-1.720642 2.09047,-1.685633 3.49704,-3.281101 3.49704,-3.966706 0,-0.61531 -0.20871,-0.808924 -1.47611,-1.369438 -0.81187,-0.359045 -1.43414,-0.739631 -1.38284,-0.845753 1.32669,-2.744169 1.91927,-5.017178 1.33685,-5.127842 -0.1092,-0.02071 -1.22738,-0.06303 -2.48487,-0.09395 -2.05839,-0.05062 -2.36077,-0.125221 -3.0331,-0.748635 l -0.74677,-0.692448 0.47471,-1.320124 c 0.26109,-0.726074 0.39796,-1.444295 0.30418,-1.596049 -0.28361,-0.458894 -2.96727,-0.310051 -4.57066,0.253494 -2.10287,0.7391 -2.36038,0.699251 -2.56605,-0.397064 -0.15283,-0.814698 -0.26978,-0.926502 -0.969099,-0.926502 -1.126269,0 -2.058604,0.552299 -3.458187,2.048559 -2.004968,2.143476 -1.998585,2.612285 0.07874,5.784013 1.701951,2.598538 2.773183,4.722845 3.005146,5.959298 0.218767,1.166139 -0.186591,2.196792 -1.824049,4.637669 -1.325307,1.97557 -1.410458,2.32814 -0.834267,3.45398 0.210943,0.41218 0.439674,0.94283 0.508288,1.17924 0.159528,0.54964 1.697358,0.84221 3.223728,0.61332 0.96249,-0.14434 1.17869,-0.10179 1.17869,0.23195 0,0.2248 0.26802,0.46035 0.59561,0.52344 0.32758,0.0631 0.63677,0.13094 0.68709,0.15076 0.0503,0.0198 0.40768,-0.18482 0.79414,-0.45477 z m -27.224523,-1.85579 c 0,-0.2543 0.295154,-0.86244 0.65591,-1.35141 0.438053,-0.59376 0.605715,-1.08903 0.504786,-1.49118 -0.08824,-0.35156 0.132455,-1.31095 0.530339,-2.305523 0.688796,-1.721716 1.234702,-5.477979 0.795568,-5.474117 -0.130104,0.001 -1.141197,0.98465 -2.246877,2.185566 -2.319151,2.518909 -4.297687,3.769004 -5.618981,3.550228 -1.547516,-0.256235 -3.620977,-1.077031 -3.620977,-1.433395 0,-0.193825 0.194985,-0.649997 0.433291,-1.013705 0.403697,-0.61612 0.400465,-0.734108 -0.04742,-1.727403 -0.40889,-0.906752 -1.333161,-1.807482 -1.558341,-1.518641 -0.03752,0.04822 -0.01311,1.24905 0.05423,2.668573 0.114846,2.41855 0.158047,2.581009 0.686585,2.581859 0.670027,0.001 4.143802,1.384398 5.352682,2.131518 0.775218,0.47912 1.740349,1.47915 3.143614,3.25733 0.559303,0.70873 0.935607,0.68472 0.935607,-0.0597 z M 75.757648,68.132938 c 0,-1.054994 -1.144448,-3.870918 -1.960857,-4.824704 -1.064279,-1.243377 -3.683737,-2.62293 -5.77953,-3.043825 -1.159116,-0.232784 -1.847632,-0.205 -3.527111,0.142329 -1.14777,0.237356 -2.209048,0.555821 -2.358381,0.707676 -0.324298,0.32978 0.444577,0.975275 1.449097,1.216573 2.044708,0.49116 7.099925,2.964867 9.753019,4.772519 2.189779,1.491978 2.423763,1.591357 2.423763,1.029432 z m 8.735513,67.606482 c 0,-0.79584 2.372298,-5.27051 2.961355,-5.58577 0.690537,-0.36956 1.27029,0.11602 1.066941,0.89363 -0.28635,1.09501 -2.27405,4.61874 -2.830972,5.01867 -0.540424,0.38808 -1.197324,0.20893 -1.197324,-0.32653 z m 17.791989,-1.90293 c -0.48446,-0.48446 -0.41648,-2.84217 0.0875,-3.03557 0.62497,-0.23983 0.77037,0.0758 0.7768,1.68625 0.006,1.49573 -0.27668,1.93698 -0.86433,1.34932 z m -7.079842,-0.22917 c -0.09475,-0.15335 -0.191143,-1.31477 -0.214164,-2.58095 -0.04952,-2.72751 0.374182,-3.89041 1.417641,-3.89041 h 0.658222 l -0.07424,2.77948 c -0.09725,3.6422 -0.177806,3.97068 -0.974065,3.97068 -0.352612,0 -0.718661,-0.12546 -0.813427,-0.2788 z m 13.969202,-2.14641 c -0.41935,-0.41934 -0.43398,-3.66994 -0.0206,-4.57721 0.20365,-0.44695 0.51909,-0.67424 0.93576,-0.67424 0.62562,0 0.6282,0.0127 0.55311,2.7133 -0.0691,2.48729 -0.1198,2.71967 -0.60796,2.78963 -0.29288,0.0419 -0.68002,-0.0712 -0.86031,-0.25148 z m -28.273972,-1.83118 c -0.495062,-0.54704 -0.481875,-0.56565 2.142845,-3.02258 2.554857,-2.39153 2.656997,-2.4566 3.131939,-1.99545 0.326819,0.31731 0.432201,0.66184 0.315194,1.0305 -0.258046,0.81302 -4.039312,4.53796 -4.606588,4.53796 -0.266891,0 -0.709427,-0.24771 -0.98339,-0.55043 z m 32.722442,-0.95109 c -0.30603,-0.38905 -0.79435,-1.24524 -1.08514,-1.90264 -0.45862,-1.03674 -0.47851,-1.24548 -0.14999,-1.574 0.20831,-0.20831 0.51226,-0.29623 0.67545,-0.19537 0.32893,0.20329 2.13652,3.67889 2.13652,4.10807 0,0.54044 -1.03355,0.25463 -1.57684,-0.43606 z m 6.12895,-1.21531 c -0.49422,-0.59551 -0.87845,-2.67322 -0.7951,-4.29957 0.0699,-1.36445 0.15307,-1.58676 0.59349,-1.58676 0.43997,0 0.59451,0.41045 1.09632,2.91183 0.32128,1.60151 0.53048,3.00118 0.46488,3.11038 -0.19011,0.31643 -1.05604,0.22989 -1.35959,-0.13588 z m 6.88506,-2.19842 c -1.13367,-0.79406 -2.55721,-5.81693 -1.87988,-6.63306 0.1777,-0.21412 0.56021,-0.35378 0.85003,-0.31036 0.41414,0.062 0.65384,0.53233 1.11969,2.19665 0.32601,1.16474 0.78425,2.63894 1.01832,3.27601 0.23407,0.63707 0.42557,1.24857 0.42557,1.35887 0,0.38888 -1.03089,0.46409 -1.53373,0.11189 z m -31.53103,-0.86303 c -0.262228,-0.48997 0.387199,-1.94671 1.141337,-2.56017 0.178977,-0.14559 0.51234,-0.62208 0.740821,-1.05885 0.872976,-1.66887 2.212859,-4.01245 2.593655,-4.53655 0.453247,-0.62383 1.875307,-1.41949 2.536997,-1.41949 0.75165,0 1.66603,1.31129 3.32258,4.76483 0.87296,1.8199 1.69847,3.51575 1.8345,3.76856 0.88984,1.65392 -0.79199,2.21013 -1.97863,0.65436 -0.36553,-0.47924 -1.24164,-2.16892 -1.94693,-3.75486 -0.70527,-1.58594 -1.42406,-2.93077 -1.5973,-2.98851 -0.17323,-0.0577 -0.43728,0.23227 -0.58677,0.64448 -0.78883,2.17511 -2.343807,4.54391 -3.857455,5.87627 -1.37323,1.20877 -1.816617,1.33154 -2.202805,0.60993 z m 14.16476,-2.38422 c -0.0854,-0.13827 -0.28845,-1.4747 -0.4511,-2.96985 -0.35722,-3.2837 -0.0848,-4.6458 0.98282,-4.91375 0.36922,-0.0927 0.77123,-0.064 0.89335,0.0636 0.12213,0.12765 0.14319,1.95934 0.0468,4.07042 -0.16735,3.66545 -0.20095,3.842 -0.74587,3.91966 -0.31385,0.0447 -0.64055,-0.0318 -0.726,-0.17008 z m 20.62202,-5.22475 c -1.8569,-0.77072 -2.33447,-1.17696 -2.10049,-1.78673 0.21234,-0.55336 0.90191,-0.56427 2.17017,-0.0344 1.23434,0.51575 2.17899,1.39097 2.17899,2.01886 0,0.62742 -0.33067,0.59833 -2.24867,-0.19776 z m -11.13097,-0.0956 c -1.07381,-0.25724 -3.93227,-1.79465 -4.75585,-2.55793 -1.23648,-1.14593 -0.59716,-2.05036 1.00011,-1.41483 0.47056,0.18722 1.6894,0.71447 2.70855,1.17166 1.01914,0.45718 2.24468,0.98906 2.72342,1.18196 1.24246,0.50059 1.54306,1.17749 0.69459,1.56408 -0.73113,0.33312 -1.16773,0.34327 -2.37082,0.055 z m 14.82779,-0.60032 c -0.35971,-0.28295 -0.65401,-0.73613 -0.65401,-1.00707 0,-0.59392 0.62228,-0.69517 3.52368,-0.57331 1.53889,0.0646 2.10687,0.18875 2.22066,0.48529 0.29474,0.76807 -0.74426,1.35184 -2.64174,1.48427 -1.49864,0.1046 -1.90243,0.0404 -2.44859,-0.38918 z m -10.71309,-1.72062 c -2.07138,-0.75097 -4.45441,-5.64581 -3.30716,-6.79305 0.23822,-0.23823 0.59658,-0.43315 0.79633,-0.43315 0.4469,0 3.30497,5.84069 3.30497,6.75398 0,0.67054 -0.0935,0.7262 -0.79414,0.47222 z M 5.5274243,113.77539 c -1.8938412,-0.73996 -2.9717782,-1.68784 -3.7663739,-3.31194 -0.6107351,-1.2483 -0.6977545,-1.71373 -0.6101798,-3.26359 0.1374441,-2.43243 1.0099428,-4.13027 2.7121585,-5.27777 1.0176366,-0.68601 1.5446277,-0.86031 2.6010002,-0.86031 1.1787592,0 1.4336866,0.10941 2.3127226,0.99267 1.7953091,1.80391 2.0161191,4.80022 0.3839352,5.20987 -0.9159478,0.22989 -1.160109,-0.13668 -1.1653886,-1.7497 -0.0061,-1.87744 -1.1437661,-2.71759 -2.635352,-1.94626 -1.2589263,0.65102 -1.9812898,2.3474 -1.8981152,4.45752 0.046823,1.18786 2.0176826,3.09324 3.4802953,3.36467 2.4975367,0.46349 5.3591184,-0.81897 5.0804244,-2.27686 -0.13988,-0.73173 0.296119,-1.21904 0.887603,-0.99207 0.548139,0.21034 1.200197,1.85818 1.019764,2.57708 -0.432145,1.7218 -3.604105,3.61308 -6.0147816,3.58632 -0.6133033,-0.007 -1.6877746,-0.23615 -2.3877121,-0.50963 z M 132.08884,111.98116 c -0.21965,-0.25478 -0.58655,-0.8508 -0.81534,-1.32448 -0.3585,-0.7422 -0.36427,-0.91296 -0.0417,-1.23548 0.46368,-0.46369 3.6196,-1.20075 6.00537,-1.40255 1.47412,-0.12469 1.78681,-0.0821 1.78681,0.2433 0,0.50443 -0.70805,1.1065 -1.72063,1.4631 -0.43678,0.15383 -1.35996,0.4811 -2.05153,0.72728 -0.69156,0.24618 -1.25738,0.60792 -1.25738,0.80386 0,0.45106 -0.72529,1.18822 -1.16908,1.18822 -0.18543,0 -0.51685,-0.20846 -0.73648,-0.46325 z m -10.60079,-6.62978 c -0.41968,-0.50569 0.0426,-1.16278 1.01161,-1.43781 1.09468,-0.31071 6.43732,-0.46395 6.60693,-0.1895 0.2492,0.4032 -0.48678,1.26422 -1.4528,1.69961 -1.20367,0.54251 -5.69924,0.48979 -6.16574,-0.0723 z m 12.82996,-0.99571 c -0.32357,-0.22665 -0.58832,-0.57981 -0.58832,-0.78482 0,-0.46808 0.96916,-1.00748 1.36765,-0.76119 0.16383,0.10125 1.16763,0.16756 2.23067,0.14735 2.06632,-0.0393 2.37254,0.12942 2.11287,1.164 -0.15574,0.62053 -0.25091,0.64673 -2.34843,0.64673 -1.55018,0 -2.35725,-0.11986 -2.77444,-0.41207 z m -6.72643,-3.96128 c -0.0758,-0.0758 -1.13803,-0.31213 -2.36035,-0.525039 -2.29804,-0.400251 -3.27845,-1.023685 -3.08392,-1.961013 0.1182,-0.569618 2.13781,-0.461865 4.46643,0.238297 1.93926,0.583094 2.48041,1.031913 2.2228,1.843585 -0.15702,0.4947 -0.90997,0.73915 -1.24496,0.40417 z m 4.53181,-1.483993 c -0.36457,-0.681222 -0.15568,-0.854017 1.72052,-1.423254 1.49044,-0.452201 1.73931,-0.47159 2.21098,-0.172314 0.90005,0.571098 -1.06947,2.158673 -2.67802,2.158673 -0.70017,0 -1.03186,-0.149003 -1.25348,-0.563105 z m -10.1756,-2.615876 c -0.47101,-0.520464 -0.45347,-0.557732 0.81929,-1.74122 2.67654,-2.488804 4.6651,-3.479258 5.53535,-2.757015 0.67768,0.562424 0.44734,0.887153 -1.50252,2.118243 -1.03769,0.65516 -2.0206,1.31032 -2.18425,1.455921 -0.43508,0.387059 -1.96542,1.45591 -2.08451,1.45591 -0.0561,0 -0.31863,-0.239327 -0.58336,-0.531839 z M 9.9300125,95.240446 C 7.5751795,94.623195 6.7783547,94.212585 5.6432768,93.031448 4.5880859,91.933453 4.200958,90.383997 4.690763,89.219098 c 0.6328528,-1.505114 3.5125711,-2.534687 6.477033,-2.31569 0.800754,0.05913 1.604819,0.112285 1.786809,0.118068 0.369029,0.0117 0.435941,0.75883 0.113448,1.266668 -0.115134,0.181308 -1.215176,0.457783 -2.444537,0.6144 -3.3710299,0.429459 -3.9558333,0.663043 -3.9558333,1.580091 0,0.618762 0.2120195,0.884711 1.125028,1.411198 2.5466213,1.468497 6.6907723,2.201164 8.4137123,1.487506 0.99046,-0.41026 1.457609,-0.07314 1.218546,0.879349 -0.376856,1.501523 -3.798181,1.948761 -7.4949565,0.979758 z M 132.55432,91.90721 c -0.52762,-0.527628 -0.51937,-0.729116 0.0503,-1.22864 1.04091,-0.912665 4.30158,-1.983698 4.30158,-1.412939 0,0.77818 -1.34854,1.972122 -3.013,2.667581 -0.82323,0.343968 -0.97184,0.341077 -1.33892,-0.02601 z m -10.78034,-2.141505 c -0.51163,-0.135496 -0.79423,-0.723443 -0.59602,-1.239975 0.24607,-0.641243 2.02586,-0.976767 5.50257,-1.037316 2.98113,-0.05193 3.4438,-0.002 3.70149,0.398934 0.51142,0.795839 -0.30071,1.207049 -3.25059,1.645903 -2.6717,0.397464 -4.44404,0.474362 -5.35745,0.232454 z m 0.0478,-3.461659 c 0.002,-0.254795 0.74679,-1.833135 1.65444,-3.507442 1.41575,-2.611564 1.74293,-3.044195 2.30217,-3.044195 0.5112,0 0.70627,0.189682 0.90397,0.879018 0.335,1.16809 -0.43752,2.772974 -2.26479,4.705046 -1.39943,1.479702 -2.60445,1.928862 -2.59579,0.967573 z m 8.6776,-0.495842 c -0.6053,-0.179648 -0.90059,-1.159116 -0.43783,-1.452319 0.19756,-0.125191 0.59985,-0.229442 0.89395,-0.231663 0.29412,-0.002 1.41463,-0.247891 2.49005,-0.545897 2.1853,-0.605575 2.74353,-0.5335 2.61892,0.338145 -0.16835,1.177625 -3.80544,2.413978 -5.56509,1.891734 z M 20.697446,82.832071 C 15.820659,81.23179 12.25827,77.971559 9.8119779,72.86988 7.4537063,67.95177 7.570055,64.829156 10.172704,63.188666 c 0.704307,-0.443937 1.178702,-0.523696 2.583367,-0.434312 3.910446,0.248821 7.013989,3.224483 7.322872,7.021136 0.0986,1.211971 0.01474,1.677248 -0.429416,2.382363 -1.675282,2.659587 -5.047827,1.431498 -5.036415,-1.833985 0.0048,-1.384196 0.282951,-1.907251 0.946202,-1.779519 0.335806,0.06463 0.5581,0.439955 0.707207,1.193943 0.239876,1.212972 0.768482,1.817187 1.38336,1.581241 0.550715,-0.211333 0.502877,-1.63979 -0.09932,-2.965597 -0.768439,-1.691825 -3.517357,-3.557786 -5.241293,-3.557786 -3.9732082,0 -1.706864,7.523842 3.843527,12.759797 1.75655,1.657048 3.480442,2.68444 6.747659,4.021442 0.810331,0.331602 0.994817,0.533741 0.926493,1.015165 -0.112645,0.793718 -1.189455,0.876128 -3.129505,0.239517 z m 97.433834,-1.337072 c -1.06982,-0.281417 -0.91015,-0.722583 0.56288,-1.555299 1.73842,-0.98273 5.21093,-2.240884 5.68392,-2.059375 0.72774,0.279256 0.35514,1.16838 -0.77364,1.846111 -2.61796,1.571827 -4.23484,2.094292 -5.47316,1.768563 z m -2.82643,-1.12589 c 0.37952,-1.316222 1.17467,-4.635231 1.33684,-5.580063 0.14078,-0.82018 0.27949,-0.992674 0.79824,-0.992674 0.53992,0 0.66799,-0.187201 0.91453,-1.336782 0.34725,-1.61917 0.91391,-2.788051 1.82227,-3.758935 1.36931,-1.463534 1.82807,-0.514801 0.80002,1.654458 -0.31049,0.65516 -0.63615,1.727253 -0.72369,2.382412 -0.15817,1.183748 -0.16534,1.190842 -1.14576,1.133464 l -0.9866,-0.05773 0.0616,1.778378 c 0.0606,1.748713 -0.017,2.018905 -1.38612,4.822563 -0.10665,0.218387 -0.52584,0.436343 -0.93155,0.484337 -0.66082,0.07814 -0.71913,0.02301 -0.55983,-0.529419 z m 13.29126,-0.373642 c -0.0883,-0.230292 -0.16068,-0.81983 -0.16068,-1.310089 0,-0.925802 0.55645,-1.500522 2.56359,-2.647812 0.68086,-0.38918 0.91903,-0.418705 1.23856,-0.153525 0.34854,0.289261 0.33632,0.428779 -0.10268,1.172832 -0.56224,0.952915 -2.82486,3.357318 -3.15935,3.357318 -0.12032,0 -0.29106,-0.188421 -0.37944,-0.418724 z m -19.32738,-2.839205 c -0.43972,-0.321537 -0.41045,-0.393492 0.41265,-1.014125 1.77533,-1.338623 4.99585,-3.139902 5.61387,-3.139902 0.34863,0 0.76637,0.159647 0.92829,0.354763 0.23279,0.280487 -0.13452,0.633639 -1.75439,1.686813 -2.34929,1.527415 -4.03195,2.45854 -4.4429,2.45854 -0.15632,0 -0.4972,-0.155736 -0.75752,-0.346089 z m -2.90797,-1.573078 c -0.21067,-0.764353 -0.75003,-2.711273 -1.19859,-4.326481 -0.95248,-3.429744 -0.92235,-3.186385 -0.41851,-3.379729 1.17414,-0.45056 2.24906,1.472568 3.14907,5.633949 0.66491,3.07433 0.6036,3.461999 -0.54749,3.461999 -0.50043,0 -0.66576,-0.233394 -0.98448,-1.389738 z m 19.89521,-1.16789 c -0.4101,-0.41009 -0.30175,-0.535781 1.59773,-1.853574 2.06653,-1.43367 3.01646,-1.671566 3.18318,-0.797169 0.11242,0.589557 -0.50546,1.300894 -2.01473,2.319491 -1.2934,0.872906 -2.12495,0.972485 -2.76618,0.331252 z M 82.945976,72.974831 c -0.960959,-1.306707 -1.163608,-2.144526 -1.049862,-4.340348 0.07744,-1.495189 0.121019,-1.588275 0.743232,-1.588275 0.608697,0 0.694189,0.156987 1.081208,1.985339 0.231133,1.091943 0.572599,2.445003 0.75881,3.006817 0.30602,0.923241 0.288441,1.071593 -0.182759,1.542793 -0.518633,0.518633 -0.525627,0.515502 -1.350629,-0.606326 z m 4.459026,-4.924813 c -0.218397,-0.05102 -0.786004,-0.833787 -1.261366,-1.739489 -1.391589,-2.651384 -1.415971,-4.091877 -0.05693,-3.364552 0.519023,0.277776 2.37715,3.698545 2.37715,4.376286 0,0.441895 -0.579013,0.83985 -1.058847,0.727755 z m -53.79671,-0.363217 c -1.717818,-0.405208 -4.272196,-1.733196 -5.297553,-2.754124 -1.824381,-1.816507 -1.863633,-3.89416 -0.111278,-5.889984 1.409213,-1.605004 3.765086,-2.142496 5.487262,-1.251931 0.880855,0.455512 2.364049,2.351167 2.364049,3.021474 0,1.120937 -1.283001,1.410949 -2.03231,0.459394 -0.265352,-0.336974 -0.795409,-0.817569 -1.177903,-1.067991 -0.586683,-0.384097 -0.814377,-0.404577 -1.455919,-0.130934 -0.896833,0.382527 -1.951681,1.265808 -1.951681,1.634228 0,0.752167 1.462823,2.012822 3.516338,3.030378 2.47842,1.22811 2.836762,1.317163 2.836762,0.704994 0,-0.22698 0.124821,-0.335543 0.277379,-0.241257 0.152559,0.09425 0.241899,0.428899 0.198534,0.743583 -0.04783,0.347129 0.0513,0.546126 0.252046,0.505977 0.422094,-0.08444 0.431659,0.786013 0.01324,1.204437 -0.360851,0.360846 -1.472554,0.372942 -2.918963,0.03172 z M 114.9351,67.524432 c 0,-0.463617 2.44086,-2.987018 3.37064,-3.484621 0.39361,-0.210653 0.65336,-0.188822 1.02672,0.08634 0.4779,0.352162 0.4592,0.410491 -0.42668,1.330479 -1.05777,1.098517 -3.09675,2.516108 -3.61899,2.516108 -0.19344,0 -0.35169,-0.201718 -0.35169,-0.448268 z M 99.380144,66.871053 c -0.399314,-0.399315 -0.434872,-3.399409 -0.05643,-4.761874 0.269972,-0.971954 0.943466,-1.498341 1.370586,-1.071223 0.12641,0.126412 0.19583,1.529987 0.15426,3.119042 -0.0696,2.66353 -0.11717,2.895173 -0.60808,2.965527 -0.292892,0.04202 -0.680041,-0.07113 -0.860329,-0.251472 z m 9.190956,-0.442226 c -0.59925,-0.485237 -0.61169,-0.564155 -0.30106,-1.909872 0.37587,-1.628325 0.70073,-2.105217 1.43408,-2.105217 0.44731,0 0.49771,0.111094 0.33018,0.727955 -0.10873,0.400385 -0.21196,1.287698 -0.22939,1.971832 -0.0408,1.602972 -0.40247,1.98848 -1.23381,1.315302 z m -13.087836,-1.00418 c -0.622454,-0.622454 -0.420966,-1.798158 0.326359,-1.904289 0.419825,-0.05963 0.607827,0.05753 0.637031,0.397063 0.144641,1.681431 0.118948,1.937576 -0.194345,1.937576 -0.186281,0 -0.53235,-0.193655 -0.769045,-0.43035 z M 105.14074,58.5669 c 0,-1.161837 0.7034,-2.473407 1.42342,-2.654115 1.13212,-0.284148 1.57728,0.28588 0.817,1.046161 -0.22368,0.223689 -0.58264,0.827794 -0.79769,1.342475 -0.48187,1.153273 -1.44273,1.330089 -1.44273,0.265479 z M 89.479164,53.09441 C 88.07764,51.887465 87.354737,49.657687 86.493077,43.883869 85.449498,36.891007 85.202187,32.803502 85.37194,25.353987 85.683682,11.673866 86.804689,5.5235462 89.431831,3.0798237 c 2.547193,-2.36934523 8.517256,-3.72786718 12.173499,-2.77014383 0.89457,0.23432534 1.9714,0.42604492 2.39297,0.42604492 1.32185,0 3.8465,0.76096541 5.84789,1.76264821 2.97697,1.489939 6.56743,5.649856 7.57498,8.776389 0.66114,2.051564 0.71492,2.904342 0.47059,7.461415 -0.2039,3.802777 -0.32089,4.560366 -0.90445,5.856779 -1.1733,2.606532 -2.896,4.135338 -5.62583,4.992586 -0.58237,0.182889 -1.15056,0.415793 -1.26264,0.517573 -0.1121,0.101779 0.30482,0.723543 0.92649,1.381694 3.33308,3.528752 7.20574,10.290792 7.99131,13.953629 0.55918,2.607252 0.56051,5.94233 0.003,6.500252 -0.22879,0.228782 -0.52532,0.415969 -0.65894,0.415969 -1.0739,0 -5.3443,-2.327592 -8.54993,-4.66016 -2.33115,-1.696248 -10.463682,-8.886486 -11.631511,-10.283798 -1.442624,-1.726103 -1.671805,-1.604193 -1.549186,0.824042 0.14194,2.810781 -0.450279,10.981068 -0.907582,12.52095 -0.457184,1.539507 -0.847884,1.892359 -2.598378,2.346621 -2.490276,0.646245 -2.885929,0.645385 -3.644549,-0.008 z M 101.08472,21.635253 c 2.89514,-0.38796 3.71327,-0.698541 5.02492,-1.907581 2.48562,-2.291167 2.04413,-4.756381 -1.10126,-6.149197 -1.84827,-0.818438 -2.82437,-0.961407 -5.2071,-0.762694 l -2.07249,0.172839 v 4.285578 c 0,2.357067 0.07944,4.364996 0.176466,4.462054 0.239767,0.239757 0.75981,0.223239 3.179464,-0.100999 z m 37.54215,30.842866 c -3.28303,-2.855819 -3.45096,-3.16498 -4.2368,-7.800112 -0.95261,-5.618722 -1.50745,-19.626567 -0.94889,-23.95649 0.69332,-5.374708 0.69407,-4.854743 -0.007,-5.000831 -0.34696,-0.07229 -1.76248,-0.32696 -3.14559,-0.56595 -4.2858,-0.740542 -5.29995,-1.112174 -6.53919,-2.396262 -1.28333,-1.329774 -1.71254,-2.633397 -1.43092,-4.3460861 0.27678,-1.6833135 0.68524,-2.3067387 2.09907,-3.2038124 1.51635,-0.9621255 3.79794,-1.686578 7.06617,-2.2436699 3.44521,-0.5872576 12.75007,-0.3640416 22.71212,0.5448449 2.24776,0.2050731 4.8516,0.9178589 5.34512,1.46319 0.53026,0.5859339 0.63028,4.4773609 0.14621,5.6890205 -0.6037,1.511159 -1.9203,2.522538 -4.82224,3.70433 -3.63695,1.481129 -8.60769,2.232202 -9.41699,1.422899 -0.16492,-0.164925 -0.48655,-0.228224 -0.71473,-0.140665 -0.34077,0.130766 -0.41567,0.668905 -0.41938,3.013166 -0.002,1.569686 -0.12643,5.59374 -0.27545,8.942354 -0.19679,4.421908 -0.18466,7.977773 0.0443,12.99114 0.28997,6.349598 0.27772,7.060235 -0.1528,8.867867 -0.57398,2.409966 -0.9821,3.092375 -2.13838,3.575501 -1.35378,0.565646 -2.00188,0.45087 -3.16446,-0.560434 z M 38.830253,52.239287 c -0.72796,-0.344448 -1.727544,-1.048272 -2.221298,-1.564044 -1.744426,-1.822209 -1.366045,-4.753319 1.287711,-9.975207 1.746918,-3.437458 2.64718,-5.605786 4.503102,-10.845933 0.696126,-1.965489 2.330071,-6.134713 3.630991,-9.264941 1.300919,-3.130223 2.995109,-7.299446 3.764865,-9.264936 0.769756,-1.9654903 1.568434,-3.8416409 1.774834,-4.1692227 0.508448,-0.8069708 1.313201,-0.7498619 1.86512,0.1323566 0.25047,0.4003774 0.482543,0.7686751 0.515709,0.8184384 0.03312,0.049764 0.468789,-0.057238 0.968062,-0.2377731 0.843512,-0.3050198 0.990114,-0.2712683 2.071341,0.4768717 2.455609,1.6991321 4.442028,4.1649431 7.016274,8.7095451 2.514597,4.439291 7.731453,14.503753 9.209334,17.766835 2.395399,5.288901 3.049988,6.629015 3.868198,7.919194 0.720161,1.135585 0.790856,1.450708 0.790856,3.525701 0,2.226126 -0.01981,2.297571 -0.86032,3.098632 -0.473171,0.45098 -1.435131,1.179976 -2.137673,1.620001 -1.277024,0.79982 -1.277724,0.79993 -2.647132,0.397193 -3.635504,-1.069201 -7.555777,-4.910916 -10.044902,-9.843613 -0.761161,-1.508406 -1.65947,-2.926688 -1.996224,-3.151748 -0.539423,-0.360506 -1.027681,-0.369791 -4.103042,-0.07804 -1.919917,0.182169 -3.622955,0.36932 -3.784544,0.415903 -0.161579,0.04652 -0.437213,0.660652 -0.612509,1.364616 -0.355403,1.427276 -3.054516,6.737758 -4.16358,8.191807 -1.357535,1.779829 -5.661886,4.613327 -6.974542,4.591267 -0.218388,-0.004 -0.992671,-0.288501 -1.720631,-0.632955 z M 1.9774149,48.64033 C 1.3632582,48.060638 0.74217917,47.364768 0.59723844,47.093946 0.42854912,46.778742 0.3426462,39.610724 0.35853796,27.176076 0.37219462,16.492067 0.29710798,7.0857115 0.19168254,6.2730619 L 0,4.7955169 1.9441007,4.0922597 C 5.2798965,2.8855739 9.6938553,2.5524503 14.719014,3.1281323 23.70464,4.1575256 31.241075,8.8732858 34.586256,15.559627 c 1.688083,3.374137 2.068989,4.867196 2.197981,8.615535 0.13975,4.060952 -0.186777,5.69606 -1.806451,9.045914 -1.632683,3.376768 -3.987458,5.481315 -9.912584,8.859233 -7.580336,4.321559 -12.896925,6.33118 -19.3951041,7.331148 -2.5703463,0.395533 -2.424344,0.426028 -3.692683,-0.771127 z M 16.976992,28.199646 c 2.800773,-2.897934 2.947089,-3.911599 0.98703,-6.838117 -0.968161,-1.445545 -2.499705,-2.890065 -3.064173,-2.890065 -0.08819,0 -0.159912,2.561064 -0.159388,5.691262 7.12e-4,4.255867 0.08123,5.691267 0.31925,5.691317 0.175063,3e-5 1.03784,-0.744443 1.917281,-1.654397 z"
			id="path1" />
	</g>
</svg>
