<?xml version="1.0" encoding="UTF-8"?>
<svg version="1.1" xmlns="http://www.w3.org/2000/svg" width="2000" height="2000">
<path d="M0 0 C0.82448639 -0.01257339 1.64897278 -0.02514679 2.4984436 -0.0381012 C44.04252494 -0.54703526 89.4072768 5.34700563 121.5625 34.2734375 C145.45058435 63.45608854 149.32041138 99.27606896 150.11474609 135.66699219 C150.21643858 140.21423227 150.33671282 144.75994856 150.49664307 149.30554199 C150.55580676 151.07343421 150.59715584 152.84190127 150.63623047 154.61035156 C150.94104649 160.97786067 152.23598289 164.47342295 156.6875 169.0234375 C157.48341553 169.88932495 157.48341553 169.88932495 158.29541016 170.77270508 C160.02477241 172.63330688 161.790172 174.45379007 163.5625 176.2734375 C164.15998047 176.90362793 164.75746094 177.53381836 165.37304688 178.18310547 C176.64597453 190.07261534 188.83130482 199.81921454 202.33984375 209.02734375 C214.71420925 217.65190152 226.27241678 227.42026054 237.73754883 237.20263672 C241.01732848 239.99482278 244.35728382 242.68099421 247.75 245.3359375 C253.93767403 250.34977337 259.4514523 256.02959463 265.01831055 261.71508789 C269.14780285 265.9220566 273.36317932 269.91389871 277.83178711 273.75830078 C285.12413789 280.14232235 290.81656025 288.1219783 296.6237793 295.82177734 C299.98023749 300.25707969 303.4336854 304.55942502 307.0625 308.7734375 C319.33879102 323.1079372 329.89558164 338.47591068 340.1875 354.2734375 C341.43171041 356.172256 342.67650043 358.07069483 343.921875 359.96875 C346.91770337 364.53802605 349.90041075 369.11569763 352.87979126 373.69570923 C354.51148417 376.19528676 356.15473566 378.68685601 357.80151367 381.17651367 C358.79089398 382.68145083 359.78023547 384.18641352 360.76953125 385.69140625 C361.21322052 386.35628052 361.65690979 387.02115479 362.11404419 387.70617676 C369.77601364 399.41441372 374.99268916 416.20717311 372.5625 430.2734375 C370.02764577 435.74531034 367.10506287 438.84437903 362.1875 442.3359375 C356.82262546 446.33290688 352.03397523 450.59878961 347.375 455.3984375 C342.58583223 460.32129956 337.68078991 464.79135476 332.28515625 469.05859375 C328.66085581 472.00691276 325.24986448 475.15782988 321.82714844 478.33544922 C319.15940801 480.81164623 316.46546253 483.23444256 313.6875 485.5859375 C309.814137 488.92671308 306.27356278 492.56917721 302.6875 496.2109375 C298.04879454 500.90660844 293.36226092 505.26497338 288.1171875 509.2890625 C285.04292799 511.67701943 282.08556216 514.18441837 279.125 516.7109375 C275.10251239 520.13830608 271.0495932 523.51575954 266.9375 526.8359375 C262.17656042 530.70983157 257.63201034 534.78079342 253.1171875 538.9375 C250.94307901 540.92544629 248.73827224 542.85877088 246.5 544.7734375 C242.41915647 548.30960993 238.66922093 552.14979216 234.87890625 555.9921875 C233.09439588 557.74961424 231.33554356 559.35091511 229.375 560.8984375 C226.36111523 563.44349575 223.94629397 566.19294634 221.3984375 569.19140625 C219.62065974 571.20748188 217.75745798 573.04477346 215.8125 574.8984375 C211.74522677 578.90301673 208.31165909 583.28398533 204.83642578 587.79638672 C201.73463402 591.81565471 198.51684829 595.69178558 195.1875 599.5234375 C190.20857906 605.29722936 185.75611859 611.39490666 181.34179688 617.60693359 C178.06525104 622.2154325 174.69460779 626.71377418 171.1875 631.1484375 C167.52249969 635.8630939 164.50572883 640.6588082 161.58984375 645.859375 C157.48177676 652.77739147 152.77553419 659.31669781 148.18945312 665.92333984 C146.69503547 668.08199295 145.21174296 670.24762486 143.734375 672.41796875 C139.43628167 678.7251146 135.07513629 684.97114699 130.57324219 691.13500977 C122.57553841 702.08873661 115.57184153 713.371109 108.97192383 725.21826172 C106.56060918 729.53787351 104.06861065 733.79450818 101.5 738.0234375 C87.57186572 761.00643822 74.27357046 784.52463893 62.42919922 808.64624023 C58.16438883 817.24146038 53.41283858 825.55010083 48.640625 833.87109375 C45.53194189 839.29426004 42.54561015 844.78054178 39.5625 850.2734375 C38.53644866 852.13629072 37.49983946 853.99353734 36.4375 855.8359375 C35.75300781 857.04443359 35.75300781 857.04443359 35.0546875 858.27734375 C33.35950994 860.54497656 32.22594876 861.35569485 29.5625 862.2734375 C12.84025323 863.53732824 -4.82917407 852.87089983 -17.48828125 843.3359375 C-20.68452683 841.10068231 -24.00908512 839.24177048 -27.4375 837.3984375 C-35.0401461 833.27094062 -42.20693524 828.54056263 -49.375 823.7109375 C-49.94782715 823.32507477 -50.5206543 822.93921204 -51.11083984 822.54165649 C-51.68656738 822.15384003 -52.26229492 821.76602356 -52.85546875 821.36645508 C-63.68384115 814.07542132 -74.6492651 807.01827453 -85.67553711 800.02929688 C-87.49034919 798.87556856 -89.30120412 797.71558746 -91.10766602 796.54882812 C-97.79775256 792.23964864 -104.62949509 788.20463496 -111.51791382 784.22348022 C-123.29178527 777.40774116 -134.848824 770.35059903 -146.1640625 762.79101562 C-148.45745243 761.26011874 -150.75896775 759.74214664 -153.0625 758.2265625 C-163.33547573 751.44935084 -173.44909892 744.46326607 -183.4375 737.2734375 C-184.34798096 736.62084961 -184.34798096 736.62084961 -185.27685547 735.95507812 C-186.94093749 734.75749609 -188.59574261 733.54705442 -190.25 732.3359375 C-191.16394531 731.66691406 -192.07789063 730.99789062 -193.01953125 730.30859375 C-195.55033063 728.1784702 -197.46346407 725.91928986 -199.4375 723.2734375 C-202.72137842 723.84994553 -204.2608421 724.75883024 -206.51171875 727.1953125 C-207.08768799 727.80213867 -207.66365723 728.40896484 -208.25708008 729.03417969 C-208.87349365 729.69063477 -209.48990723 730.34708984 -210.125 731.0234375 C-238.23824956 759.9415018 -280.32128367 783.063235 -321.125 783.6484375 C-344.97211973 783.63741163 -367.42833814 775.04493404 -385.4375 759.2734375 C-386.10910156 758.71261475 -386.78070312 758.15179199 -387.47265625 757.57397461 C-393.09251315 752.77806819 -397.58985962 747.67018821 -401.9375 741.7109375 C-402.58404541 740.83252197 -403.23059082 739.95410645 -403.89672852 739.04907227 C-434.10822786 697.51818497 -445.61818835 641.86367783 -437.875 591.3359375 C-437.48871973 589.00928305 -437.10208839 586.68307851 -436.69702148 584.35961914 C-435.97009292 579.54684309 -435.97009292 579.54684309 -437.87109375 575.25634766 C-438.53238281 574.61487793 -439.19367188 573.9734082 -439.875 573.3125 C-440.60589844 572.59320312 -441.33679688 571.87390625 -442.08984375 571.1328125 C-442.86457031 570.39546875 -443.63929688 569.658125 -444.4375 568.8984375 C-445.18128906 568.16882812 -445.92507813 567.43921875 -446.69140625 566.6875 C-450.85005546 562.6373373 -455.12615991 558.75743224 -459.51318359 554.95751953 C-462.6763765 552.18922409 -465.73039361 549.32192031 -468.75 546.3984375 C-469.35650391 545.83769531 -469.96300781 545.27695313 -470.58789062 544.69921875 C-476.07531268 539.35064235 -478.09117255 533.9098757 -478.8125 526.3359375 C-478.29651094 515.93309467 -472.90919547 506.20899671 -468.55224609 496.9621582 C-467.45145457 494.61568342 -466.3758309 492.25874691 -465.30078125 489.90039062 C-461.00417872 480.64983329 -456.08034484 472.58340902 -449.86914062 464.50024414 C-447.04788898 460.82099742 -444.79629871 456.95870201 -442.6875 452.8359375 C-439.97979369 447.8104491 -437.28105398 443.32429706 -433.28344727 439.18994141 C-427.10781979 432.77826628 -421.53897875 425.98909954 -416.25 418.8359375 C-415.60562988 417.97049316 -414.96125977 417.10504883 -414.29736328 416.21337891 C-409.01105748 409.09445248 -403.79608413 401.9250856 -398.640625 394.7109375 C-396.46598047 391.67555204 -394.24417317 388.68342173 -391.984375 385.7109375 C-386.29632127 378.16743533 -381.49086765 371.01884468 -377.95629883 362.23950195 C-372.68047077 349.22300215 -364.54115782 337.73171175 -356.375 326.390625 C-353.63460675 322.57798152 -351.01850837 318.69513488 -348.4375 314.7734375 C-339.91052938 301.86585755 -330.81068624 289.35240527 -321.734375 276.828125 C-319.5077486 273.75559238 -317.28958855 270.67721341 -315.078125 267.59375 C-308.68672935 258.69024823 -302.17086607 249.92119196 -295.4375 241.2734375 C-294.20476122 239.67087708 -292.97508603 238.06599845 -291.74560547 236.4609375 C-282.82073402 224.81767125 -273.71155856 213.33497217 -264.44140625 201.96484375 C-262.00633821 198.97700692 -259.59012587 195.97496717 -257.1875 192.9609375 C-256.56617188 192.18492187 -255.94484375 191.40890625 -255.3046875 190.609375 C-254.01316373 188.99361932 -252.72704788 187.37353149 -251.4453125 185.75 C-245.4180618 178.22145609 -238.89869673 171.22660695 -232.27685547 164.22607422 C-230.45692171 162.29405535 -228.65010056 160.35067909 -226.84765625 158.40234375 C-221.33015965 152.44226314 -215.77492735 146.54799486 -210 140.8359375 C-205.59669231 136.47588292 -201.44455372 131.99842168 -197.4375 127.2734375 C-196.591875 126.31695313 -195.74625 125.36046875 -194.875 124.375 C-180.43311521 107.97147708 -167.9134036 90.6535442 -157.76953125 71.296875 C-157.10158499 70.02863399 -156.433616 68.76040495 -155.765625 67.4921875 C-154.43922582 64.97228462 -153.13363779 62.4430224 -151.83984375 59.90625 C-145.06177591 46.79698084 -145.06177591 46.79698084 -137.0703125 44.1640625 C-135.91273438 43.95265625 -134.75515625 43.74125 -133.5625 43.5234375 C-132.41007812 43.30171875 -131.25765625 43.08 -130.0703125 42.8515625 C-123.60674174 41.82295124 -117.33467862 41.14746521 -110.7890625 40.9921875 C-109.74291275 40.96457336 -109.74291275 40.96457336 -108.67562866 40.93640137 C-106.47132772 40.87835696 -104.26695496 40.82527853 -102.0625 40.7734375 C-96.51908754 40.64244255 -90.97846457 40.48561257 -85.4375 40.2734375 C-83.91842041 40.21845093 -83.91842041 40.21845093 -82.36865234 40.16235352 C-76.98989244 39.82085291 -73.94232176 38.93800575 -69.8125 35.2109375 C-68.88695312 34.39367187 -67.96140625 33.57640625 -67.0078125 32.734375 C-64.83320116 30.65230031 -62.75193941 28.52549445 -60.6875 26.3359375 C-45.57095779 10.88073548 -21.43188196 0.29606027 0 0 Z M-17.4375 55.2734375 C-14.78943158 57.92150592 -11.73664021 58.8887245 -8.30859375 60.22265625 C-6.79951168 60.82153061 -5.29056597 61.42074869 -3.78173828 62.02026367 C-2.58294037 62.49379776 -2.58294037 62.49379776 -1.35992432 62.97689819 C39.48038324 79.14981246 82.61071368 96.71523436 116.3203125 125.5234375 C118.52825941 127.44780722 118.52825941 127.44780722 121.5625 128.2734375 C124.37891963 112.25717162 119.41703709 93.79199606 110.375 80.4609375 C102.81774561 70.20199578 93.63236449 63.41267251 82.5625 57.2734375 C81.94600586 56.92893555 81.32951172 56.58443359 80.69433594 56.22949219 C51.45517922 40.13086142 11.90761559 36.78739423 -17.4375 55.2734375 Z M-109.4375 94.2734375 C-109.71980469 94.93085937 -110.00210937 95.58828125 -110.29296875 96.265625 C-114.64810264 105.69110539 -120.54068574 113.71457997 -126.73828125 121.99951172 C-128.35804437 124.16710851 -129.962248 126.34532074 -131.5625 128.52734375 C-139.93072348 139.88431512 -148.90569718 150.5682078 -158.390625 161.01171875 C-160.84025082 163.71846178 -163.23716025 166.46820815 -165.6328125 169.22265625 C-167.66708141 171.53432547 -169.7397231 173.8087518 -171.8125 176.0859375 C-174.94172827 179.54873832 -177.94250349 183.08022753 -180.875 186.7109375 C-183.90467714 190.45996606 -187.03354948 194.05316617 -190.3125 197.5859375 C-198.71836586 206.75479733 -206.09241168 216.73188664 -213.5 226.7109375 C-214.31162598 227.79955078 -214.31162598 227.79955078 -215.13964844 228.91015625 C-225.22339482 242.60250742 -234.26962521 257.07690952 -243.55664062 271.31396484 C-251.03636844 282.77618208 -258.66138602 294.0253894 -267.3125 304.6484375 C-271.51947487 309.86077763 -275.656577 315.11687397 -279.72485352 320.43798828 C-282.70044445 324.3261884 -285.716827 328.1800408 -288.75 332.0234375 C-297.71727885 343.41663146 -306.53885571 354.87735078 -314.85180664 366.75927734 C-323.59093982 379.23397276 -332.70466663 391.41612651 -342.09472656 403.40698242 C-346.64858192 409.23113048 -351.12326795 415.1115001 -355.5625 421.0234375 C-356.19019287 421.85738037 -356.81788574 422.69132324 -357.46459961 423.55053711 C-362.40514392 430.14846756 -366.78000179 436.66545851 -370.375 444.0859375 C-372.96441811 449.37936047 -375.63266549 454.5492817 -378.72265625 459.57421875 C-379.73903309 461.46776837 -379.73903309 461.46776837 -378.4375 464.2734375 C-376.69047024 465.77686734 -376.69047024 465.77686734 -374.5078125 467.15625 C-373.31478516 467.94708984 -373.31478516 467.94708984 -372.09765625 468.75390625 C-371.26105469 469.29660156 -370.42445313 469.83929687 -369.5625 470.3984375 C-368.31919922 471.22408203 -368.31919922 471.22408203 -367.05078125 472.06640625 C-362.46805299 475.11372479 -362.46805299 475.11372479 -357.4375 477.2734375 C-355.20507742 476.57001252 -355.20507742 476.57001252 -352.75 475.4609375 C-345.43456844 472.71056207 -338.161238 471.92480326 -330.4375 471.2734375 C-329.38594727 471.18320313 -328.33439453 471.09296875 -327.25097656 471 C-303.3800316 469.02465762 -279.03820603 467.02073223 -255.42871094 471.90625 C-252.72245182 472.40529533 -250.01147787 472.67389574 -247.27441406 472.94433594 C-228.62277749 474.8247952 -211.34095956 482.7603239 -197.4375 495.2734375 C-196.7775 495.840625 -196.1175 496.4078125 -195.4375 496.9921875 C-172.71657404 517.88078073 -161.10285162 552.95358335 -158.1875 582.8359375 C-155.66290707 591.04086452 -147.92141454 594.14978099 -140.875 597.8984375 C-138.62870093 599.12093216 -136.38392983 600.34623824 -134.140625 601.57421875 C-132.45743164 602.49388428 -132.45743164 602.49388428 -130.74023438 603.43212891 C-124.9387777 606.66650104 -119.27891765 610.13285029 -113.63256836 613.62939453 C-112.87081299 614.09587402 -112.10905762 614.56235352 -111.32421875 615.04296875 C-110.33748169 615.65555542 -110.33748169 615.65555542 -109.33081055 616.28051758 C-107.32967792 617.32998327 -105.67779942 617.96479564 -103.4375 618.2734375 C-93.02384941 611.7464565 -84.31287533 601.61359818 -76.4375 592.2734375 C-75.79683594 591.53351563 -75.15617187 590.79359375 -74.49609375 590.03125 C-68.16225437 582.54262223 -62.64440328 574.54067747 -57.0703125 566.48046875 C-54.18905938 562.32371713 -51.22744262 558.23490639 -48.22851562 554.16259766 C-43.85354784 548.21689848 -39.72386694 542.32151793 -36.1875 535.8359375 C-31.3185356 527.01284543 -25.22477058 519.94149048 -18 512.9609375 C-13.21102066 508.31320615 -9.42053827 503.37193085 -5.78540039 497.7800293 C-2.93110485 493.50250258 -2.93110485 493.50250258 -0.53515625 492.390625 C0.15707031 492.35195312 0.84929687 492.31328125 1.5625 492.2734375 C2.51382812 492.20640625 3.46515625 492.139375 4.4453125 492.0703125 C17.3710732 491.88343403 25.74716725 494.69187563 35.5625 503.2734375 C38.49491607 506.21187084 41.23717053 509.31838561 43.9921875 512.421875 C49.89482025 519.02330151 49.89482025 519.02330151 57.4375 523.3984375 C63.60911722 523.15157281 68.78676221 521.59653624 73.75 517.8984375 C75.83604491 515.46790099 75.83604491 515.46790099 75.36987305 512.83447266 C74.47787931 510.00501566 73.5427171 508.75085071 71.45703125 506.671875 C70.48721313 505.6974646 70.48721313 505.6974646 69.49780273 504.70336914 C68.79727783 504.0252417 68.09675293 503.34711426 67.375 502.6484375 C66.65320557 501.94130615 65.93141113 501.2341748 65.18774414 500.50561523 C44.32609657 480.36215179 23.48751781 469.59819978 -5.4375 466.2734375 C-7.54330828 459.95601266 -6.51438441 453.36454436 -5.44140625 446.90234375 C-4.29553561 439.09070402 -4.12890365 431.40505235 -4.1875 423.5234375 C-4.1896048 422.81664856 -4.19170959 422.10985962 -4.19387817 421.38165283 C-4.24584655 406.37899371 -4.84969148 391.30926974 -6.98828125 376.4453125 C-7.43116468 373.3181704 -7.63804716 370.30517692 -7.6875 367.1484375 C-7.71328125 366.15585938 -7.7390625 365.16328125 -7.765625 364.140625 C-7.27345 359.83995294 -5.60353135 357.20626258 -2.25 354.5234375 C2.98466097 352.19692152 6.84477164 351.75247216 12.24609375 353.390625 C17.2019459 355.36561279 21.45252494 358.23356477 25.8125 361.2734375 C26.64370361 361.84940674 27.47490723 362.42537598 28.33129883 363.01879883 C48.75070635 377.41560046 60.77011404 395.36003618 69.79394531 418.33496094 C72.19196385 425.50193495 72.19196385 425.50193495 77.5625 430.2734375 C82.55849633 431.38886632 87.01290418 432.00319499 91.5625 429.2734375 C93.98109197 427.52277917 93.98109197 427.52277917 95.5625 425.2734375 C95.28039447 421.28121685 92.90001722 419.15076757 90.25 416.3359375 C88.67923519 414.65612786 87.1166472 412.96863335 85.5625 411.2734375 C84.78519531 410.44714844 84.00789063 409.62085938 83.20703125 408.76953125 C81.5625 406.2734375 81.5625 406.2734375 81.421875 403.94921875 C83.16537539 399.85915789 85.92751458 396.81014712 88.8125 393.4609375 C90.09561271 391.93797216 91.37815169 390.41452328 92.66015625 388.890625 C93.31258301 388.12073242 93.96500977 387.35083984 94.63720703 386.55761719 C97.55048709 383.1012834 100.40360736 379.59740735 103.25 376.0859375 C103.78367187 375.42916016 104.31734375 374.77238281 104.8671875 374.09570312 C108.85836408 369.17260146 112.78115154 364.19841554 116.68481445 359.20581055 C120.10704808 354.8348636 123.59900976 350.52613724 127.125 346.23828125 C134.74324968 336.97185256 142.29474316 327.65779422 149.68359375 318.20727539 C153.10633587 313.83591979 156.59860527 309.52662913 160.125 305.23828125 C167.38226764 296.41093167 174.59643666 287.54755375 181.6875 278.5859375 C182.13657715 278.02221436 182.5856543 277.45849121 183.04833984 276.87768555 C185.47284806 273.79748979 187.62703915 270.68263162 189.5625 267.2734375 C177.50319118 252.87241537 177.50319118 252.87241537 164.5625 239.2734375 C161.89518828 236.61955185 159.24449416 233.95120688 156.6171875 231.2578125 C149.93243124 224.43564794 143.06289725 218.20307093 135.5625 212.2734375 C134.3571455 211.28134841 133.15416725 210.28636774 131.953125 209.2890625 C108.36386955 189.74901903 82.57211238 172.88981121 56.41357422 157.00732422 C53.80391991 155.42025752 51.1995956 153.82474763 48.59690857 152.22628784 C0.23631385 122.53555975 -50.79809946 92.34027045 -109.4375 94.2734375 Z M15.5625 384.2734375 C16.25300234 388.40093463 17.55700803 392.10123975 19 396.0234375 C23.76796637 409.9349816 23.84391703 423.7856717 23.3137207 438.36450195 C23.04613201 444.950613 23.04613201 444.950613 25.33984375 450.96484375 C28.83109348 454.59108029 32.93098934 454.89268779 37.6953125 455.58203125 C48.71244026 457.49719504 57.18152418 465.33253647 65.5625 472.2734375 C66.43648437 472.97339844 67.31046875 473.67335938 68.2109375 474.39453125 C71.02348772 476.65504797 73.79918532 478.95301024 76.5625 481.2734375 C78.03589844 482.50513672 78.03589844 482.50513672 79.5390625 483.76171875 C87.57166524 490.67409765 93.70545601 498.47102156 99.5625 507.2734375 C100.15973877 508.16240723 100.15973877 508.16240723 100.76904297 509.06933594 C114.28064524 529.47553778 121.1371543 553.18188791 128.5625 576.2734375 C143.03132421 576.82211482 150.65878297 573.52223425 162.68945312 566.11352539 C164.55362281 564.96640012 166.42459544 563.83109494 168.296875 562.69726562 C180.56138835 555.32446583 180.56138835 555.32446583 190.9375 545.5859375 C191.58460938 544.83957031 192.23171875 544.09320312 192.8984375 543.32421875 C195.80367183 539.74382432 196.8104278 537.86010175 196.5625 533.2734375 C192.20600758 532.04278992 189.11939923 532.61644505 184.75 533.6484375 C176.72181769 535.4024692 168.77736721 536.0509631 160.5625 536.2734375 C159.77246582 536.29535156 158.98243164 536.31726562 158.16845703 536.33984375 C155.71638121 536.39784673 153.26510618 536.43441078 150.8125 536.4609375 C150.0496167 536.47406982 149.2867334 536.48720215 148.50073242 536.50073242 C144.65549963 536.50634969 141.77752053 536.45849065 138.5625 534.2734375 C136.10976793 527.9883148 138.19699178 522.15813378 140.75390625 516.3125 C141.09622787 515.48245453 141.4385495 514.65240906 141.79124451 513.79721069 C142.8837837 511.15600674 144.0025067 508.52703346 145.125 505.8984375 C146.57488103 502.45767988 148.0128255 499.01215422 149.44140625 495.5625 C149.79360229 494.71269562 150.14579834 493.86289124 150.50866699 492.98733521 C162.21928481 464.29114769 168.76218024 428.74974448 159.5625 398.2734375 C157.94215221 394.69938913 156.56217393 391.84458659 153.5625 389.2734375 C150.41935552 389.94009259 150.41935552 389.94009259 149.38671875 392.4609375 C149.01160156 393.3890625 148.63648438 394.3171875 148.25 395.2734375 C141.5846123 410.61566125 129.5039062 423.76654239 118.5625 436.2734375 C117.97082031 436.96308594 117.37914062 437.65273437 116.76953125 438.36328125 C107.52111725 448.4337765 92.72939183 455.9813871 79.0625 457.0234375 C72.26717506 456.65095302 64.80803869 453.64778077 59.5625 449.2734375 C52.91468459 441.7615027 49.64788663 431.59926896 45.89331055 422.43164062 C40.35931349 408.98719954 33.41211616 395.31057932 21.5625 386.2734375 C18.41240406 385.02439674 18.41240406 385.02439674 15.5625 384.2734375 Z M-339.4375 508.2734375 C-341.12464544 508.94490199 -342.81218596 509.61537415 -344.5 510.28515625 C-346.37620943 511.04911981 -348.25120184 511.81607868 -350.125 512.5859375 C-351.00502686 512.94059082 -351.88505371 513.29524414 -352.79174805 513.66064453 C-372.24907484 521.91659936 -384.72323699 540.61887378 -392.65551758 559.53881836 C-408.68535346 600.07416631 -405.40769976 647.50548195 -388.31201172 687.33007812 C-382.96298103 699.21681299 -376.35912825 709.94385317 -368.4375 720.2734375 C-367.92832031 720.96824219 -367.41914062 721.66304687 -366.89453125 722.37890625 C-357.71262186 734.14575201 -342.27962542 742.38678309 -327.69140625 744.7109375 C-299.57468094 748.01473876 -269.16000851 731.71872643 -247.4375 715.2734375 C-246.60734375 714.665 -245.7771875 714.0565625 -244.921875 713.4296875 C-214.8977283 690.57259518 -195.95651435 657.36275771 -190.4375 620.2734375 C-186.70022454 589.75840196 -192.55414687 556.07774151 -211.4375 531.2109375 C-220.39953806 519.89504349 -230.34558067 513.55909018 -244 509.2109375 C-245.47436523 508.72270508 -245.47436523 508.72270508 -246.97851562 508.22460938 C-250.12030538 507.20033318 -253.27452543 506.23021917 -256.4375 505.2734375 C-257.61820068 504.90355713 -258.79890137 504.53367676 -260.01538086 504.15258789 C-269.11210371 501.47834048 -277.41785331 500.674935 -286.875 500.8359375 C-287.56049927 500.8424231 -288.24599854 500.84890869 -288.95227051 500.85559082 C-305.86835713 501.01893204 -323.68340404 501.57408542 -339.4375 508.2734375 Z M-89.4375 653.2734375 C-91.31639627 655.15233377 -90.58074936 657.85969619 -90.592453 660.35934448 C-90.58901382 661.2204483 -90.58557465 662.08155212 -90.58203125 662.96875 C-90.57967972 663.86328888 -90.57732819 664.75782776 -90.5749054 665.67947388 C-90.49632444 675.86248211 -89.85172776 685.99438077 -89.125 696.1484375 C-89.05847229 697.11045074 -88.99194458 698.07246399 -88.92340088 699.06362915 C-88.12297712 710.58817596 -87.19475011 722.03985349 -85.42480469 733.46313477 C-84.59190362 738.84200988 -84.12718398 744.14944424 -83.875 749.5859375 C-83.23362977 762.35304133 -83.23362977 762.35304133 -75.74536133 772.25073242 C-72.11493301 775.43258989 -68.19739779 777.92548511 -64.0625 780.3984375 C-63.16184814 780.94701416 -62.26119629 781.49559082 -61.33325195 782.06079102 C-53.15088652 786.97968174 -44.75835953 791.48988097 -36.32495117 795.96020508 C-28.73275847 799.99462514 -21.27941007 804.21724681 -13.875 808.5859375 C-3.39862146 814.74439039 -3.39862146 814.74439039 7.1875 820.7109375 C7.85595947 821.09483643 8.52441895 821.47873535 9.21313477 821.87426758 C13.39514666 824.13368939 15.9774466 824.57841424 20.5625 823.2734375 C20.90516003 820.18251716 20.90516003 820.18251716 18.69140625 818.28515625 C17.84449219 817.51816406 16.99757813 816.75117187 16.125 815.9609375 C4.08383676 804.13839873 -2.83522538 788.30454972 -10.64082336 773.54299927 C-13.56874338 768.01107989 -16.55519419 762.51250053 -19.5625 757.0234375 C-22.60098808 751.47745925 -25.62884471 745.92686358 -28.61328125 740.3515625 C-38.72176591 721.48644161 -48.81555825 702.86546733 -62.078125 686.00488281 C-64.14772108 683.36882401 -66.16888738 680.69879053 -68.1875 678.0234375 C-68.90292969 677.07597656 -69.61835937 676.12851563 -70.35546875 675.15234375 C-72.52291769 672.15532712 -74.51055062 669.07838536 -76.5 665.9609375 C-79.82957106 660.8729785 -83.46135588 656.7976892 -88.4375 653.2734375 C-88.7675 653.2734375 -89.0975 653.2734375 -89.4375 653.2734375 Z " fill="#E4192E" transform="translate(921.4375,801.7265625)"/>
<path d="M0 0 C0.78064819 0.00027191 1.56129639 0.00054382 2.36560059 0.00082397 C15.46450149 0.02168635 28.4362037 0.46567029 41.4375 2.1875 C42.53215576 2.33227783 42.53215576 2.33227783 43.64892578 2.47998047 C72.58815643 6.56812509 99.11922648 20.20957026 117.4375 43.1875 C120.42144802 47.37145584 122.99053943 51.67042084 125.4375 56.1875 C125.77378418 56.80157715 126.11006836 57.4156543 126.45654297 58.04833984 C147.85223321 97.81477774 146.92897991 149.80821364 134.4375 192.1875 C127.36190644 214.9304793 113.71281349 243.67062434 93.4375 257.1875 C94.70992652 259.84898909 96.09350662 262.25983827 97.80078125 264.6640625 C98.26863037 265.325271 98.73647949 265.98647949 99.21850586 266.66772461 C99.72389893 267.37550049 100.22929199 268.08327637 100.75 268.8125 C101.28052979 269.55959229 101.81105957 270.30668457 102.35766602 271.07641602 C108.33667421 279.481028 114.38482014 287.83587942 120.4375 296.1875 C128.85201943 307.79803868 137.19460288 319.45436717 145.4375 331.1875 C138.09482808 339.90947572 130.10347781 347.78590256 121.4375 355.1875 C120.2881518 356.1877566 119.1398078 357.18916765 117.9921875 358.19140625 C106.59800858 368.13315645 94.93433181 377.68481897 82.99560547 386.96435547 C81.62034508 388.04396288 80.26371391 389.14721073 78.91015625 390.25390625 C78.21792969 390.80949219 77.52570313 391.36507813 76.8125 391.9375 C76.24273438 392.40671875 75.67296875 392.8759375 75.0859375 393.359375 C73.4375 394.1875 73.4375 394.1875 71.5 394.1328125 C68.53486639 392.77379293 67.11656598 390.84327754 65.0625 388.3125 C64.42393066 387.52661499 64.42393066 387.52661499 63.77246094 386.72485352 C58.02679661 379.56114943 52.65981406 372.10204734 47.25634766 364.6796875 C44.89346135 361.44205751 42.51091365 358.21918808 40.12792969 354.99633789 C34.4843849 347.36183224 28.89616015 339.68976947 23.3515625 331.9831543 C18.65687299 325.46697691 13.89368898 319.00240127 9.10546875 312.5546875 C8.55375 311.80960938 8.00203125 311.06453125 7.43359375 310.296875 C6.90556152 309.59643066 6.3775293 308.89598633 5.83349609 308.17431641 C4.4375 306.1875 4.4375 306.1875 2.62890625 302.6328125 C0.75093463 300.03622075 0.75093463 300.03622075 -1.54907227 299.8203125 C-4.09045831 299.8203125 -6.53740937 300.02692427 -9.0625 300.3125 C-10.76010627 300.46444624 -12.45803373 300.61284282 -14.15625 300.7578125 C-15.01605469 300.83676758 -15.87585937 300.91572266 -16.76171875 300.99707031 C-21.69195438 301.33228508 -26.62374368 301.25484668 -31.5625 301.1875 C-31.55464478 302.0547168 -31.55464478 302.0547168 -31.54663086 302.93945312 C-31.38322479 324.3684015 -31.95926085 345.76930135 -32.5625 367.1875 C-68.07822716 375.02136313 -104.29451609 377.24107621 -140.5625 378.1875 C-141.33679805 366.31946044 -141.82463143 354.46773976 -142.09765625 342.578125 C-142.11886662 341.67865269 -142.14007698 340.77918037 -142.16193008 339.85245132 C-142.32896663 332.71438718 -142.47965196 325.57603543 -142.625 318.4375 C-142.64721745 317.35918159 -142.66943489 316.28086319 -142.69232559 315.16986847 C-143.65013212 268.20821289 -143.75668545 221.24985718 -143.7501502 174.28012657 C-143.75000102 171.58102258 -143.75047097 168.88191945 -143.75117874 166.18281555 C-143.76022213 131.25773379 -143.75558053 96.3343297 -143.11328125 61.4140625 C-143.09398245 60.33654095 -143.07468365 59.25901939 -143.05480003 58.14884567 C-142.81344878 45.14370145 -142.33769807 32.17193424 -141.5625 19.1875 C-135.06096946 16.01093919 -128.93351653 14.13154941 -121.8125 12.875 C-120.70777344 12.67479248 -119.60304688 12.47458496 -118.46484375 12.26831055 C-79.54234348 5.53114101 -39.55814213 -0.05234797 0 0 Z M-32.5625 107.1875 C-32.72435204 129.92148678 -32.44466547 152.64476204 -32.0625 175.375 C-32.05054218 176.08642403 -32.03858437 176.79784805 -32.02626419 177.53083038 C-31.87646793 186.41647152 -31.72174872 195.30202298 -31.5625 204.1875 C-25.51819524 204.25498534 -20.10775648 203.77914308 -14.1875 202.5625 C-12.8890918 202.29626831 -12.8890918 202.29626831 -11.56445312 202.0246582 C5.8829322 198.28071363 24.02700843 192.84524609 35.4375 178.1875 C43.7417289 164.27704061 44.88586373 147.78564095 41.75390625 131.8984375 C39.01282314 122.36720247 33.85606019 113.69944151 25.4375 108.1875 C16.89079813 103.95563791 7.97694168 103.97904111 -1.375 103.9375 C-2.49326172 103.916875 -3.61152344 103.89625 -4.76367188 103.875 C-14.29684795 103.83174112 -23.25520689 105.31602064 -32.5625 107.1875 Z " fill="#E4192E" transform="translate(1162.5625,349.8125)"/>
<path d="M0 0 C1.16730148 0.00131424 1.16730148 0.00131424 2.35818481 0.00265503 C29.96788691 0.10445266 55.18359655 6.04591013 79.4375 19.375 C80.48035156 19.92800781 81.52320313 20.48101562 82.59765625 21.05078125 C111.53674719 37.02637954 134.13534941 62.51183699 143.4375 94.375 C160.68260779 155.07934833 153.53260737 229.76651771 123.36791992 285.2434082 C99.74801759 327.0297857 59.43912948 354.1281606 14.4375 368.375 C13.71304688 368.60670898 12.98859375 368.83841797 12.2421875 369.07714844 C2.61462087 372.10130567 -7.15089268 374.1917593 -17.0625 376.0625 C-18.12927979 376.26504395 -19.19605957 376.46758789 -20.29516602 376.67626953 C-36.87425057 379.67563918 -53.12601007 380.72516293 -69.96435547 380.69067383 C-73.16278571 380.68752434 -76.36027753 380.7110382 -79.55859375 380.73632812 C-97.12687555 380.79008004 -114.43319571 379.41555091 -131.5625 375.375 C-132.43244878 371.54502544 -132.76785427 367.87445261 -132.93554688 363.95288086 C-132.99230591 362.66800278 -133.04906494 361.38312469 -133.10754395 360.05931091 C-133.1656021 358.6528283 -133.22349925 357.24633902 -133.28125 355.83984375 C-133.34442105 354.36380395 -133.40786258 352.8877757 -133.47155762 351.41175842 C-133.60509655 348.29730974 -133.73592431 345.18276252 -133.86474609 342.06811523 C-134.0250034 338.19630264 -134.19079029 334.32475527 -134.3587265 330.453269 C-134.49127173 327.38514397 -134.62099735 324.31690382 -134.75001526 321.24862862 C-134.80988848 319.8297793 -134.87040153 318.41095674 -134.93174744 316.99217033 C-136.1789864 287.97329728 -136.72499853 258.96156682 -136.72975707 229.91799641 C-136.73048584 227.39393473 -136.73265299 224.86987798 -136.73525429 222.34581757 C-136.7444227 213.40843884 -136.74860118 204.47107468 -136.74780273 195.53369141 C-136.74727371 188.31133784 -136.7542567 181.0890389 -136.76831055 173.86669922 C-136.83753166 137.47576158 -136.78558013 101.10966576 -135.61328125 64.734375 C-135.59157293 64.05332608 -135.56986461 63.37227716 -135.54749846 62.6705904 C-135.40490409 58.22241376 -135.25156338 53.77471282 -135.09106445 49.32714844 C-135.05306292 48.2382708 -135.01506138 47.14939316 -134.97590828 46.02751923 C-134.51194915 34.05787972 -134.51194915 34.05787972 -133.5625 28.375 C-131.06562797 26.33868408 -129.5012162 25.37311584 -126.625 24.1875 C-125.90481689 23.86346191 -125.18463379 23.53942383 -124.44262695 23.20556641 C-122.1672579 22.20940203 -119.87458685 21.28236827 -117.5625 20.375 C-116.87446289 20.10059082 -116.18642578 19.82618164 -115.47753906 19.54345703 C-95.50678943 11.7845185 -74.0055112 8.45049275 -52.9375 5.125 C-52.14742554 5.00012207 -51.35735107 4.87524414 -50.54333496 4.74658203 C-45.22239848 3.91233807 -39.89625094 3.1228876 -34.5625 2.375 C-33.8465567 2.27394958 -33.1306134 2.17289917 -32.39297485 2.06878662 C-21.580338 0.57525274 -10.91237338 -0.03041951 0 0 Z M-37.5625 117.375 C-38.78261504 119.81523009 -38.68830217 121.37776448 -38.68948364 124.10578918 C-38.69230347 125.10471695 -38.69512329 126.10364471 -38.69802856 127.13284302 C-38.69600433 128.23345062 -38.6939801 129.33405823 -38.69189453 130.46801758 C-38.69364685 131.62451309 -38.69539917 132.78100861 -38.69720459 133.97254944 C-38.70162786 137.82155838 -38.69867981 141.67052178 -38.6953125 145.51953125 C-38.69598627 148.2016353 -38.69695567 150.88373797 -38.69821167 153.56584167 C-38.70003468 159.20934542 -38.6976286 164.85283612 -38.69287109 170.49633789 C-38.68747825 176.96705277 -38.68915386 183.4377359 -38.6946975 189.90844995 C-38.69928532 195.49178992 -38.6998504 201.0751205 -38.69725883 206.65846175 C-38.69572033 209.97961523 -38.69584069 213.30074239 -38.69879532 216.62189674 C-38.70939011 231.90475961 -38.47338887 247.1174492 -37.5625 262.375 C-14.56164964 263.24414618 9.19442212 257.34995592 26.8125 241.9375 C28.37419917 240.43724474 29.91684811 238.91684564 31.4375 237.375 C32.15679687 236.66601562 32.87609375 235.95703125 33.6171875 235.2265625 C48.18909718 219.99479276 50.96603036 197.25602829 50.6484375 176.9453125 C50.03404884 159.11287132 44.93277001 139.33865007 31.8125 126.625 C14.3102512 112.30497825 -16.48735107 112.11433108 -37.5625 117.375 Z " fill="#E4192E" transform="translate(474.5625,345.625)"/>
<path d="M0 0 C20.15525754 52.11928983 38.12105488 105.10309609 55.99932861 158.03765869 C56.98939356 160.9686012 57.98077196 163.89909735 58.97216797 166.82958984 C75.55699663 215.89843681 90.94371454 265.35415241 106.11474609 314.87597656 C107.4157485 319.11867621 108.73985104 323.35341257 110.07666016 327.58496094 C110.73470449 329.68945188 111.392745 331.79394403 112.05078125 333.8984375 C112.36299118 334.87269684 112.67520111 335.84695618 112.99687195 336.85073853 C113.27545547 337.74739227 113.554039 338.64404602 113.84106445 339.56787109 C114.08983841 340.35422943 114.33861237 341.14058777 114.59492493 341.95077515 C115 344 115 344 114 347 C111.27857999 348.43248708 108.64948162 349.65159758 105.8125 350.8125 C104.95519287 351.1643335 104.09788574 351.51616699 103.21459961 351.87866211 C71.06635774 364.67689028 35.04998774 368.54107303 1 373 C-4.445 353.695 -4.445 353.695 -10 334 C-16.18956343 334 -22.0884477 334.05743552 -28.20361328 334.64257812 C-28.95609848 334.71085312 -29.70858368 334.77912811 -30.48387146 334.84947205 C-32.9297664 335.07245103 -35.37501881 335.30177976 -37.8203125 335.53125 C-39.53234281 335.68858763 -41.24441016 335.84552278 -42.95651245 336.0020752 C-47.43169175 336.41235716 -51.90635149 336.828055 -56.38092041 337.24493408 C-60.95937131 337.6705073 -65.53829892 338.09088561 -70.1171875 338.51171875 C-79.07859552 339.33610051 -88.03946258 340.16621224 -97 341 C-97.20157715 341.92748047 -97.4031543 342.85496094 -97.61083984 343.81054688 C-98.3665291 347.28472082 -99.12332941 350.75864901 -99.88085938 354.23242188 C-100.20714445 355.72972217 -100.53299937 357.22711628 -100.85839844 358.72460938 C-101.32891815 360.88957738 -101.8010359 363.05419194 -102.2734375 365.21875 C-102.41623138 365.87742065 -102.55902527 366.53609131 -102.70614624 367.21472168 C-103.12837085 369.14515169 -103.5641568 371.07259907 -104 373 C-104.14753723 373.73549072 -104.29507446 374.47098145 -104.44708252 375.22875977 C-104.86700752 377.17617211 -105.42425746 379.09283657 -106 381 C-136.08425554 391.02808518 -187.50657353 385.3034357 -217 374 C-196.38530178 290.31537439 -174.46900944 206.92726437 -119 11 C-80.10758995 2.15134498 -39.96811818 -4.36006712 0 0 Z M-58 172 C-62.04232651 185.77068052 -65.75938988 199.59069685 -69.15234375 213.53564453 C-69.88854185 216.55554904 -70.63543075 219.57268981 -71.3828125 222.58984375 C-71.85740735 224.52849012 -72.33138986 226.46728652 -72.8046875 228.40625 C-73.02647675 229.2988855 -73.24826599 230.191521 -73.47677612 231.11120605 C-74.44926966 235.14316574 -75.30199553 238.81720073 -75 243 C-66.70114326 243.26153386 -58.61305997 242.44173497 -50.375 241.5 C-49.08464844 241.35691406 -47.79429687 241.21382812 -46.46484375 241.06640625 C-43.30931947 240.71579244 -40.15444013 240.36021548 -37 240 C-38.25172264 233.04050364 -39.97724885 226.37250212 -42.1171875 219.63671875 C-42.41561554 218.68287796 -42.71404358 217.72903717 -43.02151489 216.74629211 C-43.9678709 213.72516132 -44.92123649 210.70629943 -45.875 207.6875 C-46.5069902 205.67528083 -47.13850438 203.6629121 -47.76953125 201.65039062 C-48.97417027 197.80973052 -50.18107502 193.96979476 -51.38964844 190.13037109 C-53.28712405 184.09526333 -55.15320411 178.05081951 -57 172 C-57.33 172 -57.66 172 -58 172 Z " fill="#E4192E" transform="translate(856,348)"/>
<path d="M0 0 C0.02338141 10.58954998 0.04104446 21.17909362 0.05181217 31.76866436 C0.05698543 36.68815219 0.06397936 41.60762209 0.07543945 46.52709961 C0.08646931 51.29283125 0.09231841 56.05854588 0.09487724 60.82428932 C0.09669592 62.62393269 0.10024499 64.42357536 0.10573006 66.22321129 C0.13422322 75.97806508 0.01468246 85.71642135 -0.38110352 95.46411133 C-0.42681818 96.7854144 -0.42681818 96.7854144 -0.47345638 98.13341045 C-0.67497843 102.48437838 -0.99891895 106.03662014 -3 110 C-21.79999302 112.7429061 -40.58191273 115.02267793 -59.49291992 116.86523438 C-62.84270302 117.1919818 -66.19180351 117.52449197 -69.54067898 117.86034012 C-72.79633013 118.18618423 -76.05246636 118.50708013 -79.30859375 118.828125 C-81.09432045 119.00616669 -81.09432045 119.00616669 -82.91612244 119.18780518 C-84.02331131 119.29501892 -85.13050018 119.40223267 -86.27124023 119.51269531 C-87.71889015 119.65448212 -87.71889015 119.65448212 -89.19578552 119.7991333 C-92.14007532 120.01003364 -95.04913612 120.01311472 -98 120 C-97.92931368 120.85955323 -97.85862736 121.71910646 -97.78579903 122.60470676 C-96.99171347 133.16313338 -96.85766386 143.65919754 -96.87060547 154.24389648 C-96.86924688 156.13192274 -96.86746439 158.01994874 -96.86529541 159.90797424 C-96.86076767 165.00052511 -96.86249344 170.09305553 -96.8656745 175.18560672 C-96.86823162 180.56938142 -96.86585046 185.95315454 -96.86428833 191.33692932 C-96.86247243 200.40097359 -96.86485364 209.4650097 -96.86962891 218.52905273 C-96.87502926 228.89696017 -96.87333759 239.26484781 -96.8678025 249.63275474 C-96.86320509 258.61450154 -96.86265383 267.59624251 -96.86524117 276.57799011 C-96.86677342 281.90549132 -96.86708529 287.23298337 -96.86370468 292.56048393 C-96.84894171 319.38929808 -97.17937844 346.18320663 -98 373 C-100.56038276 373.48513604 -103.12100374 373.96894939 -105.68177795 374.45201111 C-106.40224131 374.58866354 -107.12270467 374.72531596 -107.86500025 374.86610937 C-113.03823451 375.84050628 -118.20788284 376.6746976 -123.43359375 377.31640625 C-124.23102997 377.41789978 -125.02846619 377.51939331 -125.85006714 377.6239624 C-128.37846787 377.9431768 -130.90777106 378.25399941 -133.4375 378.5625 C-134.31328705 378.67016693 -135.1890741 378.77783386 -136.09140015 378.88876343 C-196.23756697 386.25414434 -196.23756697 386.25414434 -209 382 C-209.76966589 324.31805832 -210.11095072 266.64095658 -210.12283063 208.95439237 C-210.1241216 203.09535557 -210.12788406 197.23632379 -210.13256836 191.37728882 C-210.13869395 183.41014321 -210.13867029 175.44301467 -210.13431931 167.47586823 C-210.13284361 164.50756627 -210.13354968 161.53927736 -210.13615799 158.57097626 C-210.13955455 154.4957867 -210.13492727 150.4206462 -210.12939453 146.34545898 C-210.13142128 145.14374904 -210.13344803 143.94203909 -210.13553619 142.70391369 C-210.13271385 141.60770356 -210.12989151 140.51149343 -210.12698364 139.38206482 C-210.1264181 137.95832377 -210.1264181 137.95832377 -210.12584114 136.50582027 C-210.00955496 134.19026379 -209.65558972 132.21648779 -209 130 C-209.66 130.33 -210.32 130.66 -211 131 C-213.60595823 131.29798905 -216.19770995 131.54497728 -218.81103516 131.75610352 C-219.61777679 131.82452454 -220.42451843 131.89294556 -221.25570679 131.96343994 C-223.93316392 132.1893879 -226.61107895 132.40929219 -229.2890625 132.62890625 C-231.15036198 132.78415262 -233.01163897 132.9396688 -234.87289429 133.09544373 C-238.78174804 133.42165881 -242.69082917 133.74495632 -246.60009766 134.06616211 C-251.59711709 134.47692323 -256.59355972 134.89426477 -261.58985329 135.31375217 C-265.43822024 135.63621699 -269.28685124 135.95543489 -273.13557053 136.27366447 C-274.97673602 136.426234 -276.81782481 136.57973235 -278.65883255 136.7341938 C-281.24316536 136.95046964 -283.82781779 137.16243418 -286.41259766 137.37329102 C-287.1661554 137.43717514 -287.91971313 137.50105927 -288.69610596 137.56687927 C-293.47996911 137.95134318 -298.20046959 138.05428204 -303 138 C-304.98635938 120.1148877 -305.28115655 102.36341735 -305.19561768 84.39666748 C-305.18477113 81.52836886 -305.18519614 78.66011702 -305.18562126 75.79180145 C-305.18519019 63.39352154 -305.17964871 50.99478684 -304.55078125 38.609375 C-304.4930378 37.46060883 -304.4930378 37.46060883 -304.43412781 36.28863525 C-304.13256836 31.26513671 -304.13256836 31.26513671 -303 29 C-300.33015327 28.43237254 -297.73780694 28.0188766 -295.03515625 27.66796875 C-294.12459976 27.54431442 -293.21404327 27.4206601 -292.27589417 27.29325867 C-275.03260018 25.016865 -257.72619567 23.20357447 -240.4375 21.3125 C-239.44686176 21.20386124 -238.45622353 21.09522247 -237.43556595 20.98329163 C-169.38789943 13.52128981 -101.25374159 7.24095639 -33 2 C-31.69363586 1.89909058 -30.38727173 1.79818115 -29.0413208 1.69421387 C-25.28947585 1.40528104 -21.5373823 1.11987387 -17.78515625 0.8359375 C-16.67587265 0.75058746 -15.56658905 0.66523743 -14.4236908 0.57730103 C-13.39836746 0.50071259 -12.37304413 0.42412415 -11.31665039 0.34521484 C-9.98628502 0.24459244 -9.98628502 0.24459244 -8.62904358 0.14193726 C-5.74825826 -0.01359108 -2.88442541 -0.02332869 0 0 Z " fill="#E4192E" transform="translate(1662,336)"/>
<path d="M0 0 C2.3828125 1.703125 2.3828125 1.703125 4.375 3.375 C6.37734137 5.04648239 7.45492732 5.93057059 10.0546875 6.26171875 C12.45841863 6.04358657 14.65895695 5.59076478 17 5 C17.98742188 4.76152344 18.97484375 4.52304688 19.9921875 4.27734375 C22.00263993 3.77849084 24.00851054 3.26056625 26.0078125 2.71875 C42.15673059 -1.16036348 62.10897257 -0.52140199 76.5625 8.2109375 C83.74142806 13.48008662 88.96166051 20.22977614 91 29 C91.36751002 34.50608763 90.42395524 39.17944905 89 44.4375 C88.80921875 45.16904297 88.6184375 45.90058594 88.421875 46.65429688 C87.95549597 48.43819666 87.47881722 50.21939845 87 52 C88.22074219 51.97679687 89.44148438 51.95359375 90.69921875 51.9296875 C106.99046162 51.71061211 123.87222236 51.9688895 136.9921875 62.94921875 C143.6894539 69.78981186 146.95426873 77.94124041 147.25 87.4375 C146.95662107 96.97231509 143.80958638 103.84088025 139 112 C138.20696854 113.39505839 137.41507292 114.79076395 136.625 116.1875 C135.820625 117.5796875 135.820625 117.5796875 135 119 C135.72445313 119.37511719 136.44890625 119.75023437 137.1953125 120.13671875 C147.5135904 125.59852719 154.44546175 130.85975879 158.8203125 142.109375 C162.15008358 153.83392104 159.26977707 166.06066536 153.875 176.6875 C147.91620645 187.0778333 137.63105177 199.81282136 126 204 C122.35047793 204.79579856 118.69282479 205.44147668 115 206 C115.2165625 206.98097656 115.433125 207.96195313 115.65625 208.97265625 C119.98122275 229.47718029 118.70883061 252.24694641 107.40625 270.5859375 C101.71587711 278.37140222 94.63168708 284.18555345 85 286 C76.2325221 286.83389486 69.42394476 285.9492965 62 281 C56.63222505 280.26250118 53.44486739 282.18432051 49.125 285.0625 C43.78081971 288.43928777 38.41731595 291.39861991 32.625 293.9375 C31.99609863 294.21924072 31.36719727 294.50098145 30.71923828 294.79125977 C22.56088247 298.27962341 14.52201367 299.41237662 5.6875 299.4375 C4.77121826 299.44064209 3.85493652 299.44378418 2.91088867 299.44702148 C-4.68492028 299.31343191 -10.35091939 297.80482099 -17 294 C-19.48557305 292.75721348 -21.20887411 292.85833847 -23.98828125 292.82421875 C-40.22038281 292.48904261 -54.64897563 291.92647064 -67 280.08203125 C-72.67513588 273.96943698 -75.75120836 267.96637579 -75.48046875 259.49609375 C-74.3752962 253.75458759 -70.38230206 250.20200179 -66.125 246.5 C-61.868341 244.45680368 -59.7002979 244.32852887 -55 245 C-50.92961746 247.81050223 -49.42097423 251.21480475 -47.375 255.5625 C-45.05224961 260.02194067 -43.29735648 261.86967017 -38.5625 263.625 C-35.86597068 264.4592113 -35.86597068 264.4592113 -33 265 C-31.45505859 265.32484375 -31.45505859 265.32484375 -29.87890625 265.65625 C-23.61633644 266.21124108 -17.49545494 265.25621427 -11.2734375 264.49609375 C-3.73944021 263.70149247 -3.73944021 263.70149247 -0.0390625 265.1953125 C2 267 2 267 3.9140625 269.265625 C5.9213355 271.3412107 5.9213355 271.3412107 8.8984375 270.796875 C10.04570313 270.45140625 11.19296875 270.1059375 12.375 269.75 C13.01276367 269.55817139 13.65052734 269.36634277 14.30761719 269.16870117 C16.54906288 268.4759626 18.77322356 267.73848564 21 267 C21.88268555 266.72043457 22.76537109 266.44086914 23.67480469 266.15283203 C34.53700753 262.68709279 43.34886128 259.50004725 51.8359375 251.75390625 C54.02387294 249.98065171 55.22546806 249.24148258 58 248.9375 C62.93603265 249.50509308 66.5962596 253.18642517 70.38671875 256.1328125 C73.91661524 258.6549209 75.68588717 259.43141128 80 259 C84.47360157 255.33276862 86.33399915 251.64915287 88.25 246.375 C88.50523437 245.70726562 88.76046875 245.03953125 89.0234375 244.3515625 C91.30368777 238.35090391 92.08383898 233.73724663 91.921875 227.3515625 C91.89461454 225.60678945 91.86861207 223.86199637 91.84375 222.1171875 C91.80052174 219.36924549 91.7499302 216.62234387 91.67773438 213.875 C91.61100786 211.22119114 91.57632459 208.56851308 91.546875 205.9140625 C91.50345978 204.6872728 91.50345978 204.6872728 91.45916748 203.43569946 C91.43922653 199.17273748 91.59183922 197.52182691 94.30566406 194.05224609 C96.95635182 192.03324634 99.6271532 190.69203535 102.62890625 189.2734375 C116.0709961 182.0541273 125.40707935 171.10214992 131 157 C132.33790204 153.27572709 132.33790204 153.27572709 131 150 C125.17999304 144.27052648 117.20465481 140.94721104 109.90625 137.48046875 C107 136 107 136 105 134 C104.66077718 130.99545506 104.42525911 128.89669406 105 126 C107.3125 123.625 107.3125 123.625 110 122 C110.99 121.34 111.98 120.68 113 120 C113.17377293 118.09660442 113.17377293 118.09660442 112.875 115.875 C112.68168846 110.75224426 113.86385114 106.71614654 115.5 101.9375 C117.49899158 96.07296788 118.55420923 91.20714336 118 85 C116.81679424 84.36690809 115.62812152 83.74403282 114.4375 83.125 C113.77621094 82.77695313 113.11492187 82.42890625 112.43359375 82.0703125 C106.83832539 79.60947216 101.90459913 78.77101192 95.81640625 79.015625 C94.46292049 79.05065292 93.10940295 79.08446995 91.75585938 79.1171875 C89.65752269 79.17898262 87.56083402 79.25007364 85.46362305 79.34277344 C72.24360522 79.8944469 72.24360522 79.8944469 67.234375 76.0859375 C66.15432984 75.05930795 65.07597999 74.03088934 64 73 C62.3603125 72.195625 62.3603125 72.195625 60.6875 71.375 C57.71972966 69.85660587 56.70742214 68.82267476 55 66 C53.79300161 57.87547317 55.51222405 49.38067363 58.125 41.6875 C59.01436017 38.95589378 59.16770187 36.85093177 59 34 C47.72395623 27.96862775 35.20770649 29.16517343 23.0390625 32.01171875 C19.64376887 33.1158438 17.58764964 34.53375754 14.8984375 36.79296875 C8.70772068 40.72904179 -0.79331014 41.90083623 -8 41 C-11 39.6875 -11 39.6875 -13 37 C-13.41033322 33.29634303 -13.28782332 29.70972278 -13 26 C-18.95516161 22.65929959 -23.91127823 21.26718314 -30.625 22.875 C-40.16134958 26.0392682 -48.40388269 33.34326752 -56.09765625 39.58984375 C-59.88510255 42.39737581 -63.0186305 43.56137909 -67.8359375 43.453125 C-71.9561223 42.59041483 -75.10399228 39.96398912 -78 37 C-79.70586844 34.21845656 -80 33.10684412 -80 29.75 C-76.60839651 17.03148692 -62.86692805 8.00305582 -52.15625 1.69140625 C-35.80499388 -7.0710862 -16.90042451 -8.17626522 0 0 Z " fill="#E4192E" transform="translate(1318,1056)"/>
<path d="M0 0 C16.33224796 13.34364138 29.02806111 30.61845979 31.49609375 52.03125 C32.77685086 65.40505055 30.84738759 78.03359988 22.47265625 89 C16.47707057 95.54576883 8.49864263 99.7285492 -0.421875 100.19140625 C-7.75159993 99.6472297 -14.42216461 96.81455663 -19.3671875 91.33203125 C-27.52530165 79.6803706 -29.76409327 68.98985321 -29 55 C-27.96796407 49.4822646 -25.54394024 45.38153692 -21 42 C-17.12559532 41.44651362 -14.21955988 41.70031437 -11 44 C-9.17402821 47.02531858 -8.64420075 49.70954811 -8.1875 53.1875 C-7.35728556 58.2227843 -5.71728597 61.91717012 -3.0234375 66.22265625 C-2 68 -2 68 -2 70 C-0.03718842 69.84776911 -0.03718842 69.84776911 2 69 C5.2619661 63.06487034 5.6819987 56.44592048 4 50 C-1.11243858 33.82889598 -12.42441931 22.66942085 -27.1328125 14.80078125 C-36.51689531 10.16181178 -48.59337177 6.86445726 -58.75 10.25 C-62.93004087 12.50079124 -65.21886678 14.27328445 -67.1875 18.625 C-73.14690071 43.37943372 -59.99402587 70.30483967 -47.38427734 91.09375 C-40.01173129 102.98587547 -32.1627734 114.1695951 -22.51953125 124.328125 C-20.43163771 126.54226327 -18.45344433 128.79392085 -16.5 131.125 C0.660005 150.70190712 24.19663663 164.30946131 48.50219727 172.86987305 C65.60228046 178.90342068 65.60228046 178.90342068 69 184 C69.78434922 188.87122145 69.67650274 192.79195939 67.25 197.125 C58.79713002 202.00165576 48.5150599 198.51443313 39.62646484 196.18847656 C18.34687993 190.33112676 -1.66924082 180.76533044 -19 167 C-19.52964355 166.58314941 -20.05928711 166.16629883 -20.60498047 165.73681641 C-34.73988453 154.5000607 -47.44124597 141.65343425 -58 127 C-58.69657715 126.04528809 -58.69657715 126.04528809 -59.40722656 125.07128906 C-80.50775013 95.83871788 -100.83197219 56.99935624 -95.69091797 19.76123047 C-93.6636191 8.24731214 -89.55685749 -1.95065348 -80.265625 -9.46875 C-55.40082542 -26.27392489 -22.15992139 -17.01670356 0 0 Z " fill="#E4192E" transform="translate(440,887)"/>
<path d="M0 0 C8.92883035 6.61004473 15.43384213 17.79597183 17.31640625 28.71484375 C17.96704325 38.35610112 18.21304317 48.05788743 11.75390625 55.77734375 C7.18550192 59.4086395 3.00995599 59.36041159 -2.68359375 58.71484375 C-6.81795345 56.38926642 -8.3401616 54.18889835 -9.68359375 49.71484375 C-9.69750982 46.91771384 -9.63080971 44.19023254 -9.49609375 41.40234375 C-9.35953117 35.50697487 -9.36488914 30.96383885 -13.19921875 26.16015625 C-17.63256224 21.8434797 -21.44237647 19.82245094 -27.68359375 19.71484375 C-33.09873638 21.06862941 -38.88971279 23.37646715 -42.34375 27.87890625 C-43.82325414 30.47525056 -45.27949166 33.07683377 -46.68359375 35.71484375 C-47.07933594 36.42898438 -47.47507812 37.143125 -47.8828125 37.87890625 C-53.05852926 48.15337744 -53.71660636 59.72408155 -50.68359375 70.71484375 C-47.03290816 81.68428473 -40.2134981 89.9130319 -29.890625 95.125 C-13.75619846 102.28426042 1.32760332 101.96710285 17.81640625 95.83984375 C23.8564607 93.23141301 28.45600098 89.81247415 31.31640625 83.71484375 C31.24544349 80.07069723 30.74680332 76.60075114 30.25 72.9921875 C30.31640625 69.71484375 30.31640625 69.71484375 32.046875 67.27734375 C34.31640625 65.71484375 34.31640625 65.71484375 38.19140625 65.77734375 C44.04026263 66.86449178 48.41361694 69.20739695 52.31640625 73.71484375 C55.74514398 82.04531484 56.36045837 90.73781635 53.44140625 99.2734375 C47.03433329 113.53362419 34.65433005 122.16092221 20.4375 127.6484375 C-0.32784584 134.74348057 -23.18833682 134.00527714 -42.99609375 124.46484375 C-49.18712667 121.19134382 -54.49183503 117.3983184 -59.68359375 112.71484375 C-60.3796875 112.1115625 -61.07578125 111.50828125 -61.79296875 110.88671875 C-72.77788216 100.75334902 -79.96916369 86.21922708 -80.82446289 71.24926758 C-81.62733777 48.10675146 -77.98818054 26.02119986 -62.09375 8.08203125 C-45.19610657 -8.5143576 -20.38702291 -13.04897085 0 0 Z " fill="#E4192E" transform="translate(351.68359375,1275.28515625)"/>
<path d="M0 0 C3.43758962 2.20358309 3.92588744 3.74278583 5.0625 7.6875 C5.68646413 17.16828833 -3.35651667 25.60631594 -8.7578125 32.6953125 C-11.91457898 36.85590431 -14.9404622 41.09848434 -17.9375 45.375 C-18.43008301 46.07254395 -18.92266602 46.77008789 -19.43017578 47.48876953 C-22.04893218 51.20015899 -24.6350222 54.93020299 -27.1875 58.6875 C-35.25122951 70.40419614 -43.73654632 79.48423085 -56 87 C-62.48446447 88.08074408 -66.21469449 86.32303333 -71.62890625 82.73828125 C-81.8862621 75.21847342 -87.74805649 64.03679075 -93.72265625 53.02734375 C-94.16697998 52.20983643 -94.61130371 51.3923291 -95.0690918 50.55004883 C-95.92475134 48.96110393 -96.76912948 47.36602013 -97.60083008 45.7644043 C-97.98779053 45.040354 -98.37475098 44.31630371 -98.7734375 43.5703125 C-99.10778809 42.92852051 -99.44213867 42.28672852 -99.78662109 41.62548828 C-101.26996799 39.63834067 -102.73628365 38.94504663 -105 38 C-107.6669602 44.28981422 -109.87989704 50.45775659 -111.375 57.125 C-111.57778564 58.01372803 -111.78057129 58.90245605 -111.98950195 59.81811523 C-114.60039389 71.91331096 -116.22886252 84.20363008 -117.94482422 96.45166016 C-118.06669601 97.30724014 -118.18856781 98.16282013 -118.31413269 99.04432678 C-118.54380169 100.66108205 -118.76816735 102.27860289 -118.98628235 103.8969574 C-119.55069892 107.85869235 -120.30836465 111.36309662 -122 115 C-128.76487633 114.57719523 -133.96376842 109.35475894 -138.3125 104.5625 C-145.20890571 95.88092115 -144.7745748 87.24292743 -143.62353516 76.47973633 C-143.10597557 72.95089831 -142.51353159 69.4464377 -141.875 65.9375 C-141.65126709 64.68251709 -141.42753418 63.42753418 -141.19702148 62.13452148 C-139.17259155 51.1950684 -136.58372412 40.53397695 -133 30 C-132.76168457 29.29762207 -132.52336914 28.59524414 -132.27783203 27.87158203 C-129.0794495 18.77254594 -125.49806102 12.66722256 -117.02734375 7.88671875 C-111.90308798 5.57418185 -107.35603403 5.36595572 -102 7 C-83.6542801 14.62023672 -75.82788059 25.03611147 -66.625 42.5 C-65.99147434 43.69041777 -65.35736252 44.88052378 -64.72265625 46.0703125 C-60.45954241 54.08091518 -60.45954241 54.08091518 -59 57 C-58.34 57 -57.68 57 -57 57 C-55.10763209 54.66111831 -53.32452863 52.30958187 -51.5625 49.875 C-50.47002128 48.39229163 -49.37624679 46.91053722 -48.28125 45.4296875 C-47.72953125 44.68170898 -47.1778125 43.93373047 -46.609375 43.16308594 C-38.43203549 32.17230498 -29.70227166 21.57590858 -21 11 C-20.28457031 10.12601563 -19.56914063 9.25203125 -18.83203125 8.3515625 C-13.43269642 1.93910745 -8.72002562 -2.84469919 0 0 Z " fill="#E4192E" transform="translate(1327,937)"/>
<path d="M0 0 C3.80156492 3.09307261 6.43249797 6.85917457 9.17626953 10.8840332 C9.73894531 11.67358398 10.30162109 12.46313477 10.88134766 13.27661133 C15.534842 19.90936969 17.75680754 24.66243452 17.23876953 32.8215332 C16.38299327 35.70005335 15.46894443 36.62623329 13.17626953 38.5715332 C9.0498463 40.32745798 5.64290727 40.84695221 1.23876953 39.8215332 C-2.57333509 37.43280221 -5.46902945 34.19342944 -8.53466797 30.9387207 C-13.90927737 25.32091631 -18.77094891 21.70085744 -26.76123047 21.3215332 C-31.14386029 21.49035562 -34.3037077 22.65525167 -38.06982422 24.84887695 C-39.76123047 25.8215332 -39.76123047 25.8215332 -42.76123047 26.8215332 C-43.8283975 28.620859 -43.8283975 28.620859 -44.76123047 30.8215332 C-45.29748047 31.5640332 -45.83373047 32.3065332 -46.38623047 33.0715332 C-48.21567815 36.73042857 -48.66103183 39.86694402 -47.76123047 43.8215332 C-37.71381593 62.22209238 -4.82901146 72.77460585 14.05126953 78.5715332 C15.01323242 78.85343506 15.97519531 79.13533691 16.96630859 79.42578125 C17.86704102 79.69559814 18.76777344 79.96541504 19.69580078 80.2434082 C20.90200073 80.59290527 20.90200073 80.59290527 22.13256836 80.94946289 C24.47739379 81.92033532 25.71072093 82.79890775 27.23876953 84.8215332 C27.12903219 90.52787473 25.41294099 94.23661888 22.23876953 98.8215332 C15.33274352 104.00105271 6.51020597 103.79128782 -1.76123047 102.8215332 C-23.23373862 98.57711323 -47.4199202 89.73525689 -63.76123047 74.8215332 C-64.39287109 74.28141602 -65.02451172 73.74129883 -65.67529297 73.18481445 C-73.60777879 65.9686985 -79.4694557 55.60204362 -80.09716797 44.8059082 C-80.43024512 29.34497365 -76.03270848 17.90066395 -65.44091797 6.2746582 C-47.4323613 -10.98112922 -20.79337509 -14.24843966 0 0 Z " fill="#E4192E" transform="translate(619.76123046875,823.178466796875)"/>
<path d="M0 0 C1.76149662 0.03957666 3.52329782 0.06690965 5.28515625 0.08398438 C8.00444376 0.11184987 10.72098631 0.17402496 13.43945312 0.24511719 C14.27750488 0.25067627 15.11555664 0.25623535 15.97900391 0.26196289 C20.25573431 0.42053829 22.09158374 0.69962225 25.60351562 3.35839844 C28.2146926 6.95266795 28.2146926 6.95266795 28.06445312 10.05761719 C28.05414063 10.69699219 28.04382813 11.33636719 28.03320312 11.99511719 C27.36795795 14.92219596 26.44183221 16.69637751 24.56445312 19.05761719 C21.54492188 20.31542969 21.54492188 20.31542969 17.75195312 21.18261719 C17.05690674 21.34383057 16.36186035 21.50504395 15.64575195 21.67114258 C8.81026246 23.17398069 1.88908878 23.98103951 -5.04980469 24.84326172 C-11.48788529 25.68413103 -17.71811337 26.909265 -23.99804688 28.55761719 C-24.77704346 28.7592749 -25.55604004 28.96093262 -26.35864258 29.16870117 C-30.41656818 30.28659567 -34.0725542 31.424026 -37.43554688 34.05761719 C-38.71839609 36.62866082 -38.54162692 37.71782955 -37.68554688 40.45996094 C-37.27304687 41.2965625 -36.86054688 42.13316406 -36.43554688 42.99511719 C-36.04367187 43.82914063 -35.65179688 44.66316406 -35.24804688 45.52246094 C-30.76664268 51.79063188 -23.86003058 54.43075732 -16.87304688 57.12011719 C-15.98391602 57.4659082 -15.09478516 57.81169922 -14.17871094 58.16796875 C7.63786497 66.52375677 34.01273344 73.70404061 56.75195312 65.90136719 C60.6853153 64.72135854 62.6949938 64.68718368 66.56445312 66.05761719 C69.55888138 68.09637685 71.19517237 69.56370869 72.08007812 73.14355469 C72.38741768 77.23675878 71.87474814 80.33502899 69.43945312 83.68261719 C60.86794535 92.45918496 49.04081066 95.14875595 37.26660156 95.29931641 C6.33473134 95.37949966 -29.98410696 90.2719289 -53.68554688 68.49511719 C-62.87452795 58.95440478 -66.84472594 47.75247876 -66.70898438 34.66699219 C-65.95224395 24.67801855 -60.90283476 17.83584606 -53.54492188 11.40527344 C-38.67785035 0.25496979 -17.79518098 -0.42702834 0 0 Z " fill="#E4192E" transform="translate(372.435546875,1120.9423828125)"/>
<path d="M0 0 C5.67172721 3.6734763 9.06024626 8.91037727 12.8125 14.4375 C13.73216553 15.77603027 13.73216553 15.77603027 14.67041016 17.14160156 C16.4578256 19.75386951 18.23076264 22.37539824 20 25 C20.45906738 25.67369629 20.91813477 26.34739258 21.39111328 27.04150391 C31.21864294 41.50561165 37.92053181 56.73321277 43.96826172 73.06494141 C46.31206786 79.26454693 48.7713084 84.74610336 52.68115234 90.11743164 C55.00914326 93.44048569 56.01265053 95.30422106 55.9375 99.4375 C54.76399435 103.89682148 53.86606445 105.44839746 50 108 C43.92279589 109.08419604 38.16844594 108.53578183 32.828125 105.35546875 C20.82569834 96.4562336 16.31739952 79.81716871 10.72729492 66.54931641 C5.59190129 54.49899166 -0.24056664 42.76112966 -6 31 C-9.17639573 31.69840648 -9.17639573 31.69840648 -10.46704102 34.42993164 C-10.97420654 35.49590576 -11.48137207 36.56187988 -12.00390625 37.66015625 C-12.86024658 39.42866943 -12.86024658 39.42866943 -13.73388672 41.23291016 C-14.03228455 41.85868958 -14.33068237 42.48446899 -14.63812256 43.12921143 C-21.97834763 58.48092017 -29.80981931 73.05104828 -41 86 C-41.70769531 86.85207031 -42.41539063 87.70414063 -43.14453125 88.58203125 C-48.17106714 94.45365899 -53.44940324 98.9112997 -60 103 C-60.84175781 103.54914063 -61.68351562 104.09828125 -62.55078125 104.6640625 C-66.00286441 106.54701695 -69.20294791 106.68969892 -73 106 C-78.5 103 -78.5 103 -80 100 C-80.97799979 95.28530289 -80.93910398 91.50168041 -78.34375 87.3515625 C-75.96692903 84.49770352 -73.49674085 81.74938724 -71 79 C-59.32864793 64.85970806 -50.58679044 49.33162047 -42.21069336 33.07495117 C-35.21685792 19.54053132 -29.36606177 9.81038845 -14.9375 3.625 C-13.77250977 3.09326172 -13.77250977 3.09326172 -12.58398438 2.55078125 C-8.32896273 0.68448048 -4.70253932 -0.90006994 0 0 Z " fill="#E4192E" transform="translate(1326,1410)"/>
<path d="M0 0 C1.56041016 -0.00773437 1.56041016 -0.00773437 3.15234375 -0.015625 C7.89210409 0.41699742 7.89210409 0.41699742 10.0625 2.25 C11.65408628 8.23244491 10.96445905 14.37313054 10.625 20.5 C10.10389425 31.09500137 9.94994011 41.64435716 10.0625 52.25 C10.83851562 51.3321875 11.61453125 50.414375 12.4140625 49.46875 C19.87760482 40.89374061 26.80219798 35.19544174 37.0625 30.25 C38.07957031 29.72535156 39.09664062 29.20070313 40.14453125 28.66015625 C45.15286475 26.18682055 49.38372695 24.13651509 55.0625 25.25 C61.19254137 28.95356666 65.15713649 34.78288937 68.0625 41.25 C68.5693425 44.03132888 68.93917507 46.64109654 69.1796875 49.44140625 C69.29505356 50.61391937 69.29505356 50.61391937 69.41275024 51.81011963 C70.18068697 59.8688932 70.72026369 67.94663097 71.2677002 76.0227356 C72.14245484 88.78481469 73.11265755 101.35930053 75.88037109 113.88183594 C76.85084459 118.33394114 77.30222063 121.74068651 76.0625 126.25 C73.89128269 129.33980925 72.4347949 130.13544772 68.8125 131.25 C63.98708655 131.25 60.96024552 130.04139854 57.0625 127.25 C49.83639071 119.2426897 49.40725033 106.6843456 48.4375 96.4375 C48.31197754 95.18026123 48.18645508 93.92302246 48.05712891 92.62768555 C47.19961618 83.68610472 46.62521528 74.75439151 46.35302734 65.77612305 C46.35579896 61.37433435 46.35579896 61.37433435 45.0625 57.25 C37.16905244 64.15328011 29.77337407 71.48304685 22.51611328 79.04321289 C11.11312833 90.89564424 11.11312833 90.89564424 2.375 92.8515625 C-4.38128419 92.92003835 -8.06295168 90.84454816 -12.9375 86.25 C-17.63149113 81.55600887 -15.18447764 63.47764699 -15.19067383 56.8605957 C-15.10215606 46.35389066 -14.43040151 35.91028629 -13.625 25.4375 C-13.56614624 24.62482666 -13.50729248 23.81215332 -13.44665527 22.97485352 C-13.27428365 20.64198849 -13.08365585 18.31137479 -12.88671875 15.98046875 C-12.81148232 14.94142647 -12.81148232 14.94142647 -12.73472595 13.88139343 C-12.32646414 9.41670222 -11.29097428 6.06870524 -8.9375 2.25 C-5.48666005 -0.05055997 -4.06574272 -0.02010256 0 0 Z " fill="#E4192E" transform="translate(1156.9375,1389.75)"/>
<path d="M0 0 C21.04317191 18.76547802 24.24561003 50.71162966 29.50683594 76.67602539 C29.82074437 78.15528003 30.16468098 79.62870855 30.54785156 81.09155273 C31.53508675 85.2585168 31.52527206 88.84440147 29.75 92.75 C26.69198038 96.68173952 25.20199821 97.84490346 20.125 98.5 C16.34447092 98.68366943 14.14577938 96.97075293 11.37402344 94.49902344 C4.13950369 86.60635264 2.34831513 71.05388193 -0.17236328 61.01196289 C-2.84932198 50.37975255 -5.87732035 39.86903149 -8.97973633 29.35522461 C-14.64689092 10.11702341 -14.64689092 10.11702341 -13 4 C-9.2108695 -0.7995653 -5.83803247 -1.63464909 0 0 Z " fill="#E4192E" transform="translate(1359,923)"/>
<path d="M0 0 C1.83480641 3.58983862 1.93601246 5.82440033 1.4375 9.8125 C-0.49464207 14.53551394 -2.97621705 15.83511614 -7.5625 17.8125 C-11.02807617 18.56445312 -11.02807617 18.56445312 -14.85546875 19.09375 C-15.55096832 19.19250931 -16.2464679 19.29126862 -16.96304321 19.39302063 C-19.22398263 19.71063871 -21.4866892 20.01228466 -23.75 20.3125 C-25.32321636 20.52783347 -26.89637671 20.74357646 -28.46948242 20.9597168 C-33.16444544 21.59873815 -37.86255717 22.21129673 -42.5625 22.8125 C-43.24799927 22.90033752 -43.93349854 22.98817505 -44.63977051 23.07867432 C-81.03299783 27.71231562 -81.03299783 27.71231562 -91.5625 23.8125 C-94.45646771 21.51216669 -95.39017735 20.32946795 -96.5625 16.8125 C-97.13387013 9.7275104 -97.13387013 9.7275104 -94.92578125 6.19140625 C-90.73358336 1.97149135 -85.19624446 1.22913423 -79.5625 -0.1875 C-78.73363281 -0.4040625 -77.90476562 -0.620625 -77.05078125 -0.84375 C-63.50267536 -3.97200535 -48.75179906 -3.44124804 -34.90551758 -3.80004883 C-33.03916429 -3.85035794 -31.17294199 -3.90576476 -29.30688477 -3.96606445 C-26.56024946 -4.05475813 -23.81355951 -4.12862201 -21.06640625 -4.19921875 C-19.83332481 -4.24280769 -19.83332481 -4.24280769 -18.57533264 -4.28727722 C-12.06593519 -4.4271494 -5.12075894 -4.37137958 0 0 Z " fill="#E4192E" transform="translate(1616.5625,1129.1875)"/>
<path d="M0 0 C4.17136606 1.48458386 8.09310666 3.42144104 12.0625 5.375 C14.38706561 6.48247597 16.7126063 7.58790734 19.0390625 8.69140625 C20.20469727 9.24844238 21.37033203 9.80547852 22.57128906 10.37939453 C27.65406441 12.78180572 32.78377707 15.06700898 37.9375 17.3125 C38.87070068 17.72129395 39.80390137 18.13008789 40.76538086 18.55126953 C45.29192963 20.50567213 49.82683837 22.33402729 54.48046875 23.96484375 C55.34873291 24.2693042 56.21699707 24.57376465 57.11157227 24.88745117 C58.7267659 25.44174735 60.348102 25.97862066 61.97631836 26.4934082 C67.28852939 28.29260031 69.86834755 30.29948089 73 35 C73.68359886 39.32945942 73.5279283 41.19050994 71.125 44.875 C65.98353789 50.01646211 57.90681086 48.37391313 51.07177734 48.3762207 C42.32342172 48.24871285 35.7221148 47.28591378 28 43 C26.49707548 42.22335767 24.99307398 41.44879759 23.48828125 40.67578125 C14.40235603 35.91652956 5.60488981 30.66812866 -3.0625 25.1875 C-3.91336182 24.66091797 -4.76422363 24.13433594 -5.64086914 23.59179688 C-10.22246706 20.62803046 -13.21717132 18.39305677 -15 13 C-14.90680178 7.6877012 -13.69051529 4.80234908 -10 1 C-6.69434138 -0.65282931 -3.56786851 -0.53167125 0 0 Z " fill="#E4192E" transform="translate(1453,1386)"/>
<path d="M0 0 C3.99880456 1.38420158 5.57737711 2.31505946 7.8125 5.9375 C10.90290708 13.90749721 11.21841323 21.68969791 8.125 29.75 C2.27559901 42.43189458 -6.4386219 53.1664079 -15.67822266 63.51513672 C-17.43520738 65.48890493 -19.15250784 67.49612942 -20.875 69.5 C-21.41125 70.098125 -21.9475 70.69625 -22.5 71.3125 C-23.51190235 72.45089014 -24.49104456 73.61914315 -25.4375 74.8125 C-27.53366492 77.27321534 -29.01034014 78.75566124 -32.19921875 79.54296875 C-36.30617084 79.79413772 -38.51633876 79.29611913 -42.0625 77.125 C-44.78611035 72.73208009 -44.61711182 69.06171413 -44 64 C-42.96615233 60.87478109 -41.46388855 58.15205232 -39.8125 55.3125 C-39.3705127 54.51142822 -38.92852539 53.71035645 -38.47314453 52.88500977 C-37.00649945 50.24206166 -35.50779639 47.6196725 -34 45 C-31.78861709 41.14756976 -29.58037442 37.29337305 -27.375 33.4375 C-26.82038086 32.47521484 -26.26576172 31.51292969 -25.69433594 30.52148438 C-21.83685757 23.74167391 -18.49499174 16.87186305 -15.71044922 9.58178711 C-12.6918342 2.09551551 -8.04579499 -1.00572437 0 0 Z " fill="#E4192E" transform="translate(1570,1046)"/>
<path d="M0 0 C5.6364284 3.20502791 6.87603277 6.75468566 8.8359375 12.75390625 C11.23665575 19.4485266 14.73501213 25.69398104 18 32 C18.48130371 32.93650391 18.96260742 33.87300781 19.45849609 34.83789062 C21.02980173 37.89455182 22.60743144 40.94786018 24.1875 44 C24.68636719 44.96711914 25.18523437 45.93423828 25.69921875 46.93066406 C28.27504136 51.87507887 30.93653021 56.6544159 34.04956055 61.28271484 C35.75036034 64.35577565 35.62646333 66.61709804 35 70 C32.73259041 73.60117994 31.19622481 75.54809285 27.1875 77.0625 C20.58711327 76.93308065 15.70455514 74.30375429 11.13134766 69.77563477 C10.35476807 68.95857056 10.35476807 68.95857056 9.5625 68.125 C8.7279126 67.26442993 8.7279126 67.26442993 7.87646484 66.38647461 C-4.18301914 53.64349232 -15.77264981 36.06170969 -16 18 C-15.01179475 5.40430447 -15.01179475 5.40430447 -10 1 C-6.34711807 -0.21762731 -3.84245864 -0.39075851 0 0 Z " fill="#E4192E" transform="translate(1515,1332)"/>
<path d="M0 0 C3.43236258 0.61782526 5.247584 1.55660139 7.33984375 4.40234375 C9.78782027 11.13732393 6.41869775 20.31953993 3.6328125 26.64453125 C-2.75983313 39.01579105 -10.00549998 49.73487904 -19.875 59.5625 C-20.82919782 60.56023412 -21.78099976 61.56026475 -22.73046875 62.5625 C-34.69970253 75.07821785 -34.69970253 75.07821785 -41.3671875 75.8515625 C-43.56539204 75.87210647 -45.68987767 75.79011691 -47.875 75.5625 C-51.21485055 70.55272418 -52.92777414 66.69075367 -51.875 60.5625 C-50.06604795 53.26679271 -46.43011018 48.49308908 -41.296875 43.125 C-38.8657066 40.55266698 -36.64994241 37.88663024 -34.4375 35.125 C-30.53092079 30.29802255 -26.42713035 25.69729155 -22.22265625 21.12890625 C-20.17175902 18.88691044 -18.17022467 16.61458971 -16.1875 14.3125 C-12.91970729 10.55028948 -9.43656604 7.04472422 -5.875 3.5625 C-5.37226562 3.01335937 -4.86953125 2.46421875 -4.3515625 1.8984375 C-2.875 0.5625 -2.875 0.5625 0 0 Z " fill="#E4192E" transform="translate(1119.875,1444.4375)"/>
<path d="M0 0 C3.46478519 1.70089455 5.36368391 3.00402699 7.4375 6.25 C8.3638521 10.77883249 7.40790573 15.04021231 6.48046875 19.49609375 C5.76793696 24.69236214 5.75451328 29.88607538 5.625 35.125 C5.30807374 45.20851396 4.65897862 55.21416901 3.625 65.25 C3.5110791 66.42062988 3.3971582 67.59125977 3.27978516 68.79736328 C2.53169143 75.63607852 1.43639538 81.02482859 -2.1875 86.9375 C-4.71194999 88.41735 -7.11371418 88.71857788 -10.01264954 88.60023499 C-13.33302876 87.59738833 -14.27892091 85.2667402 -15.94491577 82.37643433 C-17.74014847 78.33291582 -18.0598162 74.34935499 -18.36328125 69.97265625 C-18.48584541 68.55188026 -18.48584541 68.55188026 -18.61088562 67.10240173 C-18.77932541 65.10383541 -18.93758692 63.10438778 -19.08618164 61.10424805 C-19.3096741 58.10048042 -19.56296195 55.10047577 -19.82226562 52.09960938 C-22.99021737 14.10559747 -22.99021737 14.10559747 -15.5625 4.5 C-10.8087556 -0.13779942 -6.47953331 -0.9096052 0 0 Z " fill="#E4192E" transform="translate(1410,1403)"/>
<path d="M0 0 C3.2403811 2.41304976 4.6743756 4.06382984 6 7.875 C6 16.11265109 0.47575722 21.46630114 -4.63183594 27.40527344 C-6.09174474 29.10693731 -7.5347295 30.82206343 -8.9765625 32.5390625 C-32.48750309 60.42769611 -32.48750309 60.42769611 -45.24609375 62.3359375 C-50.63735058 62.43203833 -53.83452311 61.7590889 -58 58 C-59.85479817 55.01619424 -60 53.20734287 -60 49.6875 C-57.48348297 40.40784345 -49.80046732 35.05692363 -42.71875 29.13671875 C-39.20942909 26.19802653 -35.80037361 23.16724368 -32.4375 20.0625 C-31.91148193 19.57765137 -31.38546387 19.09280273 -30.84350586 18.59326172 C-27.98682847 15.93261798 -25.20447072 13.21461794 -22.47265625 10.42578125 C-21.89136963 9.83337646 -21.31008301 9.24097168 -20.71118164 8.63061523 C-19.59983755 7.4904133 -18.49568864 6.34313737 -17.40014648 5.18774414 C-12.06919749 -0.30193009 -7.37519522 -2.29450518 0 0 Z " fill="#E4192E" transform="translate(1157,1511)"/>
<path d="M0 0 C3.45174716 2.21265844 3.91192129 3.60703343 4.8125 7.625 C4.57260194 12.95273601 0.95568085 16.10486119 -2.54296875 19.80078125 C-10.99840391 27.36900064 -21.29626601 27.31331056 -32.17578125 27.3359375 C-33.86806099 27.3459227 -33.86806099 27.3459227 -35.5945282 27.35610962 C-37.96184674 27.36617376 -40.32919329 27.37092859 -42.6965332 27.37060547 C-46.31964085 27.37500868 -49.94155799 27.41147771 -53.56445312 27.44921875 C-55.87239169 27.45508218 -58.180336 27.45905474 -60.48828125 27.4609375 C-61.5685408 27.47530853 -62.64880035 27.48967957 -63.76179504 27.50448608 C-71.23909624 27.45886068 -71.23909624 27.45886068 -75.15698242 25.09619141 C-77.56720261 22.35488123 -77.96368969 21.38488932 -78.3125 17.6875 C-77.93761913 13.26390573 -77.23567726 11.99300147 -74 9 C-61.83372387 0.92900601 -48.27167268 0.49302164 -34.25 0.875 C-31.00533797 0.94855335 -27.76079843 1.00894406 -24.515625 1.0546875 C-23.75179001 1.06595673 -22.98795502 1.07722595 -22.20097351 1.08883667 C-14.63280485 1.13067022 -7.32319621 -2.01028915 0 0 Z " fill="#E4192E" transform="translate(1599,1292)"/>
<path d="M0 0 C1.55024464 3.10048928 1.28992015 5.57894218 1 9 C-1.66349811 13.05747843 -4.21652836 14.89200357 -8.5625 16.9375 C-22.52578956 24.15342816 -34.74301216 34.67877663 -47.0378418 44.38110352 C-57.73014264 52.79591578 -57.73014264 52.79591578 -62.5 53.5625 C-67.14371747 52.81618826 -68.98137757 51.60762193 -72 48 C-73.07418064 43.5392804 -72.70812727 40.27937427 -70.484375 36.26171875 C-58.90457626 19.99485862 -38.72914916 2.10547885 -18.8125 -2.375 C-5.48173895 -4.4539129 -5.48173895 -4.4539129 0 0 Z " fill="#E4192E" transform="translate(1598,1173)"/>
<path d="M0 0 C2.1875 1.6875 2.1875 1.6875 4.1875 4.6875 C4.81864754 10.27766393 4.81864754 10.27766393 4.1875 12.6875 C-6.93207623 26.19860274 -39.15977569 31.0977184 -56.0625 33.3125 C-61.78511345 33.81579174 -67.51107304 34.21890543 -72.8125 31.6875 C-76.43267776 28.61983229 -77.65397569 25.70910109 -78.375 21.0625 C-77.70744948 17.0571969 -76.58077939 15.61013122 -73.8125 12.6875 C-63.40366167 7.40984074 -49.77119407 6.30587645 -38.42675781 4.11328125 C-34.92304457 3.43470035 -31.42243701 2.7415086 -27.921875 2.046875 C-25.67985773 1.60850347 -23.43767571 1.17097352 -21.1953125 0.734375 C-19.63733444 0.42509064 -19.63733444 0.42509064 -18.04788208 0.10955811 C-5.08274789 -2.37194902 -5.08274789 -2.37194902 0 0 Z " fill="#E4192E" transform="translate(1699.8125,1339.3125)"/>
<path d="M0 0 C3.03855548 2.37387147 3.01257095 4.08364877 3.59082031 7.93139648 C4.15915083 13.50191438 3.88183788 18.95635336 3.546875 24.53515625 C3.48598694 25.61325058 3.42509888 26.69134491 3.36236572 27.80210876 C3.23167327 30.06890477 3.09698436 32.33547356 2.95849609 34.60180664 C2.75046233 38.0548261 2.56405957 41.50857794 2.37890625 44.96289062 C2.24871105 47.17455698 2.11724347 49.38614888 1.984375 51.59765625 C1.93110046 52.62182144 1.87782593 53.64598663 1.82293701 54.70118713 C0.93926398 68.31267293 0.93926398 68.31267293 -4.1875 73 C-8.98154852 74.70455059 -13.07373388 74.77050645 -17.8125 72.875 C-22.22003384 69.09711386 -23.27174359 64.55697498 -24 59 C-24.1260562 56.15495497 -24.2108295 53.33392571 -24.23828125 50.48828125 C-24.246353 49.67940964 -24.25442474 48.87053802 -24.26274109 48.03715515 C-24.27651812 46.3302114 -24.28726855 44.62324084 -24.29516602 42.91625977 C-24.30666297 41.18928825 -24.32707857 39.46235162 -24.35668945 37.7355957 C-24.52689787 27.78838747 -24.56088728 19.10815371 -20 10 C-19.49597656 8.94683594 -18.99195313 7.89367188 -18.47265625 6.80859375 C-18.00730469 6.02613281 -17.54195312 5.24367188 -17.0625 4.4375 C-16.59972656 3.63183594 -16.13695312 2.82617188 -15.66015625 1.99609375 C-11.24837175 -3.30842832 -5.82719015 -2.14863575 0 0 Z " fill="#E4192E" transform="translate(1270,1538)"/>
<path d="M0 0 C3.14475743 1.53743696 4.56794836 2.81882438 5.77978516 6.13183594 C6.00972168 6.94942383 6.2396582 7.76701172 6.4765625 8.609375 C6.86050171 9.95104736 6.86050171 9.95104736 7.25219727 11.31982422 C7.49897217 12.20428223 7.74574707 13.08874023 8 14 C10.61884357 23.15546914 13.30979262 32.23455736 16.61328125 41.171875 C17.06823975 42.40566895 17.52319824 43.63946289 17.99194336 44.91064453 C18.89614328 47.33897597 19.81437471 49.7621408 20.74829102 52.17919922 C23.19094926 58.73504514 25.2948503 64.94579908 24 72 C21.60996015 75.44446919 20.00716736 76.65713451 16.0625 78 C12.1955521 78 10.31734177 76.97111332 7 75 C-7.6908338 59.57462451 -14.01721179 37.46812919 -14.3125 16.625 C-14.33022461 15.86364746 -14.34794922 15.10229492 -14.36621094 14.31787109 C-14.35983173 9.49200149 -13.68696245 6.16573569 -11 2 C-7.28462392 -0.47691739 -4.30542984 -0.6403379 0 0 Z " fill="#E4192E" transform="translate(1569,1447)"/>
<path d="M0 0 C3.15850062 2.75356464 3.90662809 4.34639662 4.5 8.5 C3.88445648 12.80880467 3.02968742 13.87478189 0 17 C-3.26768635 19.32712459 -6.68192643 21.38175426 -10.125 23.4375 C-11.47464844 24.25831055 -11.47464844 24.25831055 -12.8515625 25.09570312 C-14.66615211 26.19723202 -16.48478913 27.29212056 -18.30737305 28.38037109 C-20.07491746 29.44355811 -21.83212281 30.52416564 -23.57739258 31.62353516 C-35.1452334 38.84233544 -47.70890084 43.05942208 -61.4375 41.6875 C-62.22374756 41.61144531 -63.00999512 41.53539062 -63.82006836 41.45703125 C-68.97668055 40.71916723 -71.72503732 39.28313747 -75 35 C-75.4375 31.625 -75.4375 31.625 -74 28 C-63.08882937 17.45636354 -46.16003711 13.11520094 -32.125 8.3125 C-29.64439716 7.45861321 -27.16449725 6.60277075 -24.68551636 5.7441864 C-23.15834911 5.21575773 -21.63019444 4.69017018 -20.1008606 4.16804504 C-16.73341916 3.00738336 -13.45762243 1.78357802 -10.21044922 0.31713867 C-6.22597564 -1.317556 -4.10641797 -1.23967335 0 0 Z " fill="#E4192E" transform="translate(1555,1027)"/>
<path d="M0 0 C3.7785668 2.62400472 4.70505932 5.49422312 5.62890625 9.93359375 C5.75136719 10.61550781 5.87382813 11.29742188 6 12 C6.20625 13.11375 6.4125 14.2275 6.625 15.375 C7.10017493 19.9683577 7.21751678 24.38736469 7 29 C6.95617188 29.96035156 6.91234375 30.92070313 6.8671875 31.91015625 C6.08573385 40.1554941 3.62840836 47.45671395 0.75 55.1875 C0.3794751 56.18475098 0.0089502 57.18200195 -0.37280273 58.20947266 C-7.72142163 77.23330598 -7.72142163 77.23330598 -14 81 C-17.9072658 81.49728837 -20.31060673 81.29335884 -23.9375 79.75 C-27.31404843 75.24793543 -26.48134306 70.450976 -26 65 C-24.97013798 59.71524555 -23.57560429 54.55519413 -22.125 49.375 C-17.54566162 33.0688883 -17.54566162 33.0688883 -15.5625 16.3125 C-14.96865541 6.50416683 -14.96865541 6.50416683 -12 2 C-7.80104233 -0.98592546 -4.91404816 -1.60240701 0 0 Z " fill="#E4192E" transform="translate(1485,983)"/>
<path d="M0 0 C0.66308167 0.15772888 1.32616333 0.31545776 2.00933838 0.47796631 C36.36633097 8.67449646 36.36633097 8.67449646 42.5 17.875 C43.31858428 22.47630531 43.0789678 25.89674407 40.6875 29.9375 C33.12490845 34.53436938 22.96495761 31.43102045 14.8125 29.5625 C12.70216736 29.09739272 10.59148849 28.63385367 8.48046875 28.171875 C7.46130371 27.94693359 6.44213867 27.72199219 5.39208984 27.49023438 C2.14540712 26.79956744 -1.1093243 26.21224898 -4.38085938 25.65405273 C-13.57359867 24.07953727 -22.40940551 22.48824312 -28.5 14.875 C-30.97458618 11.33987689 -30.87136388 8.10854818 -30.5 3.875 C-25.11839966 -8.23360077 -9.99039286 -2.4179247 0 0 Z " fill="#E4192E" transform="translate(1559.5,1232.125)"/>
<path d="M0 0 C3.01784991 1.75607646 5.41468217 3.82936435 7 7 C7.1620427 8.51560794 7.27391929 10.03674534 7.359375 11.55859375 C8.35645193 26.81202928 10.69364667 40.88216284 16.375 55.125 C18.21866591 59.94401292 18.6285318 64.04225445 17 69 C14.75410675 71.99452434 13.55130633 72.81623122 10 74 C6.14573076 74.35687678 3.84059737 74.53167121 0.5234375 72.43359375 C-2.47633095 69.5406282 -4.22228472 66.45991715 -6 62.75 C-6.3417627 62.04834717 -6.68352539 61.34669434 -7.03564453 60.6237793 C-14.82150289 44.14267137 -20.50865106 24.27949129 -14.75 6.3125 C-11.55360445 0.26217985 -6.70075475 -1.43961528 0 0 Z " fill="#E4192E" transform="translate(1125,914)"/>
<path d="M0 0 C2.375 1.5625 2.375 1.5625 4 4 C4.48334403 8.14992353 4.51507121 10.24934529 2.12109375 13.73828125 C-5.34297812 20.89814059 -13.23477082 26.53919142 -22 32 C-23.73600544 33.10104495 -25.47166447 34.20263623 -27.20703125 35.3046875 C-54.92847543 52.8064388 -54.92847543 52.8064388 -65 52 C-69.14877262 50.51829549 -70.55257875 49.67113187 -73 46 C-73.42599025 42.16608775 -73.54485725 39.87316867 -71.4765625 36.55859375 C-68.32604779 33.30372445 -64.99090933 31.51187824 -61 29.4375 C-54.19114294 25.7856475 -47.53288306 21.96188842 -40.9375 17.9375 C-34.62343558 14.11034881 -28.26751333 10.40842947 -21.75 6.9375 C-20.75021118 6.40080688 -20.75021118 6.40080688 -19.73022461 5.85327148 C-6.56979314 -1.04519436 -6.56979314 -1.04519436 0 0 Z " fill="#E4192E" transform="translate(1466,974)"/>
<path d="M0 0 C3.43952148 2.09362177 5.78028175 4.11907831 7 8 C7.72617095 14.6368647 5.55511409 18.52585908 2.3125 24.0625 C1.82499268 24.92012939 1.33748535 25.77775879 0.83520508 26.66137695 C-0.75906008 29.45140392 -2.37726648 32.22644552 -4 35 C-4.56106445 35.96711914 -5.12212891 36.93423828 -5.70019531 37.93066406 C-15.15447085 54.21572101 -15.15447085 54.21572101 -20.13671875 61.95703125 C-20.59135498 62.66448486 -21.04599121 63.37193848 -21.5144043 64.10083008 C-24.14523374 67.46405476 -26.12746463 68.8707355 -30.375 69.5 C-35.12589844 68.84470366 -36.92452745 67.67556476 -40 64 C-41.62190477 56.68456441 -38.46432812 50.67917213 -35.1796875 44.33984375 C-34.68340851 43.3505336 -34.18712952 42.36122345 -33.67581177 41.3419342 C-32.62667398 39.25938347 -31.56886819 37.18117937 -30.50292969 35.10717773 C-28.88292861 31.95293748 -27.2909715 28.78576245 -25.703125 25.61523438 C-24.67610199 23.58511571 -23.64750712 21.55579132 -22.6171875 19.52734375 C-22.14505829 18.59067368 -21.67292908 17.6540036 -21.18649292 16.68894958 C-11.71108475 -1.6697445 -11.71108475 -1.6697445 0 0 Z " fill="#E4192E" transform="translate(1197,1559)"/>
<path d="M0 0 C3.70800042 3.09000035 3.70800042 3.09000035 5 6 C5.0837681 15.1958761 0.65241041 22.57951362 -3.50073242 30.55078125 C-7.55228421 38.38712476 -9.7281491 44.4117736 -9.06152344 53.29711914 C-8.99834473 56.07272 -9.24263251 57.35798401 -10.6875 59.6875 C-14.20067522 63.20067522 -16.59336291 63.8744074 -21.5 64.3125 C-26.02607931 63.90838578 -28.36541425 62.4010735 -31.75 59.5 C-35.27420951 55.27094859 -34.41893585 49.14113083 -34 44 C-31.90814307 35.39198249 -28.05723026 27.85832154 -23.625 20.25 C-23.07328125 19.27417969 -22.5215625 18.29835938 -21.953125 17.29296875 C-10.36933166 -2.91068959 -10.36933166 -2.91068959 0 0 Z " fill="#E4192E" transform="translate(1522,926)"/>
<path d="M0 0 C2.4149606 1.93196848 3.30980435 2.79775098 4.1875 5.75 C4.84830556 12.68845839 4.84830556 12.68845839 2.609375 16.28515625 C-0.26004111 19.20548136 -3.2134452 20.71388994 -6.9375 22.25 C-7.98006958 22.69001343 -7.98006958 22.69001343 -9.04370117 23.13891602 C-24.44964817 29.43052036 -39.62337633 33.97658603 -55.8125 27.75 C-59.20533642 25.60351166 -61.68995751 23.67889873 -62.8125 19.75 C-62.63582188 16.3931158 -62.43399255 13.78582092 -60.6875 10.875 C-58.46887085 9.54382251 -56.47231666 9.25936375 -53.92285156 8.98168945 C-43.38397993 7.82465692 -33.18002556 4.83575467 -22.98095703 2.05810547 C-20.95280684 1.50766905 -18.92200219 0.96807304 -16.890625 0.4296875 C-15.69856445 0.10726074 -14.50650391 -0.21516602 -13.27832031 -0.54736328 C-8.53644587 -1.50869849 -4.47983841 -1.99103929 0 0 Z " fill="#E4192E" transform="translate(1671.8125,1083.25)"/>
<path d="M0 0 C3.90038107 1.7335027 4.57100232 2.73514258 6.375 6.5 C6.75595093 9.07971191 6.75595093 9.07971191 6.76318359 11.85351562 C6.77264008 12.89809937 6.78209656 13.94268311 6.7918396 15.0189209 C6.78576691 16.1367395 6.77969421 17.25455811 6.7734375 18.40625 C6.77630768 19.56370728 6.77917786 20.72116455 6.78213501 21.91369629 C6.78417419 24.35799652 6.77865459 26.80231312 6.76611328 29.24658203 C6.7500585 32.98637406 6.76596791 36.72508531 6.78515625 40.46484375 C6.78317379 42.84114822 6.77933007 45.21745201 6.7734375 47.59375 C6.78254654 49.27047791 6.78254654 49.27047791 6.7918396 50.9810791 C6.78238312 52.02566284 6.77292664 53.07024658 6.76318359 54.14648438 C6.76079681 55.0618396 6.75841003 55.97719482 6.75595093 56.92028809 C6.17993121 60.82096093 4.33976339 63.46377266 1.6875 66.3125 C-1.72718071 68.06598469 -4.92569065 68.27957613 -8.625 67.5 C-13.4916597 63.9029037 -15.04929022 60.20194775 -15.9609375 54.33984375 C-16.29807241 51.39219123 -16.47631562 48.46355 -16.625 45.5 C-16.66431641 44.82243652 -16.70363281 44.14487305 -16.74414062 43.44677734 C-17.44688456 29.93086759 -16.73533025 13.96632897 -8.625 2.5 C-5.41959397 -0.26021074 -4.24391356 -0.58536739 0 0 Z " fill="#E4192E" transform="translate(1304.625,851.5)"/>
<path d="M0 0 C10.37348835 -0.29638538 23.018207 0.84267682 32.55078125 5.12890625 C34.75880629 7.53233173 35.48638212 8.75861127 36.05078125 12.00390625 C35.38626513 16.15713202 33.69259915 18.48666739 30.55078125 21.12890625 C23.33869127 26.05027093 15.16243329 25.74370349 6.78491211 25.65039062 C4.48900139 25.62891299 2.19620724 25.65028035 -0.09960938 25.67578125 C-8.94537516 25.69344131 -15.43263542 25.22827845 -22.54296875 19.41796875 C-24.97052527 16.5453602 -26.3334921 14.77183206 -27.01171875 11.00390625 C-26.35749076 7.6600743 -25.63769466 5.75507734 -23.44921875 3.12890625 C-16.00547571 0.04647521 -7.92650092 0.41718426 0 0 Z " fill="#E4192E" transform="translate(1668.44921875,1405.87109375)"/>
<path d="M0 0 C2.88468474 1.94402667 4.6526473 3.41039878 5.41789246 6.91241455 C5.95234645 12.6494066 6.1898345 18.34820766 6.23828125 24.109375 C6.246353 25.03921204 6.25442474 25.96904907 6.26274109 26.92706299 C6.2764736 28.87664989 6.28724336 30.82625974 6.29516602 32.77587891 C6.30676416 34.76585964 6.32733709 36.75580742 6.35668945 38.74560547 C6.39925828 41.63790772 6.41551017 44.52929894 6.42578125 47.421875 C6.44328934 48.30840759 6.46079742 49.19494019 6.47883606 50.1083374 C6.46418519 54.27221116 6.35616146 56.43134883 4.09838867 60.03613281 C1.39863283 62.5628153 0.47732685 62.95410319 -3.25 63.3125 C-8.79326923 62.8505609 -11.60681642 60.50614441 -15.3125 56.5 C-21.33266193 47.58124159 -18.86638488 30.97942981 -17.0234375 20.98828125 C-16.61827174 19.1129106 -16.19444838 17.24145118 -15.75 15.375 C-15.54552246 14.50560791 -15.34104492 13.63621582 -15.13037109 12.74047852 C-13.88774499 7.99492418 -12.5324246 4.57481369 -9 1 C-5.86128812 -0.56935594 -3.46144178 -0.35201103 0 0 Z " fill="#E4192E" transform="translate(1408,1527)"/>
<path d="M0 0 C2.6875 1.25 2.6875 1.25 5 4 C8.25092742 13.28483011 9.32396815 23.4344897 10.78979492 33.12841797 C11.18904895 35.76021035 11.60081225 38.38984279 12.01367188 41.01953125 C12.27418619 42.71603103 12.53397728 44.41264207 12.79296875 46.109375 C12.91480026 46.88351746 13.03663177 47.65765991 13.16215515 48.45526123 C15.02363684 60.95272632 15.02363684 60.95272632 12.5 66 C9.71595966 68.22723227 7.68522409 68.9807872 4.0859375 68.7265625 C-1.42272553 66.8078147 -4.07770149 60.86604582 -6.51171875 55.94140625 C-12.07108183 43.18195116 -12.0542831 29.54282212 -12.1875 15.8125 C-12.20047119 15.10633545 -12.21344238 14.4001709 -12.22680664 13.67260742 C-12.23578582 8.69993882 -11.78031826 4.84390106 -8.25 1.1875 C-5.22105071 -0.41111212 -3.38597949 -0.48371136 0 0 Z " fill="#E4192E" transform="translate(1507,1480)"/>
<path d="M0 0 C6.35865601 0.73667356 12.73629972 0.40874046 19.12695312 0.23046875 C25.81178308 0.13860975 30.5408878 0.47273652 35.71875 5.1328125 C37.38782338 8.56368556 37.46871249 11.75435756 36.84375 15.4453125 C35.3076582 18.58731845 33.96232438 19.96799876 30.73828125 21.34375 C28.12538476 22.18286779 25.51997624 22.83844993 22.84375 23.4453125 C21.94914062 23.66316406 21.05453125 23.88101562 20.1328125 24.10546875 C9.86331661 26.32709322 1.00948456 24.64775749 -9.03125 22.1328125 C-9.85238281 21.93228271 -10.67351562 21.73175293 -11.51953125 21.52514648 C-16.21170007 20.28131725 -19.65554428 18.99406713 -23.15625 15.4453125 C-24.53902259 11.29699472 -24.70915618 7.43577473 -23.53125 3.1953125 C-17.83727489 -4.05156491 -7.95879373 -1.3986989 0 0 Z " fill="#E4192E" transform="translate(1675.15625,1286.5546875)"/>
<path d="M0 0 C2.4375 1.5625 2.4375 1.5625 4 4 C4.84516162 10.33871218 3.64680379 14.77167416 0 20 C-2.44303751 22.81953302 -4.97159632 25.54021362 -7.52734375 28.2578125 C-11.66593878 32.847534 -15.01464952 37.68656844 -17.4375 43.375 C-19.6700454 47.12567627 -21.85877063 47.82665168 -26 49 C-30.42786158 49 -32.34249088 48.52600729 -35.8125 45.75 C-39.53507331 41.07019355 -40.47468047 37.2290885 -40.30859375 31.328125 C-39.22189517 23.12974081 -32.93487765 16.15917445 -26.69897461 11.15258789 C-24.24969159 9.39874692 -21.76687478 7.71772445 -19.25 6.0625 C-18.40050781 5.48693359 -17.55101562 4.91136719 -16.67578125 4.31835938 C-10.71069677 0.31807761 -7.3714112 -1.68119905 0 0 Z " fill="#E4192E" transform="translate(1633,1005)"/>
<path d="M0 0 C2.87029869 1.79393668 4.49131638 2.98263276 6 6 C6.54471537 11.66503985 5.42346174 14.65666072 2 19 C-5.07322276 27.11659717 -12.5851093 35.48759559 -23 39 C-23.83015625 39.31066406 -24.6603125 39.62132812 -25.515625 39.94140625 C-30.85355849 41.7671105 -36.37417148 43.17620873 -42 42 C-45.4153137 39.58081946 -46.69248754 37.98403987 -47.9375 34 C-48.01029925 30.50563608 -47.8950009 28.95620141 -46 26 C-43.48754719 24.07079516 -40.75059247 22.56273398 -38 21 C-28.77623174 15.58832397 -20.69167601 9.05044038 -12.52124023 2.19580078 C-8.74358567 -0.77369883 -4.61994397 -0.59843834 0 0 Z " fill="#E4192E" transform="translate(1618,957)"/>
<path d="M0 0 C6.21722955 4.07215456 9.12079605 9.77267805 12.625 16.1875 C13.18445312 17.17814453 13.74390625 18.16878906 14.3203125 19.18945312 C21.16546161 31.49942057 24.51090704 39.69217997 21.046875 53.64453125 C20 56 20 56 18.0703125 57.3203125 C14.88347627 58.36655685 13.18612543 58.08328265 10 57 C5.25283377 52.60810764 2.0443911 47.07309553 -1 41.4375 C-1.42716309 40.64956055 -1.85432617 39.86162109 -2.29443359 39.04980469 C-3.54740566 36.70871283 -4.77814378 34.35745776 -6 32 C-6.34192383 31.3498291 -6.68384766 30.6996582 -7.03613281 30.02978516 C-11.3898515 21.59134702 -13.67828971 13.53632834 -12 4 C-8.97303809 -0.11491344 -4.85500069 -0.57117655 0 0 Z " fill="#E4192E" transform="translate(1157,871)"/>
<path d="M0 0 C3.87731219 2.63987213 4.84251582 4.1994554 5.75 8.8125 C5.28116371 15.74085858 -0.88307938 20.08124978 -5.75 24.375 C-6.75353516 25.22191406 -6.75353516 25.22191406 -7.77734375 26.0859375 C-10.36490461 28.31424123 -12.82654939 30.65903371 -15.3125 33 C-21.87529531 38.97032073 -28.84138854 45.24723741 -38 46 C-42.56521739 43.86956522 -42.56521739 43.86956522 -44 41 C-44.54548168 37.59073948 -44.77797216 35.10841968 -42.72973633 32.19018555 C-42.16536865 31.5744165 -41.60100098 30.95864746 -41.01953125 30.32421875 C-40.38289551 29.6271582 -39.74625977 28.93009766 -39.09033203 28.21191406 C-35.49773219 24.41035431 -31.87352921 20.6487113 -28.1875 16.9375 C-27.44435547 16.17373047 -26.70121094 15.40996094 -25.93554688 14.62304688 C-10.365652 -1.0541341 -10.365652 -1.0541341 0 0 Z " fill="#E4192E" transform="translate(1499,881)"/>
<path d="M0 0 C2.41455174 2.48308705 3 3.42354503 3 6.9375 C1.76679251 10.71419795 -0.09068112 12.47948411 -3 15 C-4.05574219 16.00546875 -4.05574219 16.00546875 -5.1328125 17.03125 C-13.28517556 24.68555873 -22.52213205 32.94026651 -34 34.375 C-37.91678344 33.88540207 -39.96544949 32.48281405 -43 30 C-45.59036348 26.58542996 -45.43108741 23.16717829 -45 19 C-41.05446866 10.94454018 -34.19327299 7.2409316 -26.0625 4.25 C-8.05216914 -1.71508296 -8.05216914 -1.71508296 0 0 Z " fill="#E4192E" transform="translate(1680,1145)"/>
<path d="M0 0 C3.22272105 3.22272105 3.31740441 5.45323897 3.6484375 9.95703125 C2.69919836 13.88858143 -0.2914449 16.09977839 -3.59570312 18.23901367 C-5.47712579 19.31793259 -7.38165895 20.32494122 -9.3125 21.3125 C-9.95509766 21.65474609 -10.59769531 21.99699219 -11.25976562 22.34960938 C-18.79239784 26.28799069 -25.63792126 28.5110175 -34.125 26.625 C-37.44264874 25.55164305 -39.48982439 24.5218476 -41.9375 22 C-43.25842967 17.949149 -43.20527461 14.18851643 -41.875 10.125 C-38.84607138 6.4549407 -36.13938639 5.27063955 -31.60546875 3.984375 C-29.77725586 3.46230469 -29.77725586 3.46230469 -27.91210938 2.9296875 C-26.64173828 2.58164063 -25.37136719 2.23359375 -24.0625 1.875 C-22.1743457 1.32972656 -22.1743457 1.32972656 -20.24804688 0.7734375 C-5.25937554 -3.43002752 -5.25937554 -3.43002752 0 0 Z " fill="#E4192E" transform="translate(1674.875,1227.875)"/>
<path d="M0 0 C2.70358172 0.61284801 5.1980636 1.26191011 7.8125 2.125 C8.504646 2.35018311 9.19679199 2.57536621 9.90991211 2.80737305 C19.50404706 6.0521373 28.45630483 10.11631458 34 19 C35.25 22.6875 35.25 22.6875 35 26 C33.0625 28.9375 33.0625 28.9375 30 31 C22.43997249 32.11866756 16.11986783 29.05933367 9.28100586 26.14770508 C7.31424173 25.31323899 5.33725991 24.50795384 3.35742188 23.70507812 C2.08783183 23.17617988 0.81892602 22.64563552 -0.44921875 22.11328125 C-1.58705811 21.63673096 -2.72489746 21.16018066 -3.8972168 20.66918945 C-7.25785186 18.86128467 -9.44404349 16.8110015 -12 14 C-12.33 13.67 -12.66 13.34 -13 13 C-13.69565217 6.04347826 -13.69565217 6.04347826 -11 2 C-7.24835501 -0.50109666 -4.33719341 -0.40150131 0 0 Z " fill="#E4192E" transform="translate(1601,1408)"/>
<path d="M0 0 C4.73450247 3.35435254 7.45060947 6.80718325 10.0859375 11.98828125 C10.43258453 12.65031052 10.77923157 13.31233978 11.13638306 13.99443054 C11.86049887 15.3869381 12.57781734 16.78299973 13.28857422 18.18237305 C14.3724552 20.30751048 15.48716888 22.41429702 16.60546875 24.52148438 C17.30921379 25.88442591 18.01110034 27.248329 18.7109375 28.61328125 C19.04209564 29.23439285 19.37325378 29.85550446 19.71444702 30.49543762 C22.10345731 35.28908649 22.43835929 38.77139817 22 44 C19.85205126 46.64362921 18.46974104 46.92851767 15.125 47.4375 C9.96062725 46.71448782 6.86124695 43.99893847 3.5078125 40.109375 C2.69891811 39.00010073 1.90516545 37.87966429 1.125 36.75 C0.70299316 36.14591309 0.28098633 35.54182617 -0.15380859 34.91943359 C-3.28283265 30.31585254 -6.06008302 25.56354411 -8.625 20.625 C-8.96772949 19.98401367 -9.31045898 19.34302734 -9.66357422 18.68261719 C-12.02050531 13.92458556 -12.48581997 10.30493068 -12 5 C-8.63394339 0.10391766 -5.83719613 -1.0240695 0 0 Z " fill="#E4192E" transform="translate(1437,1518)"/>
<path d="M0 0 C3.14207514 0.10291961 5.41017189 0.21290236 7.96484375 2.12890625 C10.00380163 7.22630094 9.16575246 11.99385971 7.93359375 17.1640625 C6.53225939 23.94894487 6.95967078 30.61965258 7.30664062 37.50195312 C7.49648312 44.87660395 7.49648312 44.87660395 4.734375 48.78515625 C1.19345016 51.14244331 -0.74147533 51.43260817 -4.88671875 51.1640625 C-7.76298145 50.44761161 -9.39363244 49.03049799 -11.02734375 46.57421875 C-15.80890742 37.34468888 -15.07876965 30.4795199 -12.03515625 20.62890625 C-5.65244728 1.74672555 -5.65244728 1.74672555 0 0 Z " fill="#E4192E" transform="translate(1397.03515625,864.37109375)"/>
<path d="M0 0 C3.36311265 1.20727121 4.85551624 2.71103249 6.4375 5.875 C6.99337209 13.10133716 4.89700974 17.26384054 0.4375 22.75 C-4.31057087 27.97186988 -10.49403047 34.51907071 -17.77734375 35.15625 C-20.5625 34.875 -20.5625 34.875 -22.5625 33.875 C-24.33423022 26.91463127 -22.88441515 22.14855313 -19.5625 15.875 C-15.96204358 10.77435341 -11.36503126 6.81823143 -6.5625 2.875 C-5.87414063 2.30910156 -5.18578125 1.74320313 -4.4765625 1.16015625 C-2.5625 -0.125 -2.5625 -0.125 0 0 Z " fill="#E4192E" transform="translate(1063.5625,1549.125)"/>
<path d="M0 0 C3.5625 0.1875 3.5625 0.1875 5.5625 2.1875 C6.06494141 4.07592773 6.06494141 4.07592773 6.4140625 6.37109375 C6.60826782 7.63167603 6.60826782 7.63167603 6.80639648 8.91772461 C6.93216064 9.81112549 7.0579248 10.70452637 7.1875 11.625 C7.31648682 12.53064697 7.44547363 13.43629395 7.57836914 14.36938477 C9.80239581 30.70770838 9.80239581 30.70770838 7 36.3125 C3.76522873 38.80078559 1.62713082 39.1875 -2.4375 39.1875 C-6.01137602 37.59911066 -7.24839572 36.47115642 -9.4375 33.1875 C-10.38347518 22.86524143 -10.42585531 10.00499955 -4.4375 1.1875 C-3.4375 0.1875 -3.4375 0.1875 0 0 Z " fill="#E4192E" transform="translate(1328.4375,1574.8125)"/>
<path d="M0 0 C4.89634674 6.74740465 5.81346974 16.10807127 4.53515625 24.21875 C4 26 4 26 2.3125 28.0625 C-0.75150939 29.30466597 -2.72873241 29.5568115 -6 29 C-10.94492457 23.87847098 -11.07608136 14.3491389 -11.4375 7.5625 C-11.35206597 3.98566214 -11.18811883 3.23791498 -8.875 0.3125 C-5.28860865 -1.32476562 -3.6920962 -1.36447033 0 0 Z " fill="#E4192E" transform="translate(1261,878)"/>
<path d="M0 0 C2.4375 0.9375 2.4375 0.9375 3.9375 3.25 C4.4375 5.9375 4.4375 5.9375 3.0625 8.25 C2.52625 8.806875 1.99 9.36375 1.4375 9.9375 C-4.4375 9.0625 -4.4375 9.0625 -5.5625 7.9375 C-5.8125 5 -5.8125 5 -5.5625 1.9375 C-2.5625 -0.0625 -2.5625 -0.0625 0 0 Z " fill="#E4192E" transform="translate(636.5625,890.0625)"/>
</svg>
